<?xml version="1.0" encoding="utf-8"?>
<!-- Generator: Adobe Illustrator 18.0.0, SVG Export Plug-In . SVG Version: 6.00 Build 0)  -->
<!DOCTYPE svg PUBLIC "-//W3C//DTD SVG 1.1//EN" "http://www.w3.org/Graphics/SVG/1.1/DTD/svg11.dtd">
<svg version="1.1" id="icons" xmlns="http://www.w3.org/2000/svg" xmlns:xlink="http://www.w3.org/1999/xlink" x="0px" y="0px"
	 viewBox="0 0 52 52" enable-background="new 0 0 52 52" xml:space="preserve">
<g>
	
		<ellipse fill="none" stroke="#97A474" stroke-width="4" stroke-linecap="round" stroke-linejoin="round" stroke-miterlimit="10" cx="26" cy="26" rx="24" ry="24"/>
	<path fill="none" stroke="#97A474" stroke-width="4" stroke-linecap="round" stroke-linejoin="round" stroke-miterlimit="10" d="
		M41.1,21.2l-8.1,2.2l-7.8-6.5V9l7.9-5.9c0,0,3.6,1.1,6.3,3.1c3.7,2.6,5.2,4.8,5.2,4.8L41.1,21.2z"/>
	<path fill="none" stroke="#97A474" stroke-width="4" stroke-linecap="round" stroke-linejoin="round" stroke-miterlimit="10" d="
		M5.9,12.8L9.4,21l6.5,2.3l9.2-6.5V9l-7.8-5.4C17.4,3.6,11.1,6,5.9,12.8z"/>
	<path fill="none" stroke="#97A474" stroke-width="4" stroke-linecap="round" stroke-linejoin="round" stroke-miterlimit="10" d="
		M2,27.1L9.4,21l6.5,2.3l3.4,10.7l-3.8,4.7L6.5,40C6.5,40,1.6,32.8,2,27.1z"/>
	<path fill="none" stroke="#97A474" stroke-width="4" stroke-linecap="round" stroke-linejoin="round" stroke-miterlimit="10" d="
		M33.1,23.4L30.7,34l3.5,4.8L45.5,40c0,0,4.6-6.4,4.4-11.9l-8.8-6.9L33.1,23.4"/>
	<path fill="none" stroke="#97A474" stroke-width="4" stroke-linecap="round" stroke-linejoin="round" stroke-miterlimit="10" d="
		M15.6,38.8L19.4,49c0,0,6.8,1.8,11.3,0.5l3.5-10.7l-3.5-4.3l-11.3-0.3L15.6,38.8z"/>
</g>
</svg>
