<?xml version="1.0" encoding="utf-8"?>
<!-- Generator: Adobe Illustrator 18.0.0, SVG Export Plug-In . SVG Version: 6.00 Build 0)  -->
<!DOCTYPE svg PUBLIC "-//W3C//DTD SVG 1.1//EN" "http://www.w3.org/Graphics/SVG/1.1/DTD/svg11.dtd">
<svg version="1.1" xmlns="http://www.w3.org/2000/svg" xmlns:xlink="http://www.w3.org/1999/xlink" x="0px" y="0px"
	 viewBox="0 0 31.7 30.1" enable-background="new 0 0 31.7 30.1" xml:space="preserve">
<g id="icons">
	<path fill="#7DBE37" d="M16.8,8.8L12.7,1c-0.3-0.6-1-1-1.7-1c-0.3,0-0.6,0.1-0.9,0.2C9.2,0.8,8.8,1.9,9.4,2.8l4.2,7.8
		c0.3,0.6,1,1,1.7,1c0.3,0,0.6-0.1,0.9-0.2C17,10.9,17.4,9.7,16.8,8.8z"/>
</g>
<g id="Layer_3">
	<path fill="#7DBE37" d="M28.2,18.9H3.6c-0.1,0-0.6,0.1-0.6,0.7c0,0,0,0.1,0,0.1l2.3,8.5c0.3,1.1,1.3,1.9,2.5,1.9H24
		c1.2,0,2.2-0.8,2.5-1.9l2.3-8.4c0-0.1,0-0.3,0-0.3C28.8,19,28.3,18.9,28.2,18.9z"/>
</g>
<g id="Layer_7">
	<path fill="#7DBE37" d="M31.5,11.2c-0.1-0.6-0.6-1-1.2-1h-10c0,0-0.4,0-0.6,0.5c0,0,0,0.1,0,0.1c-0.6,1.9-2.4,3.3-4.5,3.3
		c-2.1,0-3.9-1.4-4.5-3.4c0,0,0,0,0-0.1c-0.2-0.5-0.7-0.5-0.7-0.5H1.4c-0.6,0-1.1,0.4-1.2,1C0.1,11.9,0,12.6,0,13.4
		c0,0.8,0.1,1.5,0.2,2.1c0.1,0.6,0.6,1,1.2,1h0.7l0,0h27.6l0,0h0.7c0.6,0,1.1-0.4,1.2-1c0.1-0.7,0.2-1.4,0.2-2.1
		C31.7,12.6,31.7,11.9,31.5,11.2z"/>
</g>
</svg>
