<?xml version="1.0" encoding="utf-8"?>
<!-- Generator: Adobe Illustrator 18.0.0, SVG Export Plug-In . SVG Version: 6.00 Build 0)  -->
<!DOCTYPE svg PUBLIC "-//W3C//DTD SVG 1.1//EN" "http://www.w3.org/Graphics/SVG/1.1/DTD/svg11.dtd">
<svg version="1.1" id="els_x5F_navigation" xmlns="http://www.w3.org/2000/svg" xmlns:xlink="http://www.w3.org/1999/xlink" x="0px"
	 y="0px" viewBox="0 0 35.4 32.4" enable-background="new 0 0 35.4 32.4" xml:space="preserve">
<path fill-rule="evenodd" clip-rule="evenodd" fill="none" stroke="#EE9897" stroke-width="2.4" stroke-linecap="round" stroke-linejoin="round" stroke-miterlimit="10" d="
	M2.4,13.2h1l4-10.9C7.6,1.6,8.3,1.2,9,1.2h17.4c0.7,0,1.3,0.4,1.6,1.1l4,10.9h1c0.7,0,1.2,0.6,1.2,1.2v8.1c0,0.7-0.5,1.2-1.2,1.2
	H2.4c-0.7,0-1.2-0.5-1.2-1.2v-8.1C1.2,13.7,1.7,13.2,2.4,13.2z"/>
<path fill-rule="evenodd" clip-rule="evenodd" fill="none" stroke="#EE9897" stroke-width="2.4" stroke-linecap="round" stroke-linejoin="round" stroke-miterlimit="10" d="
	M8.7,23.7v5.8c0,0.9-0.8,1.7-1.7,1.7H4.4c-0.9,0-1.7-0.8-1.7-1.7v-5.8"/>
<path fill-rule="evenodd" clip-rule="evenodd" fill="none" stroke="#EE9897" stroke-width="2.4" stroke-linecap="round" stroke-linejoin="round" stroke-miterlimit="10" d="
	M32.7,23.7v5.8c0,0.9-0.8,1.7-1.7,1.7h-2.6c-0.9,0-1.7-0.8-1.7-1.7v-5.8"/>
<circle fill-rule="evenodd" clip-rule="evenodd" fill="none" stroke="#EE9897" stroke-width="2.4" stroke-linecap="round" stroke-linejoin="round" stroke-miterlimit="10" cx="7.9" cy="18.4" r="0.7"/>
<line fill="none" stroke="#EE9897" stroke-width="2.4" stroke-linecap="round" stroke-linejoin="round" stroke-miterlimit="10" x1="3.4" y1="13.2" x2="31.9" y2="13.2"/>
<path fill-rule="evenodd" clip-rule="evenodd" fill="none" stroke="#EE9897" stroke-width="2.4" stroke-linecap="round" stroke-linejoin="round" stroke-miterlimit="10" d="
	M27.4,19.2c0.4,0,0.7-0.3,0.7-0.7c0-0.4-0.3-0.7-0.7-0.7c-0.4,0-0.7,0.3-0.7,0.7C26.7,18.8,27,19.2,27.4,19.2z"/>
</svg>
