<?xml version="1.0" encoding="utf-8"?>
<!-- Generator: Adobe Illustrator 18.0.0, SVG Export Plug-In . SVG Version: 6.00 Build 0)  -->
<!DOCTYPE svg PUBLIC "-//W3C//DTD SVG 1.1//EN" "http://www.w3.org/Graphics/SVG/1.1/DTD/svg11.dtd">
<svg version="1.1" id="Layer_3" xmlns="http://www.w3.org/2000/svg" xmlns:xlink="http://www.w3.org/1999/xlink" x="0px" y="0px"
	 viewBox="0 0 57.7 43.5" enable-background="new 0 0 57.7 43.5" xml:space="preserve">
<g>
	<path fill="#5C524C" d="M53.7,8.7L21.4,0.2C21,0.1,20.5,0,20,0c-2.4,0-4.6,1.6-5.2,4l-2,7.6H5.4c-3,0-5.4,2.4-5.4,5.4v21.1
		c0,3,2.4,5.4,5.4,5.4h33.4c2.6,0,4.8-1.9,5.3-4.4l1.5,0.4c0.5,0.1,0.9,0.2,1.4,0.2c2.4,0,4.6-1.6,5.2-4l5.4-20.4
		C58.2,12.4,56.5,9.5,53.7,8.7z M20,4.1c0.1,0,0.2,0,0.3,0l32.2,8.5c0.7,0.2,1.1,0.9,0.9,1.6l-1.1,4.2L44,16.2
		c-0.4-2.6-2.6-4.6-5.3-4.6H26.8l-9.2-2.4l1.1-4.2C18.9,4.5,19.4,4.1,20,4.1z M40,38.2c0,0.7-0.6,1.3-1.3,1.3H5.4
		c-0.7,0-1.3-0.6-1.3-1.3V17c0-0.7,0.6-1.3,1.3-1.3h33.4c0.7,0,1.3,0.6,1.3,1.3V38.2z M48.1,34.7c-0.2,0.7-0.9,1.1-1.6,0.9l-2.4-0.6
		V21.4l7,1.9L48.1,34.7z"/>
	<rect x="5.9" y="25.4" fill="#5C524C" width="7.2" height="4.4"/>
	<rect x="5.9" y="33.3" fill="#5C524C" width="12.2" height="1.8"/>
	<rect x="19.2" y="33.3" fill="#5C524C" width="7.1" height="1.8"/>
	<rect x="28" y="33.3" fill="#5C524C" width="9.6" height="1.8"/>
	<path fill="#5C524C" d="M30.1,31.1c3.7,0,6.7-3,6.7-6.8v0l0,0l0,0c0-3.7-3-6.8-6.7-6.8c-3.7,0-6.7,3-6.7,6.8l0,0l0,0v0
		C23.4,28,26.4,31.1,30.1,31.1z M25.1,22h2c-0.1,0.5-0.1,1.1-0.2,1.7h-2.3C24.8,23.1,24.9,22.5,25.1,22z M30.1,18.9
		c0.4,0,1,0.7,1.4,1.9h-2.8C29.1,19.6,29.7,18.9,30.1,18.9z M31.9,22c0.1,0.5,0.1,1.1,0.2,1.7h-3.8c0-0.6,0.1-1.2,0.2-1.7H31.9z
		 M35.1,26.6h-2c0.1-0.5,0.1-1.1,0.2-1.7h2.3C35.5,25.5,35.4,26,35.1,26.6z M30.1,29.7c-0.4,0-1-0.7-1.4-1.9h2.8
		C31.1,29,30.6,29.7,30.1,29.7z M28.4,26.6c-0.1-0.5-0.1-1.1-0.2-1.7H32c0,0.6-0.1,1.2-0.2,1.7H28.4z M35.6,23.7h-2.3
		c0-0.6-0.1-1.1-0.2-1.7h2C35.4,22.5,35.5,23.1,35.6,23.7z M27,24.9c0,0.6,0.1,1.1,0.2,1.7h-2c-0.2-0.5-0.4-1.1-0.4-1.7H27z
		 M25.9,27.8h1.6c0.2,0.6,0.4,1.2,0.7,1.7C27.2,29.1,26.5,28.5,25.9,27.8z M32.1,29.5c0.3-0.5,0.5-1,0.7-1.7h1.6
		C33.8,28.5,33,29.1,32.1,29.5z M34.4,20.8h-1.6c-0.2-0.6-0.4-1.2-0.7-1.7C33,19.5,33.8,20.1,34.4,20.8z M28.1,19.1
		c-0.3,0.5-0.5,1-0.7,1.7h-1.6C26.5,20.1,27.2,19.5,28.1,19.1z"/>
</g>
</svg>
