<?xml version="1.0" encoding="utf-8"?>
<!DOCTYPE svg PUBLIC "-//W3C//DTD SVG 1.1//EN" "http://www.w3.org/Graphics/SVG/1.1/DTD/svg11.dtd">
<svg version="1.1" baseProfile="full"
 xmlns="http://www.w3.org/2000/svg"
 xmlns:xlink="http://www.w3.org/1999/xlink"
 xmlns:ev="http://www.w3.org/2001/xml-events" 
  height="17px" 
  width="17px" 
>
<path fill="rgb( 192, 188, 183 )"
 d="M15.734,4.91799999999967 C15.734,4.91799999999967 11.703,8.94899999999961 11.703,8.94899999999961 C11.703,8.94899999999961 15.612,12.8590000000004 15.612,12.8590000000004 C16.478,13.7250000000004 16.478,15.1279999999997 15.612,15.9930000000004 C14.747,16.8590000000004 13.343,16.8590000000004 12.478,15.9930000000004 C12.478,15.9930000000004 8.56799999999998,12.0839999999998 8.56799999999998,12.0839999999998 C8.56799999999998,12.0839999999998 4.64999999999998,16.0010000000002 4.64999999999998,16.0010000000002 C3.78399999999999,16.8680000000004 2.38099999999997,16.8680000000004 1.51499999999999,16.0010000000002 C0.64999999999998,15.1369999999997 0.64999999999998,13.7330000000002 1.51499999999999,12.8680000000004 C1.51499999999999,12.8680000000004 5.43400000000003,8.94899999999961 5.43400000000003,8.94899999999961 C5.43400000000003,8.94899999999961 1.39299999999997,4.90899999999965 1.39299999999997,4.90899999999965 C0.52699999999999,4.04299999999967 0.52699999999999,2.64000000000033 1.39299999999997,1.77400000000034 C2.25900000000001,0.90899999999965 3.66199999999998,0.90899999999965 4.52800000000002,1.77400000000034 C4.52800000000002,1.77400000000034 8.56799999999998,5.8149999999996 8.56799999999998,5.8149999999996 C8.56799999999998,5.8149999999996 12.6,1.78300000000036 12.6,1.78300000000036 C13.465,0.91799999999967 14.869,0.91799999999967 15.734,1.78300000000036 C16.6,2.64900000000034 16.6,4.05199999999968 15.734,4.91799999999967 Z "/>
</svg>
