<?xml version="1.0" encoding="utf-8"?>
<!-- Generator: Adobe Illustrator 18.0.0, SVG Export Plug-In . SVG Version: 6.00 Build 0)  -->
<!DOCTYPE svg PUBLIC "-//W3C//DTD SVG 1.1//EN" "http://www.w3.org/Graphics/SVG/1.1/DTD/svg11.dtd">
<svg version="1.1" id="XMAS_ICONS_SET_by_RedKoala" xmlns="http://www.w3.org/2000/svg" xmlns:xlink="http://www.w3.org/1999/xlink"
	 x="0px" y="0px" viewBox="0 0 266.5 340.2" enable-background="new 0 0 266.5 340.2" xml:space="preserve">
<g id="reindeer">
	<path id="head" fill="#0F1010" d="M265.8,130.7c-0.4-0.3-9.7-7.7-21.7-10.7h0l-0.3,1l0.3-1c-5.8-1.4-11.2-1.6-16.2-0.5
		c-18.4,4.2-28.7,25.7-29.2,26.6c0,0,0,0,0,0c-3.4-3.7-7-7.2-10.7-10.3c0.3-0.1,0.6-0.2,0.8-0.3c21.7-9.2,38.1-24.4,48.7-45
		c0.5-0.7,1-1.5,1.3-2.3c0.1-0.2,0.2-0.5,0.2-0.7c3.4-7.2,6.1-15,8.2-23.4c7.1-29.7,2.8-56,2.6-57.1c-0.8-4.4-5-7.4-9.4-6.7
		c-4.4,0.8-7.4,5-6.7,9.4c0,0.2,2.5,15,0.4,34.2c-12.3-15.3-33.8-18-34.8-18.1c-4.5-0.5-8.5,2.7-9,7.2c-0.5,4.5,2.7,8.5,7.2,9
		c0.2,0,18,2.4,25.4,14.1c4,6.4,4.3,15,1,25.5c-5.4,11.1-12.7,20.3-21.9,27.6c0-1.7-0.1-3.5-0.5-5.2c-2.9-16.2-18.5-25-20.2-26
		c-4-2.1-8.9-0.7-11,3.3c-2.1,4-0.7,8.9,3.3,11c0.1,0.1,10.4,6,12,14.6c0.8,4.4-0.9,9.4-5.1,14.6c-2.8,1.1-5.6,2.1-8.6,2.9
		c-12.3-7-25.4-10.8-38.4-10.8c-13.1,0-26.2,3.9-38.4,10.8c-3-0.9-5.8-1.9-8.6-3c-4.2-5.2-5.9-10.1-5.1-14.6c1.3-7.3,9.1-13,12-14.6
		c3.9-2.2,5.4-7.1,3.3-11c-2.1-4-7.1-5.4-11-3.3c-1.8,1-17.3,9.8-20.2,26c-0.3,1.7-0.5,3.5-0.5,5.2c-9.2-7.3-16.5-16.5-21.9-27.6
		C39.3,71,39.6,62.4,43.6,56C51,44.1,68.8,41.8,69.1,41.8c4.5-0.5,7.6-4.6,7.1-9c-0.5-4.5-4.6-7.7-9-7.2c-1,0.1-22.5,2.8-34.8,18.1
		c-2-19.1,0.4-34,0.4-34.2c0.7-4.4-2.2-8.6-6.7-9.4c-4.4-0.7-8.6,2.2-9.4,6.7c-0.2,1.1-4.5,27.5,2.6,57.1c2,8.4,4.7,16.2,8.2,23.4
		c0.1,0.2,0.2,0.5,0.2,0.7c0.3,0.9,0.7,1.7,1.3,2.3c10.6,20.6,27,35.8,48.7,45c0.3,0.1,0.6,0.2,0.8,0.4c-3.7,3.2-7.3,6.6-10.7,10.3
		c0,0,0,0,0,0c-0.4-0.9-10.8-22.4-29.2-26.6c-5-1.1-10.4-1-16.2,0.5l0.3,1l-0.3-1h0c-11.9,3-21.3,10.4-21.7,10.7
		c-0.8,0.6-1,1.7-0.6,2.5c0.4,0.9,10.8,22.4,29.2,26.6c5,1.1,10.4,1,16.2-0.5c7.3-1.8,13.7-5.4,17.6-7.9
		c-19.7,24-32.9,57.4-32.9,94.3c0,73.1,46.1,94.3,103,94.3c56.9,0,103-21.2,103-94.3c0-36.9-13.2-70.3-32.9-94.3
		c3.9,2.5,10.2,6,17.6,7.9c5.8,1.5,11.2,1.6,16.2,0.5c18.4-4.2,28.7-25.7,29.2-26.6C266.8,132.3,266.5,131.3,265.8,130.7z
		 M42.3,146.3c-2.2,0.5-4.2,0.8-6.1,0.8c-1.3,0-2.6-0.1-3.8-0.4c-6-1.4-11.2-6.6-14.4-10.6c2.8-1.2,6.2-2.5,7.9-3.1
		c2.1-0.5,4.1-0.8,5.9-0.8c1.3,0,2.6,0.1,3.8,0.4c6.1,1.4,11.3,6.7,14.5,10.7C47.5,144.6,44.8,145.6,42.3,146.3z M78.4,191.3
		c0-12.5,10.1-22.6,22.6-22.6c12.5,0,22.6,10.1,22.6,22.6c0,12.5-10.1,22.6-22.6,22.6C88.6,214,78.4,203.8,78.4,191.3z M133.3,311.4
		c-24.5,0-44.3-19.8-44.3-44.3c0-24.5,19.8-44.3,44.3-44.3c24.5,0,44.3,19.8,44.3,44.3C177.5,291.5,157.7,311.4,133.3,311.4z
		 M167.6,214c-12.5,0-22.6-10.1-22.6-22.6c0-12.5,10.1-22.6,22.6-22.6c12.5,0,22.6,10.1,22.6,22.6C190.2,203.8,180.1,214,167.6,214z
		 M234.1,146.7c-1.2,0.3-2.5,0.4-3.8,0.4c-1.9,0-3.9-0.3-6.1-0.8c-2.5-0.6-5.2-1.6-7.8-2.9c3.2-4,8.4-9.3,14.5-10.7
		c1.2-0.3,2.5-0.4,3.8-0.4c1.8,0,3.8,0.3,5.9,0.8c1.7,0.6,5.1,1.9,7.9,3.1C245.4,140,240.2,145.3,234.1,146.7z"/>
	<g id="eyes">
		<path fill="#0F1010" d="M172.8,192.3c0,5.4-4.3,9.7-9.7,9.7c-5.4,0-9.7-4.3-9.7-9.7c0-5.4,4.3-9.7,9.7-9.7
			C168.5,182.6,172.8,186.9,172.8,192.3z"/>
		<path fill="#0F1010" d="M95.8,192.3c0,5.4,4.3,9.7,9.7,9.7c5.4,0,9.7-4.3,9.7-9.7c0-5.4-4.3-9.7-9.7-9.7
			C100.2,182.6,95.8,186.9,95.8,192.3z"/>
	</g>
	<path id="nose" fill="#0F1010" d="M133.3,237.2c-12,0-21.6,9.7-21.6,21.6c0,12,9.7,21.6,21.6,21.6c12,0,21.6-9.7,21.6-21.6
		C154.9,246.9,145.2,237.2,133.3,237.2z M133.3,252.4c-3.6,0-6.5,2.9-6.5,6.5c0,2.4-2,4.4-4.4,4.4c-2.4,0-4.4-2-4.4-4.4
		c0-8.4,6.8-15.2,15.2-15.2c2.4,0,4.4,2,4.4,4.4C137.6,250.4,135.7,252.4,133.3,252.4z"/>
</g>
</svg>
