<svg xmlns="http://www.w3.org/2000/svg" xmlns:xlink="http://www.w3.org/1999/xlink" preserveAspectRatio="xMidYMid" width="159.031" height="50" viewBox="0 0 159.031 50">
  <defs>
    <style>
      .cls-1 {
        fill: #fff;
        fill-rule: evenodd;
      }
    </style>
  </defs>
  <path d="M27.656,-0.001 C49.268,-0.001 152.031,-0.001 152.031,-0.001 C155.897,-0.001 159.031,3.133 159.031,6.999 L159.031,42.999 C159.031,46.865 155.897,49.999 152.031,49.999 C152.031,49.999 49.077,49.999 27.614,49.999 C24.264,49.499 24.657,49.140 22.370,47.577 C17.634,43.252 7.699,34.120 1.914,28.368 C1.569,28.025 -2.122,23.688 1.743,19.634 C6.575,14.567 15.561,8.246 22.627,2.110 C24.211,0.983 24.433,0.374 27.656,-0.001 Z" class="cls-1"/>
</svg>
