<?xml version="1.0" encoding="utf-8"?>
<!DOCTYPE svg PUBLIC "-//W3C//DTD SVG 1.1//EN" "http://www.w3.org/Graphics/SVG/1.1/DTD/svg11.dtd">
<svg version="1.1" baseProfile="full"
 xmlns="http://www.w3.org/2000/svg"
 xmlns:xlink="http://www.w3.org/1999/xlink"
 xmlns:ev="http://www.w3.org/2001/xml-events" 
  height="51px" 
  width="172px" 
>
<path fill="rgb( 66, 176, 239 )"
 d="M146.956,0.999 C128.949,0.999 5.83199999999999,0.999 5.83199999999999,0.999 C2.611,0.999 0,3.64099999999999 0,6.90100000000001 C0,6.90100000000001 0,45.097 0,45.097 C0,48.356 2.611,50.999 5.83199999999999,50.999 C5.83199999999999,50.999 129.108,50.999 146.991,50.999 C149.783,50.577 149.455,50.274 151.361,48.956 C155.307,45.31 163.585,35.61 168.405,30.761 C168.693,30.472 171.768,26.815 168.547,23.397 C164.521,19.125 157.034,7.952 151.147,2.77799999999999 C149.827,1.828 149.642,1.315 146.956,0.999 Z "/>
</svg>
