<?xml version="1.0" encoding="utf-8"?>
<!DOCTYPE svg PUBLIC "-//W3C//DTD SVG 1.1//EN" "http://www.w3.org/Graphics/SVG/1.1/DTD/svg11.dtd">
<svg version="1.1" baseProfile="full"
 xmlns="http://www.w3.org/2000/svg"
 xmlns:xlink="http://www.w3.org/1999/xlink"
 xmlns:ev="http://www.w3.org/2001/xml-events" 
  height="51px" 
  width="190px" 
>
<path fill="rgb( 255, 103, 12 )"
 d="M164.957,0.999 C146.949,0.999 5.83199999999999,0.999 5.83199999999999,0.999 C2.611,0.999 0,3.64099999999999 0,6.90100000000001 C0,6.90100000000001 0,45.097 0,45.097 C0,48.356 2.611,50.999 5.83199999999999,50.999 C5.83199999999999,50.999 147.108,50.999 164.991,50.999 C167.783,50.577 167.455,50.274 169.361,48.956 C173.307,45.31 181.585,35.61 186.405,30.761 C186.693,30.472 189.768,26.815 186.547,23.397 C182.521,19.125 175.034,7.952 169.147,2.77799999999999 C167.827,1.828 167.642,1.315 164.957,0.999 Z "/>
</svg>
