<?xml version="1.0" encoding="utf-8"?>
<!-- Generator: Adobe Illustrator 18.0.0, SVG Export Plug-In . SVG Version: 6.00 Build 0)  -->
<!DOCTYPE svg PUBLIC "-//W3C//DTD SVG 1.1//EN" "http://www.w3.org/Graphics/SVG/1.1/DTD/svg11.dtd">
<svg version="1.1" id="icons" xmlns="http://www.w3.org/2000/svg" xmlns:xlink="http://www.w3.org/1999/xlink" x="0px" y="0px"
	 viewBox="0 0 51 51" enable-background="new 0 0 51 51" xml:space="preserve">
<g>
	
		<rect x="11.5" y="22.6" transform="matrix(0.7071 -0.7071 0.7071 0.7071 -10.5633 25.4998)" fill="none" stroke="#7A858C" stroke-width="3" stroke-linecap="round" stroke-linejoin="round" stroke-miterlimit="10" width="28" height="5.8"/>
	<path fill="none" stroke="#7A858C" stroke-width="3" stroke-linecap="round" stroke-linejoin="round" stroke-miterlimit="10" d="
		M23,42.8c1.2,1.2,1.2,3.3,0,4.5l-1.3,1.3c-1.2,1.2-3.3,1.2-4.5,0L2.4,33.8c-1.2-1.2-1.2-3.3,0-4.5L3.7,28C5,26.8,7,26.8,8.2,28
		L23,42.8z"/>
	<path fill="none" stroke="#7A858C" stroke-width="3" stroke-linecap="round" stroke-linejoin="round" stroke-miterlimit="10" d="
		M13.2,44.6c1.2,1.2,1.5,3,0.6,4c-0.9,0.9-2.7,0.7-4-0.6L3,41.2c-1.2-1.2-1.5-3-0.6-4c0.9-0.9,2.7-0.7,4,0.6L13.2,44.6z"/>
	
		<line fill="none" stroke="#7A858C" stroke-width="3" stroke-linecap="round" stroke-linejoin="round" stroke-miterlimit="10" x1="6.4" y1="44.6" x2="4.5" y2="46.5"/>
	<path fill="none" stroke="#7A858C" stroke-width="3" stroke-linecap="round" stroke-linejoin="round" stroke-miterlimit="10" d="
		M28,8.2C26.8,7,26.8,5,28,3.7l1.3-1.3c1.2-1.2,3.3-1.2,4.5,0l14.7,14.7c1.2,1.2,1.2,3.3,0,4.5L47.3,23c-1.2,1.2-3.3,1.2-4.5,0
		L28,8.2z"/>
	<path fill="none" stroke="#7A858C" stroke-width="3" stroke-linecap="round" stroke-linejoin="round" stroke-miterlimit="10" d="
		M37.8,6.4c-1.2-1.2-1.5-3-0.6-4c0.9-0.9,2.7-0.7,4,0.6L48,9.8c1.2,1.2,1.5,3,0.6,4c-0.9,0.9-2.7,0.7-4-0.6L37.8,6.4z"/>
	
		<line fill="none" stroke="#7A858C" stroke-width="3" stroke-linecap="round" stroke-linejoin="round" stroke-miterlimit="10" x1="44.6" y1="6.4" x2="46.5" y2="4.5"/>
</g>
</svg>
