<?xml version="1.0" encoding="utf-8"?>
<!-- Generator: Adobe Illustrator 18.0.0, SVG Export Plug-In . SVG Version: 6.00 Build 0)  -->
<!DOCTYPE svg PUBLIC "-//W3C//DTD SVG 1.1//EN" "http://www.w3.org/Graphics/SVG/1.1/DTD/svg11.dtd">
<svg version="1.1" id="els_x5F_holiday" xmlns="http://www.w3.org/2000/svg" xmlns:xlink="http://www.w3.org/1999/xlink" x="0px"
	 y="0px" viewBox="0 0 37.1 57.9" enable-background="new 0 0 37.1 57.9" xml:space="preserve">
<polyline fill="none" stroke="#9E9D81" stroke-width="4" stroke-linecap="round" stroke-linejoin="round" stroke-miterlimit="10" points="
	29,40.9 27.5,55.9 9.5,55.9 8,40.9 "/>
<line fill="none" stroke="#9E9D81" stroke-width="4" stroke-linecap="round" stroke-linejoin="round" stroke-miterlimit="10" x1="18.5" y1="40.9" x2="18.5" y2="36.4"/>
<path fill="none" stroke="#9E9D81" stroke-width="4" stroke-linecap="round" stroke-linejoin="round" stroke-miterlimit="10" d="
	M34.7,13.8c-1.2-3.6-5.1-5.6-8.7-4.4c-0.3,0.1-0.5,0.2-0.7,0.3c0-0.3,0.1-0.5,0.1-0.8c0-3.8-3.1-6.9-6.9-6.9s-6.9,3.1-6.9,6.9
	c0,0.3,0,0.5,0.1,0.8c-0.2-0.1-0.5-0.2-0.7-0.3c-3.6-1.2-7.5,0.8-8.7,4.4s0.8,7.5,4.4,8.7c0.3,0.1,0.5,0.1,0.8,0.2
	C7.3,22.8,7.2,23,7,23.2c-2.2,3.1-1.6,7.4,1.5,9.6c3.1,2.2,7.4,1.6,9.6-1.5c0.2-0.2,0.3-0.4,0.4-0.7c0.1,0.2,0.2,0.5,0.4,0.7
	c2.2,3.1,6.5,3.8,9.6,1.5c3.1-2.2,3.8-6.5,1.5-9.6c-0.2-0.2-0.3-0.4-0.5-0.6c0.3-0.1,0.5-0.1,0.8-0.2C33.9,21.3,35.9,17.4,34.7,13.8
	z M18.5,24.7c-3.1,0-5.7-2.6-5.7-5.7c0-3.1,2.6-5.7,5.7-5.7s5.7,2.6,5.7,5.7C24.2,22.1,21.7,24.7,18.5,24.7z"/>
<line fill="none" stroke="#9E9D81" stroke-width="4" stroke-linecap="round" stroke-linejoin="round" stroke-miterlimit="10" x1="5" y1="40.9" x2="32" y2="40.9"/>
</svg>
