<?xml version="1.0" encoding="utf-8"?>
<!-- Generator: Adobe Illustrator 18.0.0, SVG Export Plug-In . SVG Version: 6.00 Build 0)  -->
<!DOCTYPE svg PUBLIC "-//W3C//DTD SVG 1.1//EN" "http://www.w3.org/Graphics/SVG/1.1/DTD/svg11.dtd">
<svg version="1.1" id="Layer_7" xmlns="http://www.w3.org/2000/svg" xmlns:xlink="http://www.w3.org/1999/xlink" x="0px" y="0px"
	 viewBox="0 0 32.6 28.8" enable-background="new 0 0 32.6 28.8" xml:space="preserve">
<g>
	
		<path fill-rule="evenodd" clip-rule="evenodd" stroke="#F7A2C9" stroke-width="3.2" stroke-linecap="round" stroke-linejoin="round" stroke-miterlimit="10" d="
		M16.3,27.2c0,0-14.7-6.4-14.7-16.5c0-5.9,3.6-9.1,7.3-9.1v1.3c-1.6,0-3,0.7-4.1,1.9c-1.3,1.4-1.9,3.5-1.9,5.9
		c0,8.1,10.9,13.9,13.4,15.1c2.5-1.2,13.4-7,13.4-15.1c0-2.4-0.7-4.4-1.9-5.8C26.7,3.6,25.3,3,23.7,3c-4.3,0-7.4,6.5-7.4,6.5
		s-3.1-6.6-7.4-6.6l0-1.3h0c2.8,0,5.7,1.8,7.4,5.6c1.6-3.7,4.5-5.5,7.4-5.5c3.7,0,7.3,3.1,7.3,8.9C31,20.8,16.3,27.2,16.3,27.2z
		 M8.9,1.6L8.9,1.6L8.9,1.6L8.9,1.6z"/>
</g>
</svg>
