<?xml version="1.0" encoding="utf-8"?>
<!-- Generator: Adobe Illustrator 18.0.0, SVG Export Plug-In . SVG Version: 6.00 Build 0)  -->
<!DOCTYPE svg PUBLIC "-//W3C//DTD SVG 1.1//EN" "http://www.w3.org/Graphics/SVG/1.1/DTD/svg11.dtd">
<svg version="1.1" id="Mini_Web_Icons" xmlns="http://www.w3.org/2000/svg" xmlns:xlink="http://www.w3.org/1999/xlink" x="0px"
	 y="0px" viewBox="0 0 32 30" enable-background="new 0 0 32 30" xml:space="preserve">
<path fill="#FFFFFF" d="M31.4,14.6l-14-14c-0.8-0.8-2-0.8-2.8,0l-14,14C0,15.2-0.2,16,0.2,16.8C0.5,17.5,1.2,18,2,18h2v10
	c0,0.5,0.2,1,0.6,1.4C5,29.8,5.5,30,6,30h5c0.5,0,1-0.2,1.4-0.6C12.8,29,13,28.5,13,28v-6h6v6c0,0.5,0.2,1,0.6,1.4
	C20,29.8,20.5,30,21,30h5c0.5,0,1-0.2,1.4-0.6C27.8,29,28,28.5,28,28V18h2c0.8,0,1.5-0.5,1.8-1.2C32.2,16,32,15.2,31.4,14.6z"/>
</svg>
