<?xml version="1.0" encoding="utf-8"?>
<!-- Generator: Adobe Illustrator 18.0.0, SVG Export Plug-In . SVG Version: 6.00 Build 0)  -->
<!DOCTYPE svg PUBLIC "-//W3C//DTD SVG 1.1//EN" "http://www.w3.org/Graphics/SVG/1.1/DTD/svg11.dtd">
<svg version="1.1" id="Layer_1" xmlns="http://www.w3.org/2000/svg" xmlns:xlink="http://www.w3.org/1999/xlink" x="0px" y="0px"
	 viewBox="0 0 24 32" enable-background="new 0 0 24 32" xml:space="preserve">
<path fill-rule="evenodd" clip-rule="evenodd" fill="#231F20" d="M12,32C10,32,0,17,0,12C0,5.4,5.4,0,12,0c6.6,0,12,5.4,12,12
	C24,16.9,14,32,12,32z M12,2C6.5,2,2,6.5,2,12c0,4.2,8.3,17,10,17c1.6,0,10-12.9,10-17C22,6.5,17.5,2,12,2z M12,17c-2.8,0-5-2.2-5-5
	c0-2.8,2.2-5,5-5c2.8,0,5,2.2,5,5C17,14.8,14.8,17,12,17z M12,9c-1.7,0-3,1.3-3,3c0,1.7,1.3,3,3,3c1.7,0,3-1.3,3-3
	C15,10.3,13.7,9,12,9z"/>
</svg>
