<?xml version="1.0" encoding="utf-8"?>
<!-- Generator: Adobe Illustrator 18.0.0, SVG Export Plug-In . SVG Version: 6.00 Build 0)  -->
<!DOCTYPE svg PUBLIC "-//W3C//DTD SVG 1.1//EN" "http://www.w3.org/Graphics/SVG/1.1/DTD/svg11.dtd">
<svg version="1.1" id="Layer_3" xmlns="http://www.w3.org/2000/svg" xmlns:xlink="http://www.w3.org/1999/xlink" x="0px" y="0px"
	 viewBox="0 0 60.7 59.7" enable-background="new 0 0 60.7 59.7" xml:space="preserve">
<g>
	<path fill="#F77643" d="M41,24.5c0.6,0,1.3-0.2,1.8-0.5c1.7-1,2.3-3.2,1.3-4.9c-0.6-1.1-1.8-1.8-3.1-1.8c-0.6,0-1.3,0.2-1.8,0.5
		c-0.8,0.5-1.4,1.3-1.7,2.2c-0.2,0.9-0.1,1.9,0.4,2.7C38.5,23.8,39.7,24.5,41,24.5z M38.6,20.3c0.2-0.6,0.6-1.1,1.1-1.5
		c0.4-0.2,0.8-0.3,1.2-0.3c0.9,0,1.6,0.5,2.1,1.2c0.7,1.1,0.3,2.6-0.9,3.3c-1.1,0.6-2.6,0.2-3.3-0.9C38.6,21.6,38.5,20.9,38.6,20.3z
		"/>
	<path fill="#F77643" d="M60.5,26.8L45.4,1c-0.3-0.5-0.7-0.8-1.2-0.9c-0.5-0.1-1.1-0.1-1.5,0.2L9.9,19.4H9.1c-0.4,0-4.3-0.1-6.9,2.4
		C0.7,23.1,0,24.9,0,27.1v30.6c0,1.1,0.9,2,2,2h39.9c1.6,0,3.1-0.8,4-2c4.2-0.9,7.1-4.2,7.1-8.4v-0.4v-9.3c0-0.7,0-1.4,0-1.8v-4.3
		l6.7-3.9C60.7,29,61,27.8,60.5,26.8z M6.3,23.8L7,25.1H4.5c0.1-0.2,0.2-0.3,0.4-0.5C5.3,24.3,5.8,24,6.3,23.8z M4,29.1h37.9
		c0.6,0,1,0.5,1,1v4h-2.1c-0.3,0-0.6,0-0.9,0.1v-1.8c0-0.8-0.6-1.4-1.4-1.4H7.7c-0.3,0-0.6,0.3-0.6,0.6v21.6c0,0.3,0.3,0.6,0.6,0.6
		h30.7c0.8,0,1.4-0.6,1.4-1.4v-5.6c0.3,0.1,0.6,0.1,0.9,0.1h2.1v7.8c0,0.6-0.5,1-1,1H4V29.1z M17.2,22.7L39.1,10
		c0.7,0.9,1.8,1.5,2.9,1.5c0.6,0,1.1-0.1,1.7-0.4l7.2,12.4c-1.5,1-2,2.9-1.3,4.5l-2.6,1.5c-0.3-2.4-2.4-4.3-5-4.3h-5
		c-0.2-0.5-0.4-1-0.7-1.5c-2.4-4.1-7.7-5.5-11.8-3.1c-1.8,1.1-3.1,2.7-3.8,4.6h-3.2c0,0,0,0,0,0C17.6,24.3,17.6,23.5,17.2,22.7z
		 M40.8,42.9c-0.5,0-0.8-0.3-0.9-0.7v-3.2c0.1-0.4,0.5-0.7,0.9-0.7h4.1v0l0,0h3.2c0.3,0,0.6,0,0.9-0.1v2.4c-0.2,1.7-0.6,2.4-0.9,2.4
		H40.8z M38.6,34.7c-1.6,0.8-2.7,2.5-2.7,4.5v2.6c0,2,1.1,3.7,2.7,4.5v6c0,0.1-0.1,0.2-0.2,0.2H8.3V32.2h30.1c0.1,0,0.2,0.1,0.2,0.2
		V34.7z M24.7,22.6l1.4-0.8l0.7,1.2c1-0.5,1.7-0.7,2.3-0.7l0.5,1.8c-0.5,0-1.3,0.1-2.3,0.7c-0.1,0.1-0.3,0.2-0.4,0.3h-2.4
		c0.2-0.4,0.5-0.8,0.9-1.1L24.7,22.6z M49,49.3c0,1.6-0.8,2.9-2.1,3.7v-6.1h1.2c0.3,0,0.6,0,0.9-0.1v2.1V49.3z M46.9,32.4v-1.6
		l3.7-2.2c0.1-0.1,0.3-0.2,0.3-0.4c0-0.2,0-0.3-0.1-0.5c0,0-0.1-0.1-0.1-0.1c-0.7-1.1-0.3-2.6,0.9-3.3c0.1-0.1,0.2-0.1,0.3-0.1
		c0.2-0.1,0.3-0.2,0.3-0.4c0.1-0.2,0-0.4,0-0.5L44.4,9.9c-0.1-0.2-0.3-0.2-0.4-0.3c-0.2,0-0.4,0-0.5,0.1c-0.1,0.1-0.2,0.1-0.3,0.2
		c-1.1,0.6-2.6,0.2-3.3-0.9c0,0,0-0.1,0-0.1c-0.1-0.2-0.2-0.3-0.4-0.3c-0.2,0-0.3,0-0.5,0.1L16.1,22c-0.1,0.1-0.3,0.2-0.3,0.4
		c0,0.2,0,0.3,0.1,0.5c0,0,0.1,0.1,0.1,0.1c0.3,0.6,0.4,1.2,0.2,1.8c0,0.1-0.1,0.2-0.1,0.3h-4.5l-0.9-1.6L43,4.7l13,22.4L46.9,32.4z
		"/>
	<circle fill="#F77643" cx="42.1" cy="40.5" r="1.5"/>
</g>
</svg>
