<?xml version="1.0" encoding="utf-8"?>
<!DOCTYPE svg PUBLIC "-//W3C//DTD SVG 1.1//EN" "http://www.w3.org/Graphics/SVG/1.1/DTD/svg11.dtd">
<svg version="1.1" baseProfile="full"
 xmlns="http://www.w3.org/2000/svg"
 xmlns:xlink="http://www.w3.org/1999/xlink"
 xmlns:ev="http://www.w3.org/2001/xml-events" 
  height="59px" 
  width="43px" 
>
<path fill="rgb( 235, 119, 143 )"
 d="M41.943,34.8440000000001 C41.943,34.8440000000001 36.444,53.3829999999998 36.444,53.3829999999998 C36.438,53.4030000000002 36.432,53.4219999999996 36.426,53.4409999999998 C35.538,56.2060000000001 32.989,58.0640000000003 30.085,58.0640000000003 C30.085,58.0640000000003 12.674,58.0640000000003 12.674,58.0640000000003 C9.77,58.0640000000003 7.221,56.2060000000001 6.333,53.4409999999998 C6.327,53.4219999999996 6.321,53.4030000000002 6.316,53.3829999999998 C6.316,53.3829999999998 0.816,34.8440000000001 0.816,34.8440000000001 C0.577,34.0370000000003 0.732,33.1670000000004 1.235,32.4930000000004 C1.738,31.8190000000004 2.529,31.4219999999996 3.37,31.4219999999996 C3.37,31.4219999999996 4.16500000000001,31.4219999999996 4.16500000000001,31.4219999999996 C4.806,27.2730000000001 8.392,24.0959999999995 12.721,24.0959999999995 C12.942,24.0959999999995 13.159,24.1080000000002 13.375,24.1229999999996 C14.409,21.6199999999999 16.582,19.71 19.248,19.0339999999997 C19.248,19.0339999999997 19.248,15.4790000000003 19.248,15.4790000000003 C19.248,15.0360000000001 19.606,14.6790000000001 20.047,14.6790000000001 C20.047,14.6790000000001 22.712,14.6790000000001 22.712,14.6790000000001 C23.152,14.6790000000001 23.511,15.0360000000001 23.511,15.4790000000003 C23.511,15.4790000000003 23.511,19.0339999999997 23.511,19.0339999999997 C26.177,19.71 28.35,21.6199999999999 29.384,24.1229999999996 C29.6,24.1080000000002 29.817,24.0959999999995 30.037,24.0959999999995 C34.367,24.0959999999995 37.953,27.2730000000001 38.594,31.4219999999996 C38.594,31.4219999999996 39.389,31.4219999999996 39.389,31.4219999999996 C40.23,31.4219999999996 41.021,31.8190000000004 41.524,32.4930000000004 C42.027,33.1670000000004 42.182,34.0370000000003 41.943,34.8440000000001 ZM11.794,35.4189999999999 C11.794,35.4189999999999 5.154,35.4189999999999 5.154,35.4189999999999 C5.154,35.4189999999999 10.142,52.232 10.142,52.232 C10.5,53.3299999999999 11.516,54.067 12.674,54.067 C12.674,54.067 13.424,54.067 13.424,54.067 C13.424,54.067 11.794,35.4189999999999 11.794,35.4189999999999 ZM20.074,35.4189999999999 C20.074,35.4189999999999 14.415,35.4189999999999 14.415,35.4189999999999 C14.415,35.4189999999999 16.046,54.067 16.046,54.067 C16.046,54.067 20.074,54.067 20.074,54.067 C20.074,54.067 20.074,35.4189999999999 20.074,35.4189999999999 ZM22.685,35.4189999999999 C22.685,35.4189999999999 22.685,54.067 22.685,54.067 C22.685,54.067 26.712,54.067 26.712,54.067 C26.712,54.067 28.343,35.4189999999999 28.343,35.4189999999999 C28.343,35.4189999999999 22.685,35.4189999999999 22.685,35.4189999999999 ZM30.965,35.4189999999999 C30.965,35.4189999999999 29.334,54.067 29.334,54.067 C29.334,54.067 30.085,54.067 30.085,54.067 C31.242,54.067 32.257,53.3320000000003 32.617,52.2299999999996 C32.617,52.2299999999996 37.605,35.4189999999999 37.605,35.4189999999999 C37.605,35.4189999999999 30.965,35.4189999999999 30.965,35.4189999999999 ZM22.353,11.8969999999999 C22.972,11.5529999999999 23.393,10.8919999999998 23.393,10.1360000000004 C23.393,8.79600000000028 21.628,7.72699999999986 21.403,7.07999999999993 C21.403,7.07999999999993 21.356,7.07999999999993 21.356,7.07999999999993 C21.131,7.72699999999986 19.367,8.79600000000028 19.367,10.1360000000004 C19.367,10.8919999999998 19.787,11.5529999999999 20.406,11.8969999999999 C18.29,11.4470000000001 16.696,9.56400000000031 16.696,7.3159999999998 C16.696,4.20100000000002 20.8,1.71399999999994 21.324,0.20600000000013 C21.324,0.20600000000013 21.435,0.20600000000013 21.435,0.20600000000013 C21.959,1.71399999999994 26.062,4.20100000000002 26.062,7.3159999999998 C26.062,9.56400000000031 24.469,11.4470000000001 22.353,11.8969999999999 Z "/>
</svg>
