<?xml version="1.0" encoding="utf-8"?>
<!-- Generator: Adobe Illustrator 18.0.0, SVG Export Plug-In . SVG Version: 6.00 Build 0)  -->
<!DOCTYPE svg PUBLIC "-//W3C//DTD SVG 1.1//EN" "http://www.w3.org/Graphics/SVG/1.1/DTD/svg11.dtd">
<svg version="1.1" id="els_x5F_finance" xmlns="http://www.w3.org/2000/svg" xmlns:xlink="http://www.w3.org/1999/xlink" x="0px"
	 y="0px" viewBox="0 0 55 55" enable-background="new 0 0 55 55" xml:space="preserve">
<path fill-rule="evenodd" clip-rule="evenodd" fill="none" stroke="#7A858C" stroke-width="4" stroke-linecap="round" stroke-linejoin="round" stroke-miterlimit="3" d="
	M28.5,53c-0.3,0-0.6,0-1,0C13.4,53,2,41.6,2,27.5S13.4,2,27.5,2c0.3,0,0.6,0,1,0C42.1,2.5,53,13.7,53,27.5
	C53,41.2,42.1,52.5,28.5,53z M12.6,36.5h27 M12.6,30.5h19.8c2.6,0,5-1.1,6.8-2.8l0,0l0,0c1.7-1.7,2.8-4.4,2.8-7
	c0-2.6-1.1-5.1-2.8-6.8h0C37.4,12.1,35,11,32.4,11H18.6v31.6"/>
</svg>
