<?xml version="1.0" encoding="utf-8"?>
<!-- Generator: Adobe Illustrator 18.0.0, SVG Export Plug-In . SVG Version: 6.00 Build 0)  -->
<!DOCTYPE svg PUBLIC "-//W3C//DTD SVG 1.1//EN" "http://www.w3.org/Graphics/SVG/1.1/DTD/svg11.dtd">
<svg version="1.1" id="Layer_1" xmlns="http://www.w3.org/2000/svg" xmlns:xlink="http://www.w3.org/1999/xlink" x="0px" y="0px"
	 viewBox="0 0 53.2 56" enable-background="new 0 0 53.2 56" xml:space="preserve">
<g>
	<g>
		<path fill="#FFFFFF" d="M10.4,32.7c-0.9,0-1.8-0.1-2.4-0.2c-0.4,0-0.7-0.1-0.9-0.1c-0.8,0-2.8-0.3-3.7-1.2
			c-0.5-0.5-0.7-1.2-0.6-1.9c0.1-0.5,0.4-0.9,0.9-1.1c0,0,0.1,0,0.1-0.1c-0.2,0-0.4-0.1-0.6-0.1c-0.9-0.2-1.6-0.8-2-1.7
			c-0.3-0.8-0.3-1.7,0-2.2c0.1-0.2,0.5-0.8,1.4-0.8c0.1,0,0.2,0,0.3,0c-0.5-0.4-1-0.9-1.5-1.5c0,0-0.1-0.1-0.1-0.1
			c-0.5-0.9-0.6-1.6-0.3-2.2c0.3-0.6,0.8-0.9,1-1c0.2-0.1,0.6-0.3,1.2-0.3c0.4,0,0.8,0.1,1.2,0.2c0.7,0.1,1.4,0.7,2.3,1.4
			c0.5,0.4,1,0.8,1.4,1.1c1.3,0.8,2.7,1.6,5.8,2.3c0.8,0,3.4-0.2,3.6-0.2c0.8,0,1,0.6,1.2,3.2c0,0.1,0,0.2,0,0.3l-0.9,2.9
			c0,0.1-0.1,0.3-0.3,0.4c-0.1,0.1-2.6,2-4.8,2.5C12,32.6,11.2,32.7,10.4,32.7z"/>
		<path fill="#704194" d="M3.1,19.1c0.3,0,0.6,0.1,1,0.2c0.8,0.1,2.2,1.5,3.5,2.3s2.8,1.7,6.2,2.4c0,0,3.4-0.2,3.7-0.2
			s0.5,2.5,0.5,2.5L17,29.3c0,0-2.5,1.9-4.5,2.4c-0.7,0.2-1.4,0.2-2.1,0.2c-1.4,0-2.8-0.2-3.3-0.2c-0.8,0-2.5-0.3-3.2-1
			c-0.7-0.7-0.5-1.6,0.2-1.8c0.1-0.1,0.2-0.2,0.3-0.2c0.2,0,0.5,0.1,1.4,0.2c0.1,0,0.3,0,0.4,0c1.4,0,3.3-0.7,3.3-0.7
			S8,28.2,7.3,28.1c-3-0.3-2.4-0.5-4-0.8c-1.6-0.3-1.8-2.2-1.5-2.7c0.2-0.3,0.4-0.5,0.7-0.5c0.2,0,0.6,0.1,1,0.3
			c1.1,0.5,4,0.9,4,0.9L4.9,24c0,0-1.5-0.9-3-2.6c-1-1.8,0.3-2.1,0.3-2.1S2.5,19.1,3.1,19.1 M3.1,17.6L3.1,17.6
			c-0.7,0-1.2,0.2-1.5,0.3c-0.5,0.2-1.1,0.6-1.4,1.4c-0.4,0.9-0.2,1.8,0.4,2.9c0.1,0.1,0.1,0.2,0.2,0.3c0.2,0.2,0.4,0.4,0.5,0.6
			c-0.3,0.2-0.5,0.4-0.8,0.8c-0.5,0.7-0.5,1.8-0.1,2.9c0.4,0.9,1,1.5,1.8,1.9C2.2,28.7,2.1,29,2,29.2c-0.2,0.9,0.1,1.9,0.8,2.6
			C4,32.9,6.3,33.2,7,33.2c0.1,0,0.5,0,0.8,0.1c0.7,0.1,1.6,0.2,2.5,0.2c0.9,0,1.8-0.1,2.5-0.3c2.2-0.6,4.8-2.5,5-2.7
			c0.2-0.2,0.4-0.4,0.5-0.7l0.9-2.9c0.1-0.2,0.1-0.4,0.1-0.6c-0.2-2.1-0.4-3.9-2-3.9c-0.2,0-2.4,0.1-3.5,0.2c-3-0.7-4.3-1.4-5.5-2.2
			c-0.4-0.3-0.9-0.6-1.4-1c-0.9-0.7-1.7-1.3-2.5-1.5C4,17.7,3.5,17.6,3.1,17.6L3.1,17.6L3.1,17.6z"/>
	</g>
	<g>
		<path fill="#FFFFFF" d="M31.8,32.3c-0.9,0-1.6-0.1-2.3-0.2c-2.1-0.5-4.7-2.5-4.8-2.5c-0.1-0.1-0.2-0.2-0.3-0.4l-0.9-2.9
			c0-0.1,0-0.2,0-0.3c0.3-2.6,0.5-3.2,1.2-3.2c0.2,0,2.8,0.1,3.6,0.2c3.1-0.7,4.6-1.5,5.8-2.3c0.5-0.3,1-0.7,1.4-1.1
			c0.8-0.7,1.6-1.2,2.3-1.4c0.4-0.1,0.8-0.2,1.2-0.2c0.6,0,1,0.2,1.2,0.3c0.2,0.1,0.8,0.4,1,1c0.3,0.6,0.1,1.4-0.3,2.2
			c0,0-0.1,0.1-0.1,0.1c-0.5,0.6-1,1.1-1.5,1.5c0.1,0,0.2,0,0.3,0c0.8,0,1.2,0.6,1.4,0.8c0.3,0.5,0.3,1.4,0,2.2
			c-0.4,0.9-1.1,1.5-2,1.7c-0.2,0.1-0.4,0.1-0.6,0.1c0,0,0.1,0,0.1,0.1c0.5,0.2,0.8,0.6,0.9,1.1c0.2,0.7-0.1,1.4-0.6,1.9
			c-0.9,0.9-2.9,1.2-3.7,1.2c-0.2,0-0.5,0-0.9,0.1C33.6,32.2,32.7,32.3,31.8,32.3z"/>
		<path fill="#704194" d="M39.1,18.7c0.5,0,0.9,0.2,0.9,0.2s1.3,0.4,0.3,2.1c-1.5,1.7-3,2.6-3,2.6L34.6,25c0,0,2.9-0.4,4-0.9
			c0.5-0.2,0.8-0.3,1-0.3c0.3,0,0.5,0.2,0.7,0.5c0.3,0.5,0.1,2.4-1.5,2.7c-1.6,0.3-1,0.5-4,0.8c-0.7,0.1-2.2,0.2-2.2,0.2
			s1.9,0.7,3.3,0.7c0.1,0,0.3,0,0.4,0c0.9-0.1,1.2-0.2,1.4-0.2c0.1,0,0.2,0,0.3,0.2c0.7,0.2,0.8,1.1,0.2,1.8c-0.7,0.7-2.3,1-3.2,1
			c-0.6,0-1.9,0.2-3.3,0.2c-0.7,0-1.4-0.1-2.1-0.2c-2-0.5-4.5-2.4-4.5-2.4L24.3,26c0,0,0.3-2.5,0.5-2.5s3.7,0.2,3.7,0.2
			c3.3-0.8,4.8-1.6,6.2-2.4c1.3-0.8,2.7-2.2,3.5-2.3C38.5,18.7,38.8,18.7,39.1,18.7 M39.1,17.2c-0.5,0-0.9,0.1-1.4,0.2
			c-0.9,0.2-1.6,0.8-2.5,1.5c-0.5,0.4-0.9,0.7-1.4,1c-1.2,0.8-2.6,1.5-5.5,2.2C27.2,22.1,25,22,24.8,22c-1.6,0-1.8,1.8-2,3.9
			c0,0.2,0,0.4,0.1,0.6l0.9,2.9c0.1,0.3,0.3,0.6,0.5,0.7c0.3,0.2,2.8,2.1,5,2.7c0.7,0.2,1.5,0.3,2.5,0.3c0.9,0,1.9-0.1,2.5-0.2
			c0.3,0,0.7-0.1,0.8-0.1c0.7,0,3.1-0.3,4.2-1.4c0.7-0.7,1-1.7,0.8-2.6c-0.1-0.2-0.1-0.4-0.3-0.6c0.8-0.4,1.5-1,1.8-1.9
			c0.4-1,0.4-2.1-0.1-2.9c-0.2-0.3-0.5-0.6-0.8-0.8c0.2-0.2,0.4-0.4,0.5-0.6c0.1-0.1,0.1-0.2,0.2-0.3c0.6-1.1,0.7-2,0.4-2.9
			c-0.3-0.7-0.9-1.2-1.4-1.4C40.2,17.4,39.7,17.2,39.1,17.2L39.1,17.2z"/>
	</g>
	
		<path fill="#FFFFFF" stroke="#704194" stroke-width="1.5" stroke-linecap="round" stroke-linejoin="round" stroke-miterlimit="10" d="
		M35.8,37.4L35.8,37.4c1.3-1.8,0.8-4.3-1-5.6L29.3,28c-1.8-1.3-4.3-0.8-5.6,1l0,0c-1.3,1.8-0.8,4.3,1,5.6l5.5,3.8
		C32,39.7,34.5,39.2,35.8,37.4z"/>
	
		<path fill="#FFFFFF" stroke="#704194" stroke-width="1.5" stroke-linecap="round" stroke-linejoin="round" stroke-miterlimit="10" d="
		M7,37.9L7,37.9c-1.3-1.8-0.8-4.3,1-5.6l5.5-3.8c1.8-1.3,4.3-0.8,5.6,1l0,0c1.3,1.8,0.8,4.3-1,5.6l-5.5,3.8
		C10.8,40.1,8.3,39.7,7,37.9z"/>
	
		<ellipse fill="#FFFFFF" stroke="#704194" stroke-width="1.5" stroke-linecap="round" stroke-linejoin="round" stroke-miterlimit="10" cx="21.6" cy="36.2" rx="8" ry="10.8"/>
	<path fill="#704395" d="M36.6,12.6c0.3-0.5,0.5-1.2,0.5-1.8c0-2.1-1.8-3.8-4-3.8c0-2.1-1.8-3.8-4-3.8c-0.2,0-0.4,0-0.5,0.1
		C28.2,1.4,26.7,0,24.9,0c-1.3,0-2.4,0.7-3.1,1.7C21.1,0.7,20,0,18.7,0c-1.6,0-2.9,1.1-3.5,2.6c-0.3-0.1-0.6-0.1-0.9-0.1
		c-2.2,0-4,1.7-4,3.8c-2.2,0-4,1.7-4,3.8c0,0.9,0.3,1.7,0.8,2.3c-1.5,0.5-2.6,1.9-2.6,3.6c0,2.1,1.8,3.8,4,3.8s4-1.7,4-3.8
		c0-0.9-0.3-1.7-0.8-2.3c1.5-0.5,2.6-1.9,2.6-3.6c1.7,0,3.2-1,3.8-2.5c0.2,0,0.4,0.1,0.6,0.1c1.3,0,2.4-0.7,3.1-1.7
		c0.7,1,1.8,1.7,3.1,1.7c0.1,0,0.1,0,0.2,0c0.3,1.8,2,3.2,4,3.2c0,1.4,0.8,2.6,2.1,3.3c-0.3,0.5-0.5,1.2-0.5,1.8
		c0,2.1,1.8,3.8,4,3.8c2.2,0,4-1.7,4-3.8C38.6,14.5,37.8,13.3,36.6,12.6z"/>
	
		<path fill="#FFFFFF" stroke="#704194" stroke-width="1.5" stroke-linecap="round" stroke-linejoin="round" stroke-miterlimit="10" d="
		M32.9,18c-0.3,0-0.7,0.1-1,0.1c-0.3-5.3-4.9-9.5-10.6-9.5c-5.7,0-10.3,4.2-10.6,9.6c-0.3-0.1-0.7-0.2-1.1-0.2
		c-1.6,0-2.9,1.1-2.9,2.4s1.3,2.4,2.9,2.4c0.7,0,1.3-0.2,1.8-0.5c1.5,3.7,5.4,6.4,9.9,6.4c4.5,0,8.3-2.6,9.9-6.3
		c0.5,0.3,1.1,0.4,1.7,0.4c1.6,0,2.9-1.1,2.9-2.4S34.6,18,32.9,18z"/>
	<ellipse fill="#704395" cx="16.4" cy="18.1" rx="1.5" ry="1.7"/>
	<ellipse fill="#704395" cx="26.7" cy="18.1" rx="1.5" ry="1.7"/>
	<ellipse fill="#704395" cx="21.3" cy="8.6" rx="8.3" ry="3.8"/>
	<path fill="#704395" d="M25.5,21.4c0,0-0.7,0-1.1,0.7c-0.4,1-1.6,1.8-3.1,1.8s-2.7-0.8-3.1-1.8c-0.3-0.7-1.1-0.7-1.1-0.7
		s-1-0.1-1,0.8c0.4,2.1,2.6,3.7,5.2,3.7s4.7-1.6,5.2-3.7C26.5,21.2,25.5,21.4,25.5,21.4z"/>
	
		<path fill="#FFFFFF" stroke="#704194" stroke-width="1.5" stroke-linecap="round" stroke-linejoin="round" stroke-miterlimit="10" d="
		M16.8,55.2L16.8,55.2c-2.2,0-4-1.8-4-4v-4.7c0-2.2,1.8-4,4-4h0c2.2,0,4,1.8,4,4v4.7C20.8,53.4,19,55.2,16.8,55.2z"/>
	
		<path fill="#FFFFFF" stroke="#704194" stroke-width="1.5" stroke-linecap="round" stroke-linejoin="round" stroke-miterlimit="10" d="
		M25.8,55.2L25.8,55.2c-2.2,0-4-1.8-4-4v-4.7c0-2.2,1.8-4,4-4h0c2.2,0,4,1.8,4,4v4.7C29.8,53.4,28,55.2,25.8,55.2z"/>
	<path fill="#704395" d="M29.7,37.7c0,0-2.7,1.8-8.3,1.8c-0.1,0-0.1,0-0.1,0c0,0-0.1,0-0.1,0c-5.6,0-8.3-1.8-8.3-1.8
		c-1.8,0.7-1.8,4.2-1.3,8.3c2.3,2.8,9.6,1.1,9.6,1.1s0.1-0.1,0.1-0.2c0.1,0.1,0.1,0.2,0.1,0.2s7.3,1.8,9.6-1.1
		C31.5,42,31.5,38.4,29.7,37.7z"/>
	<path fill="#FFFFFF" stroke="#704194" stroke-width="2" stroke-miterlimit="10" d="M49.9,35.8c-4.3-3.1-8.2,2.6-8.2,2.6
		s-3.8-5.7-8.2-2.6c-4.3,3.1-1.4,9.9,0.5,11.7c1.1,1.1,7.7,6.6,7.7,6.6s6.2-5.2,7.7-6.6C51.4,46,54.2,38.9,49.9,35.8z"/>
</g>
</svg>
