<?xml version="1.0" encoding="utf-8"?>
<!DOCTYPE svg PUBLIC "-//W3C//DTD SVG 1.1//EN" "http://www.w3.org/Graphics/SVG/1.1/DTD/svg11.dtd">
<svg version="1.1" baseProfile="full"
 xmlns="http://www.w3.org/2000/svg"
 xmlns:xlink="http://www.w3.org/1999/xlink"
 xmlns:ev="http://www.w3.org/2001/xml-events" 
  height="48px" 
  width="131px" 
>
<path fill="rgb( 114, 119, 207 )"
 d="M98.25,2.5659999999998 C98.25,2.5659999999998 56.221,1.71500000000015 48.123,1.3130000000001 C40.025,0.91200000000026 8.334,2.5659999999998 8.334,2.5659999999998 C8.334,2.5659999999998 2.068,3.1899999999996 2.068,12.9070000000002 C2.068,22.6239999999998 2.068,31.0799999999999 2.068,31.0799999999999 C2.068,31.0799999999999 0.911,43.7600000000002 8.648,45.4939999999997 C16.385,47.2259999999997 35.594,46.4989999999998 40.917,46.7460000000001 C46.241,46.9930000000004 76.946,47.3729999999996 76.946,47.3729999999996 C76.946,47.3729999999996 101.929,47.0450000000001 104.516,47.0600000000004 C107.103,47.0749999999998 124.133,46.8540000000003 125.82,45.1800000000003 C127.508,43.5060000000003 129.721,42.1850000000004 129.893,35.1540000000005 C130.066,28.1210000000001 129.165,16.491 129.267,14.1589999999997 C129.368,11.8289999999997 127.923,2.85699999999997 124.254,2.2529999999997 C120.585,1.64999999999964 98.483,0.69700000000012 98.25,2.5659999999998 Z "/>
</svg>
