<?xml version="1.0" encoding="utf-8"?>
<!DOCTYPE svg PUBLIC "-//W3C//DTD SVG 1.1//EN" "http://www.w3.org/Graphics/SVG/1.1/DTD/svg11.dtd">
<svg version="1.1" baseProfile="full"
 xmlns="http://www.w3.org/2000/svg"
 xmlns:xlink="http://www.w3.org/1999/xlink"
 xmlns:ev="http://www.w3.org/2001/xml-events" 
  height="48px" 
  width="130px" 
>
<defs>
<filter id="Filter_0">
  <feFlood flood-color="rgb( 251, 159, 24 )" flood-opacity="1" result="floodOut" />
  <feComposite operator="atop" in="floodOut" in2="SourceGraphic" result="compOut" />
  <feBlend mode="normal" in="compOut" in2="SourceGraphic" />
</filter>

</defs><g filter="url(#Filter_0)">
<path fill="rgb( 109, 220, 246 )"
 d="M97.602,2.5659999999998 C97.602,2.5659999999998 55.573,1.71500000000015 47.475,1.3130000000001 C39.377,0.91200000000026 7.68700000000001,2.5659999999998 7.68700000000001,2.5659999999998 C7.68700000000001,2.5659999999998 1.42100000000005,3.1899999999996 1.42100000000005,12.9070000000002 C1.42100000000005,22.6239999999998 1.42100000000005,31.0799999999999 1.42100000000005,31.0799999999999 C1.42100000000005,31.0799999999999 0.26300000000003,43.7600000000002 8,45.4939999999997 C15.737,47.2259999999997 34.946,46.4989999999998 40.269,46.7460000000001 C45.593,46.9930000000004 76.298,47.3729999999996 76.298,47.3729999999996 C76.298,47.3729999999996 101.281,47.0450000000001 103.869,47.0600000000004 C106.456,47.0749999999998 123.485,46.8540000000003 125.173,45.1800000000003 C126.86,43.5060000000003 129.073,42.1850000000004 129.245,35.1540000000005 C129.418,28.1210000000001 128.517,16.491 128.619,14.1589999999997 C128.72,11.8289999999997 127.275,2.85699999999997 123.606,2.2529999999997 C119.937,1.64999999999964 97.835,0.69700000000012 97.602,2.5659999999998 Z "/>
</g>
</svg>
