<?xml version="1.0" encoding="utf-8"?>
<!-- Generator: Adobe Illustrator 18.0.0, SVG Export Plug-In . SVG Version: 6.00 Build 0)  -->
<!DOCTYPE svg PUBLIC "-//W3C//DTD SVG 1.1//EN" "http://www.w3.org/Graphics/SVG/1.1/DTD/svg11.dtd">
<svg version="1.1" id="icons" xmlns="http://www.w3.org/2000/svg" xmlns:xlink="http://www.w3.org/1999/xlink" x="0px" y="0px"
	 viewBox="0 0 30.8 29.6" enable-background="new 0 0 30.8 29.6" xml:space="preserve">
<path fill="#58595B" stroke="#58595B" stroke-width="3" stroke-linecap="round" stroke-linejoin="round" stroke-miterlimit="10" d="
	M29.2,11.5c-0.2-0.5-0.7-1.1-1.7-1.1l-8.1,0L17,2.8c-0.3-0.9-1-1.3-1.6-1.3c-0.6,0-1.3,0.3-1.6,1.3l-2.5,7.7l-8.1,0
	c-1,0-1.5,0.6-1.7,1.1c-0.2,0.5-0.1,1.3,0.7,1.9l6.5,4.7l-2.5,7.7c-0.3,0.8,0,1.3,0.2,1.6c0.3,0.4,0.8,0.7,1.3,0.7
	c0.4,0,0.8-0.1,1.1-0.4l6.5-4.8l6.5,4.8c0.3,0.3,0.7,0.4,1.1,0.4c0.5,0,1-0.3,1.3-0.7c0.2-0.3,0.5-0.8,0.2-1.6L22,18.2l6.5-4.7
	C29.3,12.9,29.4,12.1,29.2,11.5z"/>
</svg>
