<?xml version="1.0" encoding="utf-8"?>
<!-- Generator: Adobe Illustrator 18.0.0, SVG Export Plug-In . SVG Version: 6.00 Build 0)  -->
<!DOCTYPE svg PUBLIC "-//W3C//DTD SVG 1.1//EN" "http://www.w3.org/Graphics/SVG/1.1/DTD/svg11.dtd">
<svg version="1.1" id="Calque_1" xmlns="http://www.w3.org/2000/svg" xmlns:xlink="http://www.w3.org/1999/xlink" x="0px" y="0px"
	 viewBox="0 0 73.5 40.7" enable-background="new 0 0 73.5 40.7" xml:space="preserve">
<g>
	<path fill="#9D8ECF" d="M71.7,9.5h-4.2V8.8c0-4.8-3.9-8.8-8.8-8.8h-50C3.9,0,0,3.9,0,8.8v17c0,4.8,3.9,8.8,8.8,8.8h0.8V39
		c0,1,0.8,1.8,1.8,1.8h45c1,0,1.8-0.8,1.8-1.8v-4.5h0.8c4.8,0,8.8-3.9,8.8-8.8V25h4.2c1,0,1.8-0.8,1.8-1.8v-12
		C73.5,10.3,72.7,9.5,71.7,9.5z M54.5,37.2H13v-2.7h41.5V37.2z M64,25.8c0,2.9-2.4,5.3-5.3,5.3h-50c-2.9,0-5.3-2.4-5.3-5.3v-17
		c0-2.9,2.4-5.3,5.3-5.3h50c2.9,0,5.3,2.4,5.3,5.3V25.8z M70,21.5h-2.5V13H70V21.5z"/>
	<path fill="#9D8ECF" d="M8.6,26.8h9.2v-19H8.6V26.8z M11.6,10.8h3.2v13h-3.2V10.8z"/>
	<path fill="#9D8ECF" d="M49.5,26.8h9.2v-19h-9.2V26.8z M52.5,10.8h3.2v13h-3.2V10.8z"/>
	<polygon fill="#9D8ECF" points="20.3,10.8 26.5,10.8 26.5,26.8 29.5,26.8 29.5,7.8 20.3,7.8 	"/>
	<polygon fill="#9D8ECF" points="37.8,10.8 44,10.8 44,15.8 37.8,15.8 37.8,18.8 44,18.8 44,23.8 37.8,23.8 37.8,26.8 47,26.8 
		47,7.8 37.8,7.8 	"/>
	<rect x="32.1" y="10.8" fill="#9D8ECF" width="3" height="5"/>
	<rect x="32.1" y="18.8" fill="#9D8ECF" width="3" height="5"/>
</g>
</svg>
