<?xml version="1.0" encoding="utf-8"?>
<!-- Generator: Adobe Illustrator 18.0.0, SVG Export Plug-In . SVG Version: 6.00 Build 0)  -->
<!DOCTYPE svg PUBLIC "-//W3C//DTD SVG 1.1//EN" "http://www.w3.org/Graphics/SVG/1.1/DTD/svg11.dtd">
<svg version="1.1" id="Capa_1" xmlns="http://www.w3.org/2000/svg" xmlns:xlink="http://www.w3.org/1999/xlink" x="0px" y="0px"
	 viewBox="0 0 27 27" enable-background="new 0 0 27 27" xml:space="preserve">
<path fill="#6898DD" d="M19.8,27C19.8,27,19.8,27,19.8,27c-1.7,0-4.3-1.2-4.3-4.2v-0.2c0-1.5,0-3.7-0.4-5.5
	c-0.3-1.6-0.9-2.5-1.7-2.5c-0.8,0-1.3,0.8-1.7,2.5c-0.4,1.8-0.4,4-0.4,5.5v0.2c0,3.1-2.6,4.2-4.3,4.2c0,0,0,0,0,0
	c-0.4,0-0.8-0.2-1-0.6C6,26.1,2.9,20,2.9,13.6c0-0.9-0.6-2.3-1.3-3.7C0.6,7.5-0.6,4.8,0.4,2.6c0.5-1.2,1.7-2,3.3-2.5
	c0.1,0,0.1,0,0.2,0c2.1-0.3,4,0.7,5.8,1.6C11,2.4,12.3,3,13.5,3c0.1,0,0.2,0,0.3,0C14.9,3,16,2.3,17.3,1.7C19.1,0.8,21-0.2,23.1,0
	c0.1,0,0.1,0,0.2,0c1.7,0.5,2.8,1.3,3.3,2.5c1,2.2-0.2,4.9-1.3,7.2c-0.6,1.4-1.3,2.8-1.3,3.7c0,6.4-3.2,12.6-3.3,12.8
	C20.6,26.7,20.2,27,19.8,27z M13.5,12.4c1.4,0,3.1,0.7,3.9,4.3c0.4,2,0.4,4.4,0.4,5.9v0.2c0,1.2,0.8,1.7,1.4,1.9
	c0.8-1.7,2.7-6.4,2.7-11.1c0-1.4,0.7-3,1.4-4.6c0.9-1.9,1.8-4.1,1.3-5.4c-0.3-0.6-0.9-1-1.8-1.3c-1.4-0.1-2.8,0.6-4.4,1.4
	c-1.6,0.8-3.2,1.6-4.9,1.6c-0.1,0-0.3,0-0.4-0.1c-1.6-0.1-3-0.9-4.5-1.6c-1.6-0.8-3-1.5-4.4-1.4C3.3,2.6,2.7,3,2.4,3.5
	C1.8,4.8,2.8,7,3.7,8.9c0.7,1.7,1.4,3.2,1.4,4.6c0,4.7,1.9,9.3,2.7,11.1c0.6-0.2,1.4-0.6,1.4-1.9v-0.2c0-1.6,0-3.9,0.4-5.9
	C10.4,13.1,12.1,12.4,13.5,12.4z"/>
</svg>
