<?xml version="1.0" encoding="utf-8"?>
<!-- Generator: Adobe Illustrator 18.0.0, SVG Export Plug-In . SVG Version: 6.00 Build 0)  -->
<!DOCTYPE svg PUBLIC "-//W3C//DTD SVG 1.1//EN" "http://www.w3.org/Graphics/SVG/1.1/DTD/svg11.dtd">
<svg version="1.1" id="icons" xmlns="http://www.w3.org/2000/svg" xmlns:xlink="http://www.w3.org/1999/xlink" x="0px" y="0px"
	 viewBox="0 0 54.7 55" enable-background="new 0 0 54.7 55" xml:space="preserve">
<path fill-rule="evenodd" clip-rule="evenodd" fill="none" stroke="#794E1B" stroke-width="4" stroke-linecap="round" stroke-linejoin="round" stroke-miterlimit="10" d="
	M40,23.8c-4.4-3.5-8.9-3.5-12.7,0c-4.4-3.5-8.9-3.5-12.7,0c-3.3-3.5-9.2-3.5-12.7,0C5.6,14,14.6,6.8,25.4,6.1L27.6,6l2.2,0.1
	c10.5,1,19.3,8.1,22.9,17.7C48.3,20.3,43.9,20.3,40,23.8z"/>
<path fill-rule="evenodd" clip-rule="evenodd" fill="none" stroke="#794E1B" stroke-width="4" stroke-linecap="round" stroke-linejoin="round" stroke-miterlimit="10" d="
	M39.2,46.4l0,0.6c0,1.6-0.7,3.2-1.8,4.2c-1.1,1.1-2.6,1.8-4.2,1.8h0c-1.7,0-3.2-0.7-4.2-1.8c-1.1-1.1-1.8-2.6-1.8-4.2l0-22.5"/>
<line fill-rule="evenodd" clip-rule="evenodd" fill="none" stroke="#794E1B" stroke-width="4" stroke-linecap="round" stroke-linejoin="round" stroke-miterlimit="10" x1="27.2" y1="5" x2="27.2" y2="2"/>
<path fill-rule="evenodd" clip-rule="evenodd" fill="none" stroke="#794E1B" stroke-width="4" stroke-linecap="round" stroke-linejoin="round" stroke-miterlimit="10" d="
	M39.2,24.5"/>
</svg>
