<?xml version="1.0" encoding="utf-8"?>
<!-- Generator: Adobe Illustrator 18.0.0, SVG Export Plug-In . SVG Version: 6.00 Build 0)  -->
<!DOCTYPE svg PUBLIC "-//W3C//DTD SVG 1.1//EN" "http://www.w3.org/Graphics/SVG/1.1/DTD/svg11.dtd">
<svg version="1.1" id="els_x5F_transport" xmlns="http://www.w3.org/2000/svg" xmlns:xlink="http://www.w3.org/1999/xlink" x="0px"
	 y="0px" viewBox="0 0 58 43.3" enable-background="new 0 0 58 43.3" xml:space="preserve">
<path fill="none" stroke="#9D8ECF" stroke-width="4" stroke-linecap="round" stroke-linejoin="round" stroke-miterlimit="10" d="
	M49.5,17.1c-1.6-0.6-3.5-1.2-5.5-1.6c-0.4-3.7-2.1-7-4.6-9.4C36.6,3.6,33.1,2,29.1,2H29c-3.9,0-7.4,1.5-10,3.9
	c-2.7,2.4-4.5,5.8-4.9,9.6c-2,0.4-3.7,0.9-5.3,1.5C4.6,18.6,2,20.7,2,23c0,2.3,2.6,4.4,6.8,6c1.8,0.7,3.8,1.2,6.1,1.7l-1.1,4.3
	c-0.4,1.6,0.5,3.2,2.1,3.7c1.1,0.3,2.3-0.1,3-0.9c0.3-0.3,0.5-0.7,0.6-1.2l1.3-4.9c1.6,0.2,3.3,0.3,5.1,0.4v6.3c0,1.6,1.4,3,3.1,3
	c0,0,0,0,0,0c1.6-0.1,2.9-1.4,2.9-3v-6.3c1.8-0.1,3.6-0.2,5.3-0.4l1.3,4.9c0.1,0.5,0.4,0.9,0.7,1.3c0.7,0.8,1.9,1.2,3,0.9
	c1.6-0.4,2.5-2.1,2.1-3.7l-1.2-4.3c2.3-0.5,4.4-1.1,6.2-1.8c4.1-1.6,6.5-3.6,6.5-5.9C56,20.8,53.5,18.7,49.5,17.1z"/>
<circle fill="none" stroke="#9D8ECF" stroke-width="4" stroke-linecap="round" stroke-linejoin="round" stroke-miterlimit="10" cx="47.8" cy="23" r="0.7"/>
<circle fill="none" stroke="#9D8ECF" stroke-width="4" stroke-linecap="round" stroke-linejoin="round" stroke-miterlimit="10" cx="38.4" cy="23" r="0.7"/>
<circle fill="none" stroke="#9D8ECF" stroke-width="4" stroke-linecap="round" stroke-linejoin="round" stroke-miterlimit="10" cx="29" cy="23" r="0.7"/>
<circle fill="none" stroke="#9D8ECF" stroke-width="4" stroke-linecap="round" stroke-linejoin="round" stroke-miterlimit="10" cx="19.6" cy="23" r="0.7"/>
<circle fill="none" stroke="#9D8ECF" stroke-width="4" stroke-linecap="round" stroke-linejoin="round" stroke-miterlimit="10" cx="10.2" cy="23" r="0.7"/>
</svg>
