<?xml version="1.0" standalone="no"?>
<!DOCTYPE svg PUBLIC "-//W3C//DTD SVG 1.1//EN" "http://www.w3.org/Graphics/SVG/1.1/DTD/svg11.dtd" >
<svg xmlns="http://www.w3.org/2000/svg" xmlns:xlink="http://www.w3.org/1999/xlink" version="1.1">
<metadata></metadata>
<defs>
<font id="als_schlange_sansblack" horiz-adv-x="1228" >
<font-face units-per-em="2048" ascent="1638" descent="-410" />
<missing-glyph horiz-adv-x="466" />
<glyph horiz-adv-x="0" />
<glyph horiz-adv-x="682" />
<glyph unicode=" "  horiz-adv-x="466" />
<glyph unicode="&#x09;" horiz-adv-x="466" />
<glyph unicode="&#xa0;" horiz-adv-x="466" />
<glyph unicode="!" horiz-adv-x="647" d="M131 172q0 80 50 127t143 47q92 0 143 -47.5t51 -126.5q0 -80 -50.5 -126t-143.5 -46q-94 0 -143.5 45.5t-49.5 126.5zM150 627v614q0 74 46 123t128 49q83 0 128.5 -49t45.5 -123v-614q0 -77 -45.5 -125.5t-128.5 -48.5q-82 0 -128 49t-46 125z" />
<glyph unicode="&#x22;" horiz-adv-x="819" d="M100 1059v233q0 62 36.5 102t103.5 40q66 0 101.5 -39.5t35.5 -102.5v-233q0 -63 -35 -102t-102 -39t-103.5 39.5t-36.5 101.5zM442 1059v233q0 62 36.5 102t103.5 40q66 0 101.5 -39.5t35.5 -102.5v-233q0 -63 -35 -102t-102 -39t-103.5 39.5t-36.5 101.5z" />
<glyph unicode="#" horiz-adv-x="1331" d="M55 473q0 65 38 94t116 29h55l68 192h-21q-153 0 -153 123q0 65 37.5 94t115.5 29h107l108 307q43 118 160 84q37 -11 56.5 -37t19.5 -57t-10 -65l-82 -232h174l108 307q43 118 160 84q37 -11 56.5 -37t19.5 -57t-10 -65l-82 -232h28q78 0 116 -29t38 -94 q0 -123 -154 -123h-114l-68 -192h59q78 0 116 -29t38 -94q0 -123 -154 -123h-145l-94 -272q-44 -122 -158 -90q-57 16 -73.5 66t4.5 98l69 198h-174l-94 -272q-44 -122 -158 -90q-57 16 -73.5 66t4.5 98l69 198q-123 12 -123 123zM516 596h174l68 192h-174z" />
<glyph unicode="$" horiz-adv-x="1081" d="M71.5 161q-28.5 69 6.5 136q28 55 83 67.5t132 -22.5q138 -66 239 -66q68 0 107 29.5t39 85.5q0 42 -26 77t-68 59t-96.5 51.5t-110.5 52.5t-110.5 63.5t-96.5 83t-68 112t-26 150.5q0 137 77 240t234 135v41q0 74 41 124t123 50t123 -50t41 -124v-37q104 -16 168 -55 q138 -82 84 -207q-16 -36 -41 -55.5t-57 -22.5t-65 3t-73 20q-96 35 -178 35q-64 0 -96.5 -24.5t-32.5 -68.5q0 -36 26 -66t68 -52t96.5 -47.5t110.5 -50.5t110.5 -63.5t96.5 -84t68 -113.5t26 -151q0 -60 -17 -119.5t-52 -117t-97.5 -103.5t-144.5 -70v-49q0 -74 -41 -124 t-123 -50t-123 50t-41 124v31q-115 15 -199 59q-88 45 -116.5 114z" />
<glyph unicode="%" horiz-adv-x="1767" d="M47 1034q0 185 92 292.5t271 107.5q178 0 270 -108t92 -292q0 -183 -92 -291t-270 -108q-179 0 -271 107.5t-92 291.5zM334 1034q0 -85 19.5 -119t56.5 -34t56 33.5t19 119.5t-19 120t-56 34t-56.5 -34.5t-19.5 -119.5zM530.5 28q0.5 33 10.5 68l467 1329 q21 57 61.5 79.5t97.5 4.5q54 -18 70 -65.5t-4 -95.5l-465 -1325q-22 -60 -62 -88t-98 -9q-38 12 -58 40.5t-19.5 61.5zM995 379q0 185 92 292t271 107q178 0 270 -107.5t92 -291.5q0 -183 -92 -291t-270 -108q-179 0 -271 107.5t-92 291.5zM1282 379q0 -85 19.5 -119.5 t56.5 -34.5t56.5 34.5t19.5 119.5t-19.5 119t-56.5 34t-56.5 -34t-19.5 -119z" />
<glyph unicode="&#x26;" horiz-adv-x="1331" d="M78 375q0 122 60 214.5t202 184.5q-119 151 -119 311q0 164 108.5 256.5t299.5 92.5q94 0 166 -25t114 -67.5t63 -94.5t21 -110q0 -111 -64 -195.5t-196 -175.5q59 -88 180 -215l39 88q29 84 71 113.5t107 17.5q120 -24 103 -170q-17 -121 -92 -262l80 -57 q47 -37 66.5 -79.5t14 -78t-29.5 -66.5q-91 -123 -283 21l-39 28q-140 -126 -385 -126q-103 0 -189 23t-154 69.5t-106 124t-38 178.5zM426 406q0 -63 45 -101.5t123 -38.5q73 0 137 39q-94 76 -233 256q-72 -75 -72 -155zM569 1100q0 -38 10 -67t35 -70q113 87 113 159 q0 33 -20 49.5t-52 16.5q-37 0 -61.5 -23t-24.5 -65z" />
<glyph unicode="'" horiz-adv-x="477" d="M100 1059v233q0 62 36.5 102t103.5 40q66 0 101.5 -39.5t35.5 -102.5v-233q0 -63 -35 -102t-102 -39t-103.5 39.5t-36.5 101.5z" />
<glyph unicode="(" horiz-adv-x="690" d="M63 707q0 137 24 261.5t65.5 220.5t87.5 168t100 130q48 52 97.5 73.5t92.5 14.5t80 -39q32 -29 38 -71.5t-9 -84.5t-45 -88q-91 -136 -136.5 -271.5t-45.5 -313.5t45.5 -313t136.5 -271q30 -46 45 -88t9 -84.5t-38 -71.5q-37 -32 -80 -39t-92.5 14.5t-97.5 73.5 q-54 58 -100 130t-87.5 168t-65.5 220t-24 261z" />
<glyph unicode=")" horiz-adv-x="690" d="M42 -49.5q-6 42.5 9 84.5t45 88q91 136 137 271t46 313t-46 313.5t-137 271.5q-30 46 -45 88t-9 84.5t38 71.5q37 32 80 39t92.5 -14.5t97.5 -73.5q54 -58 100 -130t87.5 -168t65.5 -220.5t24 -261.5t-24 -261t-65.5 -220t-87.5 -168t-100 -130q-48 -52 -97.5 -73.5 t-92.5 -14.5t-80 39q-32 29 -38 71.5z" />
<glyph unicode="*" horiz-adv-x="808" d="M96 1038q8 35 39 54l25 14l-25 14q-69 44 -24 146q20 44 48.5 62.5t52 15.5t48.5 -17l19 -10v22q0 95 127 95q126 0 126 -95v-22l19 10q25 14 48.5 17t52 -15.5t48.5 -62.5q23 -57 15 -92t-39 -54l-25 -14l25 -14q69 -44 24 -146q-20 -44 -48.5 -62.5t-52 -15.5t-48.5 17 l-19 10v-23q0 -94 -126 -94q-127 0 -127 94v23l-19 -10q-25 -14 -48.5 -17t-52 15.5t-48.5 62.5q-23 57 -15 92z" />
<glyph unicode="+" horiz-adv-x="993" d="M51 647q0 69 44 106.5t118 37.5h125v127q0 76 38 125t120 49t119.5 -48.5t37.5 -125.5v-127h127q75 0 118.5 -37.5t43.5 -106.5q0 -73 -43 -108t-119 -35h-127v-127q0 -77 -37.5 -125.5t-119.5 -48.5t-120 49t-38 125v127h-125q-75 0 -118.5 35.5t-43.5 107.5z" />
<glyph unicode="," horiz-adv-x="532" d="M-22.5 -123q-6.5 58 32.5 127l144 264q36 74 95 96t122 -14q38 -21 53.5 -57t11 -72t-23.5 -69l-154 -291q-38 -76 -96.5 -95t-124.5 21q-53 32 -59.5 90z" />
<glyph unicode="-" horiz-adv-x="1009" d="M106 543q0 70 46.5 111.5t119.5 41.5h465q74 0 120 -41.5t46 -111.5q0 -73 -45.5 -113.5t-120.5 -40.5h-465q-74 0 -120 40.5t-46 113.5z" />
<glyph unicode="." horiz-adv-x="573" d="M92 193q0 82 52 138t143 56q90 0 142 -56t52 -138q0 -83 -51.5 -138t-142.5 -55q-92 0 -143.5 55t-51.5 138z" />
<glyph unicode="/" horiz-adv-x="901" d="M36 -101q1 36 13 76l545 1551q24 68 71.5 96t118.5 6q42 -13 63.5 -45t20 -69.5t-13.5 -77.5l-543 -1553q-22 -62 -71 -91.5t-117 -6.5q-44 15 -66 46.5t-21 67.5z" />
<glyph unicode="0" horiz-adv-x="1218" d="M86 707q0 165 32.5 297.5t96.5 229t165 148.5t232 52q173 0 292 -92t175 -252.5t56 -382.5t-56 -382.5t-175 -252.5t-292 -92q-131 0 -232 52t-165 148.5t-96.5 229t-32.5 297.5zM414 707q0 -441 198 -441q195 0 195 441q0 440 -195 440q-105 0 -151.5 -112t-46.5 -328z " />
<glyph unicode="1" horiz-adv-x="872" d="M17 931q6 60 61 118l321 317q68 68 144 68q159 0 159 -172v-1088q0 -78 -40.5 -126t-122.5 -48q-81 0 -122.5 48t-41.5 126v776l-92 -84q-40 -35 -73.5 -53.5t-73.5 -18t-75 30.5q-50 46 -44 106z" />
<glyph unicode="2" horiz-adv-x="1101" d="M74 180q0 101 33.5 188t87 148.5t118 115t129 98t118 86.5t87 91.5t33.5 102.5q0 56 -38.5 86t-111.5 30q-91 0 -215 -53q-150 -64 -206 39q-29 50 -10 110t83 105q155 107 375 107q217 0 334 -107.5t117 -279.5q0 -86 -28.5 -161.5t-75 -130.5t-104 -104t-118.5 -91.5 t-114.5 -83t-96.5 -89.5t-61 -100h462q76 0 120 -35.5t44 -108.5q0 -69 -45 -106t-119 -37h-620q-89 0 -133.5 50t-44.5 130z" />
<glyph unicode="3" horiz-adv-x="1087" d="M56.5 164q-19.5 59 11.5 119q59 106 217 36q116 -53 207 -53q83 0 127.5 43t44.5 121q0 160 -248 160q-87 0 -131.5 40.5t-44.5 112.5q0 77 55 129l274 254h-282q-76 0 -122 35.5t-46 108.5q0 68 46.5 105.5t121.5 37.5h528q60 0 99.5 -26.5t51 -65.5t-0.5 -84.5 t-47 -83.5l-330 -311q207 -18 315.5 -127t108.5 -269q0 -212 -139.5 -339t-383.5 -127q-224 0 -354 86q-59 39 -78.5 98z" />
<glyph unicode="4" horiz-adv-x="1155" d="M19.5 541.5q3.5 64.5 46.5 120.5l557 684q72 88 157 88q79 0 113.5 -49t34.5 -125v-609h45q52 0 86.5 -35t34.5 -94q0 -63 -32 -100t-89 -37h-45v-219q0 -75 -38.5 -120.5t-119.5 -45.5t-120.5 45.5t-39.5 120.5v219h-432q-78 0 -120 46t-38.5 110.5zM362 651h263v295z " />
<glyph unicode="5" horiz-adv-x="1077" d="M57 159q-17 55 13 117q51 101 200 35q102 -45 197 -45q89 0 142 49t53 156q0 89 -53 132.5t-128 43.5q-43 0 -111 -12t-100 -12q-68 0 -102.5 39.5t-30.5 119.5l29 465q5 73 46 119.5t120 46.5h452q72 0 119 -46.5t47 -117.5q0 -75 -46.5 -119.5t-119.5 -44.5h-356 l-6 -159q57 8 149 8q102 0 182.5 -32t127.5 -81t77 -113.5t41 -122t11 -114.5q0 -104 -34.5 -193t-99.5 -155.5t-166 -104.5t-227 -38q-101 0 -196 20.5t-152 60.5q-61 43 -78 98z" />
<glyph unicode="6" horiz-adv-x="1157" d="M86 610q0 415 158 619q158 205 426 205q149 0 256 -52q60 -30 81 -77t3 -103q-8 -25 -20 -42.5t-24.5 -27.5t-31.5 -14.5t-31.5 -5.5t-35.5 2.5t-33 5.5t-33 8q-79 19 -148 19q-124 0 -186 -88q-56 -77 -66 -201q42 39 120 63.5t163 24.5q189 0 301.5 -126t112.5 -333 q0 -99 -32.5 -189t-94 -161.5t-158.5 -114t-217 -42.5q-238 0 -374 162t-136 468zM414 506q0 -116 48 -178t130 -62q79 0 128.5 58t49.5 151q0 85 -47 136t-125 51q-77 0 -130.5 -45t-53.5 -111z" />
<glyph unicode="7" horiz-adv-x="1011" d="M29 1249q0 70 48 117t120 47h637q115 0 154 -72t-9 -186l-453 -1012q-37 -90 -90.5 -125t-138.5 -2q-50 19 -70.5 63.5t-16 89.5t22.5 89l383 827h-419q-74 0 -121 44.5t-47 119.5z" />
<glyph unicode="8" horiz-adv-x="1189" d="M78 383q0 119 55.5 205t177.5 166q-184 108 -184 305q0 171 128.5 273t338.5 102q213 0 340 -96.5t127 -266.5q0 -90 -51.5 -175t-135.5 -140q129 -79 183.5 -162t54.5 -197q0 -183 -138 -300t-370 -117q-150 0 -266 41.5t-188 134t-72 227.5zM385 412q0 -65 53.5 -105.5 t153.5 -40.5q92 0 142 35.5t50 95.5q0 21 -10.5 42t-24.5 37.5t-40.5 35t-45.5 29.5t-53.5 27.5t-49.5 23t-48 20.5q-127 -97 -127 -200zM455 1047q0 -51 60 -97.5t147 -79.5q92 100 92 166q0 48 -44 79.5t-116 31.5q-63 0 -101 -26.5t-38 -73.5z" />
<glyph unicode="9" horiz-adv-x="1157" d="M59 926q0 99 32.5 189.5t94 162t158.5 114t217 42.5q238 0 374 -162.5t136 -468.5q0 -415 -158 -619q-157 -204 -426 -204q-151 0 -256 51q-60 30 -81 77t-3 103q8 25 20 42.5t24.5 27.5t31.5 14.5t31.5 5.5t35.5 -2.5t33 -5.5t33 -8q79 -19 148 -19q124 0 186 88 q56 77 66 201q-42 -39 -120 -63.5t-163 -24.5q-189 0 -301.5 126t-112.5 333zM387 938q0 -85 47 -135.5t125 -50.5q77 0 130.5 44.5t53.5 110.5q0 116 -48 178t-130 62q-79 0 -128.5 -58t-49.5 -151z" />
<glyph unicode=":" horiz-adv-x="602" d="M106 172q0 82 52 138.5t143 56.5q90 0 142.5 -56.5t52.5 -138.5q0 -83 -52 -137.5t-143 -54.5q-92 0 -143.5 54.5t-51.5 137.5zM106 834q0 82 52 138t143 56q90 0 142.5 -56t52.5 -138q0 -83 -52 -138t-143 -55q-92 0 -143.5 55t-51.5 138z" />
<glyph unicode=";" horiz-adv-x="616" d="M4 -122.5q6 -58.5 59 -90.5q66 -40 125 -21t97 95l153 291q19 33 23.5 69t-11 72t-53.5 57q-63 36 -122 14t-95 -96l-143 -264q-39 -68 -33 -126.5zM123 834q0 82 51.5 138t142.5 56q90 0 142.5 -56t52.5 -138q0 -83 -52 -138t-143 -55q-92 0 -143 55t-51 138z" />
<glyph unicode="&#x3c;" horiz-adv-x="913" d="M81.5 660q-0.5 87 72.5 141l393 289q37 27 78 38t82.5 -2t66.5 -55q69 -114 -84 -225l-241 -174l274 -201q40 -29 61.5 -65.5t18.5 -82t-37 -87.5q-32 -39 -76.5 -49t-82.5 1.5t-70 36.5l-381 291q-74 57 -74.5 144z" />
<glyph unicode="=" horiz-adv-x="1120" d="M115 387q0 69 43.5 106t117.5 37h568q75 0 118.5 -37t43.5 -106q0 -73 -43 -108t-119 -35h-568q-75 0 -118 35.5t-43 107.5zM115 774q0 69 43.5 106.5t117.5 37.5h568q75 0 118.5 -37.5t43.5 -106.5q0 -73 -43 -108t-119 -35h-568q-75 0 -118 35.5t-43 107.5z" />
<glyph unicode="&#x3e;" horiz-adv-x="915" d="M110 983.5q3 45.5 37 87.5q32 39 76.5 49t83 -2t70.5 -37l381 -290q74 -57 74.5 -144t-72.5 -141l-393 -289q-37 -27 -78 -38t-83 2t-67 55q-69 114 84 225l242 174l-275 201q-40 29 -61.5 65.5t-18.5 82z" />
<glyph unicode="?" horiz-adv-x="899" d="M53 1211.5q-2 34.5 21.5 73.5t68.5 67q132 82 318 82q101 0 179 -26.5t122.5 -72t67 -99t22.5 -112.5q0 -95 -44 -163t-138 -148q-67 -58 -94 -105.5t-27 -105.5q0 -68 -36.5 -108.5t-115.5 -40.5q-75 0 -110 42.5t-35 110.5q0 157 121 281q71 72 96 110.5t25 79.5 q0 30 -22 50t-69 20q-61 0 -149 -43q-58 -29 -109 -18t-77 61q-13 30 -15 64.5zM211 172q0 80 49.5 127t142.5 47q92 0 143.5 -47.5t51.5 -126.5q0 -80 -51 -126t-144 -46q-94 0 -143 45.5t-49 126.5z" />
<glyph unicode="@" horiz-adv-x="1941" d="M68 485q0 278 113 493t325.5 335.5t494.5 120.5q167 0 307.5 -43t241 -119.5t171.5 -181t105 -228t34 -260.5q0 -101 -17.5 -188.5t-56.5 -164.5t-98 -131.5t-147 -86t-198 -31.5h-102q-57 0 -111 29t-75 77q-81 -126 -232 -126q-149 0 -242.5 131t-93.5 364 q0 262 108 405.5t294 143.5q62 0 129.5 -14t111.5 -41q44 35 105 35q79 0 109 -46t30 -127v-565h1h1h1h1h1h1h1h1h1h1h1h1h1h1h1h1h1h1h1h1h1h1h1h1h1h1h1h1h1h1h1h1h9q76 0 117 83.5t41 252.5q0 268 -150 416.5t-430 148.5q-147 0 -263.5 -41t-201 -123t-129.5 -213 t-45 -305q0 -325 169 -487t487 -164q33 0 59 1t51 4.5t35 5t38 7.5t32 7q138 28 168 -66q35 -116 -111 -178q-41 -17 -119.5 -31t-150.5 -14q-226 0 -406 68.5t-297 190.5t-179 289t-62 367zM805 461q0 -104 32 -159.5t87 -55.5q39 0 67.5 24.5t44 67t23 91t8.5 106.5v210 q-56 23 -119 23q-143 0 -143 -307z" />
<glyph unicode="A" horiz-adv-x="1312" d="M22 158q4 48 25 102l430 1040q29 71 72.5 102.5t107.5 31.5q123 0 174 -119l443 -1049q18 -48 20 -96v-8q0 -42 -24 -82q-26 -44 -76 -64q-41 -16 -78 -16q-38 0 -72 18q-66 35 -96 123l-78 207h-452l-64 -182q-14 -42 -34 -74.5t-52 -59.5q-30 -26 -70 -30q-7 -1 -16 0 q-34 0 -76 12q-48 17 -68 57q-18 34 -17 74q0 6 1 13zM510 623h264l-133 340z" />
<glyph unicode="B" horiz-adv-x="1339" d="M145 205v1001q0 167 172 193q168 24 345 24q119 0 216.5 -21.5t173 -66t117 -119t41.5 -174.5q0 -91 -43.5 -164t-117.5 -112q110 -41 165.5 -131t55.5 -201q0 -108 -35 -189t-90 -128.5t-136 -77t-160 -39.5t-175 -10q-210 0 -361 24q-88 15 -128 62.5t-40 128.5z M494 295q66 -8 190 -8q207 0 207 149q0 73 -48 110.5t-155 37.5h-194v-289zM494 850h170q83 0 125 36t42 101q0 139 -180 139q-67 0 -157 -8v-268z" />
<glyph unicode="C" horiz-adv-x="1269" d="M76 705q0 334 180 531.5t481 197.5q251 0 389 -105q40 -31 58 -71q16 -35 15 -65v-7q-2 -33 -17 -62q-18 -36 -42 -54q-24 -19 -66 -24q-8 -1 -16 -1q-37 0 -85 18q-5 2 -25 8.5t-27.5 9t-26.5 7.5t-32 7.5t-32.5 5.5t-40 4t-44.5 1q-130 0 -205 -106.5t-75 -297.5 q0 -193 83 -294t208 -101q43 0 87.5 12.5t67.5 23.5t80 40q62 31 110 31q63 0 105 -52q26 -34 29 -78v-9q0 -40 -22 -85q-25 -50 -76 -90q-152 -120 -414 -120q-318 0 -482.5 190.5t-164.5 534.5z" />
<glyph unicode="D" horiz-adv-x="1454" d="M143 201v993q0 83 36.5 134t129.5 69q137 26 332 26q359 0 548 -179.5t189 -528.5q0 -336 -189 -530.5t-544 -194.5q-217 0 -332 20q-89 15 -129.5 62.5t-40.5 128.5zM512 322q92 -5 143 -5q164 0 249 105t85 293q0 180 -86 280.5t-252 100.5q-77 0 -139 -6v-768z" />
<glyph unicode="E" d="M147 186v1041q0 81 48.5 133.5t136.5 52.5h651q85 0 132.5 -43t47.5 -121q0 -74 -48 -119t-132 -45h-467v-204h363q85 0 132.5 -43t47.5 -121q0 -74 -48 -119t-132 -45h-363v-225h485q85 0 133 -43t48 -121q0 -74 -48.5 -119t-132.5 -45h-669q-88 0 -136.5 52t-48.5 134z " />
<glyph unicode="F" horiz-adv-x="1150" d="M147 186v1041q0 81 48.5 133.5t136.5 52.5h612q85 0 132.5 -43t47.5 -121q0 -74 -48 -119t-132 -45h-428v-204h332q85 0 132.5 -43t47.5 -121q0 -74 -48 -119t-132 -45h-332v-367q0 -83 -48 -134.5t-136 -51.5t-136.5 52t-48.5 134z" />
<glyph unicode="G" horiz-adv-x="1376" d="M76 705q0 216 78.5 379.5t232.5 256.5t365 93q264 0 395 -97q42 -30 61 -69q18 -36 18 -69v-9q-3 -38 -22 -74q-36 -68 -120 -68q-45 0 -103 19q-119 39 -221 39q-137 0 -216 -107.5t-79 -298.5q0 -194 85 -293.5t224 -99.5q152 0 238 58v153h-131q-83 0 -123.5 35 t-40.5 98q0 133 164 133h243q84 0 129 -30.5t45 -118.5v-332q0 -134 -98 -201q-74 -52 -193 -87t-259 -35q-329 0 -500.5 194t-171.5 531z" />
<glyph unicode="H" horiz-adv-x="1503" d="M147 186v1041q0 81 48.5 133.5t136.5 52.5t136 -52.5t48 -133.5v-340h471v340q0 81 49 133.5t138 52.5q87 0 134.5 -52t47.5 -134v-1041q0 -83 -47 -134.5t-135 -51.5q-89 0 -138 51.5t-49 134.5v373h-471v-373q0 -83 -48 -134.5t-136 -51.5t-136.5 52t-48.5 134z" />
<glyph unicode="I" horiz-adv-x="663" d="M147 186v1041q0 81 48.5 133.5t136.5 52.5t136 -52.5t48 -133.5v-1041q0 -83 -48 -134.5t-136 -51.5t-136.5 52t-48.5 134z" />
<glyph unicode="J" horiz-adv-x="942" d="M18 266q15 39 48 59q32 19 63 19h5q34 -2 67 -8q6 -2 38 -11t54 -13.5t41 -4.5q98 0 98 101v819q0 81 49.5 133.5t134.5 52.5t135 -53t50 -133v-842q0 -194 -109.5 -299.5t-308.5 -105.5q-169 0 -274 59q-62 34 -90 97q-14 31 -14 65q0 32 13 65z" />
<glyph unicode="K" horiz-adv-x="1320" d="M147 186v1041q0 81 48.5 133.5t136.5 52.5t136 -52.5t48 -133.5v-439l385 521q59 81 133 98q18 4 35 4q56 0 109 -41q58 -49 58 -121q0 -77 -60 -151l-299 -367l348 -403q62 -70 62 -149q0 -76 -62 -132q-60 -48 -118 -48q-13 0 -27 3q-72 14 -134 90l-430 535v-441 q0 -83 -48 -134.5t-136 -51.5t-136.5 52t-48.5 134z" />
<glyph unicode="L" horiz-adv-x="1159" d="M147 186v1041q0 82 48 134t137 52q88 0 136 -52.5t48 -133.5v-899h465q84 0 131 -44t47 -118q0 -78 -47 -122t-131 -44h-655q-83 0 -131 53.5t-48 132.5z" />
<glyph unicode="M" horiz-adv-x="1662" d="M147 186v1041q0 80 43 133t129 53q118 0 183 -108l338 -531l329 531q65 108 174 108q84 0 128.5 -50t44.5 -136v-1041q0 -83 -48 -134.5t-137 -51.5q-88 0 -136 51.5t-48 134.5v574l-156 -271q-60 -102 -170 -102q-100 0 -166 100l-163 252v-553q0 -83 -41 -134.5 t-132 -51.5q-89 0 -130.5 52t-41.5 134z" />
<glyph unicode="N" horiz-adv-x="1501" d="M147 186v1041q0 81 39 133.5t129 52.5q101 0 174 -98l525 -697v609q0 82 40.5 134t129.5 52q90 0 130 -52t40 -134v-1041q0 -85 -45.5 -135.5t-126.5 -50.5q-91 0 -160 90l-535 674v-578q0 -83 -40.5 -134.5t-131.5 -51.5q-89 0 -128.5 51.5t-39.5 134.5z" />
<glyph unicode="O" horiz-adv-x="1531" d="M74 707q0 155 45 287t130 230.5t217.5 154t299.5 55.5t299.5 -55.5t217.5 -154t130 -230.5t45 -287t-45 -287t-130 -230.5t-217.5 -154t-299.5 -55.5t-299.5 55.5t-217.5 154t-130 230.5t-45 287zM463 707q0 -115 31 -203t100.5 -142.5t171.5 -54.5t171.5 54.5 t100.5 142.5t31 203t-31 203t-100.5 142t-171.5 54t-171.5 -54t-100.5 -142t-31 -203z" />
<glyph unicode="P" horiz-adv-x="1259" d="M145 186v1004q0 171 164 205q137 28 334 28q100 0 186 -18t158 -56.5t122.5 -95t79 -137.5t28.5 -180q0 -101 -29.5 -184.5t-81 -142t-123.5 -98.5t-156.5 -58.5t-179.5 -18.5q-68 0 -133 10v-258q0 -83 -48 -134.5t-136 -51.5t-136.5 52t-48.5 134zM514 758 q47 -6 115 -6q91 0 144.5 45.5t53.5 138.5q0 83 -50 126.5t-142 43.5q-75 0 -121 -6v-342z" />
<glyph unicode="Q" horiz-adv-x="1533" d="M74 707q0 155 45 287t130 230.5t217.5 154t299.5 55.5t299.5 -55.5t217.5 -154t130 -230.5t45 -287q0 -312 -168 -510q10 -8 37 -29.5t43 -32.5q63 -50 63 -107q0 -40 -30 -83q-26 -38 -76 -48q-15 -3 -30 -3q-34 0 -66 16q-91 50 -178 121q-130 -51 -287 -51 q-167 0 -299.5 55.5t-217.5 154t-130 230.5t-45 287zM463 707q0 -116 31 -206t100.5 -147t171.5 -57q25 0 35 2q-46 72 -56 96q-15 29 -15 61q0 20 6 41q14 56 65 81q25 14 55 14q16 0 32 -4q50 -11 85 -56q34 -46 51 -65q45 99 45 240q0 115 -31 203t-100.5 142t-171.5 54 t-171.5 -54t-100.5 -142t-31 -203z" />
<glyph unicode="R" horiz-adv-x="1292" d="M145 186v1014q0 178 166 203q129 20 338 20q169 0 292 -45t196 -146.5t73 -252.5q0 -270 -225 -383l201 -297q37 -56 37 -119q1 -14 -1 -28q-10 -78 -71 -119q-45 -31 -101 -31q-24 0 -50 6q-86 20 -128 96l-239 431q-65 0 -119 4v-353q0 -83 -48 -134.5t-136 -51.5 t-136.5 52t-48.5 134zM514 793q29 -2 107 -2q200 0 200 159q0 146 -198 146q-65 0 -109 -9v-294z" />
<glyph unicode="S" horiz-adv-x="1175" d="M72 190q-14 34 -14 66q0 37 18 72q27 62 85 78q21 6 44 5q41 0 90 -18q10 -3 60.5 -21.5t65.5 -23t53 -15t68.5 -13.5t65.5 -3q140 0 140 84q0 31 -28.5 57.5t-75.5 45.5t-107 43t-122 48t-122 62.5t-107 85t-75.5 117.5t-28.5 158q0 194 132.5 305t367.5 111 q222 0 379 -91q73 -43 97 -111q11 -31 11 -59q0 -34 -16 -65q-15 -33 -38.5 -53t-49 -27t-58 -5t-59.5 8.5t-60 17.5q-135 47 -231 47q-104 0 -104 -66q0 -27 22.5 -50t61 -41.5t88.5 -37t105 -40t109.5 -47t104.5 -61.5t88.5 -80t61 -107t22.5 -138q0 -208 -130 -328 t-400 -120q-240 0 -400 88q-85 48 -114 122z" />
<glyph unicode="T" horiz-adv-x="1273" d="M0 1251q0 78 47.5 120t132.5 42h914q85 0 132.5 -42t47.5 -120q0 -75 -48 -120.5t-132 -45.5h-273v-899q0 -81 -48 -133.5t-136 -52.5q-89 0 -136.5 52t-47.5 134v899h-273q-84 0 -132 45.5t-48 120.5z" />
<glyph unicode="U" horiz-adv-x="1413" d="M135 578v649q0 82 47.5 134t134.5 52q88 0 137.5 -52.5t49.5 -133.5v-676q0 -111 54 -177.5t159 -66.5q104 0 158.5 67t54.5 177v676q0 83 44.5 134.5t131.5 51.5q86 0 129 -51.5t43 -134.5v-649q0 -103 -18 -189.5t-59.5 -163.5t-106 -130t-162.5 -84t-223 -31 t-223.5 31t-163.5 84.5t-107.5 130t-61 163.5t-18.5 189z" />
<glyph unicode="V" horiz-adv-x="1298" d="M18 1235q0 49 26 93q26 46 79 67q43 17 81 17q40 0 74 -18q66 -36 101 -128l289 -750l270 741q57 158 168 157q37 0 80 -17q46 -19 68 -58q21 -37 21 -80q-1 -3 -1 -6q-2 -47 -21 -100l-424 -1040q-55 -133 -182 -133q-69 0 -110.5 30t-67.5 92l-430 1031q-21 50 -21 102 z" />
<glyph unicode="W" horiz-adv-x="1751" d="M46 1236.5q0 35.5 11 71t42 62.5t79 37q31 7 58 7q52 0 90 -26q56 -40 75 -128l156 -687l156 517q44 143 176 143q70 0 112.5 -40.5t59.5 -100.5l156 -525l157 670q24 105 74 145q38 30 97 31q21 0 44 -4q127 -27 127 -152q0 -44 -16 -100l-293 -1032q-43 -145 -174 -145 q-66 0 -109 34.5t-67 110.5l-187 573l-190 -571q-51 -147 -168 -147q-142 0 -184 151l-273 1034q-9 36 -9 71.5z" />
<glyph unicode="X" horiz-adv-x="1277" d="M42 190q10 42 40 84l342 445l-311 387q-31 41 -43 88q-5 21 -5 42q1 28 9 54q14 48 57 82q50 42 105 42h2q54 0 96 -27t72 -72l245 -328l240 322q33 47 71 73q36 26 84 30q4 0 9 1q43 0 86 -35q43 -32 57 -76q7 -23 8 -45q0 -21 -6 -41q-12 -42 -45 -86l-305 -389 l346 -440q30 -44 38 -92q3 -16 3 -32q-1 -31 -11 -62q-16 -46 -59 -78q-55 -38 -107 -38q-18 1 -36 5q-69 18 -117 86l-282 377l-269 -369q-22 -32 -47 -54t-57 -35q-24 -10 -51 -10q-7 0 -17 1q-38 4 -78 27q-42 33 -58 77q-9 26 -10 52q0 17 4 34z" />
<glyph unicode="Y" horiz-adv-x="1247" d="M34 1205q-2 16 -2 31q0 33 12 66q17 49 62 78q50 33 96 33h8q50 -3 90 -30.5t73 -77.5l262 -385l248 376q54 83 121 106q23 9 47 9q44 0 92 -29q41 -26 57 -68q10 -27 10 -55q0 -16 -4 -31q-8 -45 -35 -87l-366 -531v-424q0 -83 -48 -134.5t-136 -51.5t-136.5 52 t-48.5 134v416l-366 516q-27 39 -36 87z" />
<glyph unicode="Z" horiz-adv-x="1206" d="M46 210q10 54 40 99l596 776h-444q-84 0 -132.5 45.5t-48.5 120.5q0 77 48 119.5t133 42.5h716q92 1 142 -45q49 -44 50 -109q0 -68 -48 -135l-609 -796h492q84 0 131 -44t47 -122q0 -74 -48 -118t-132 -44h-752q-72 0 -118.5 31.5t-59.5 78.5q-8 27 -8 56q1 21 5 44z " />
<glyph unicode="[" horiz-adv-x="753" d="M156 31v1351q0 76 40 125t128 49h221q76 0 121 -37t45 -106q0 -73 -44.5 -108t-121.5 -35h-62v-1127h62q76 0 121 -37t45 -106q0 -72 -44.5 -107.5t-121.5 -35.5h-217q-83 0 -127.5 48.5t-44.5 125.5z" />
<glyph unicode="\" horiz-adv-x="890" d="M33.5 1509.5q-1.5 40.5 21 73.5t66.5 47q67 22 113.5 -8.5t68.5 -93.5l543 -1553q12 -40 12 -77.5t-23.5 -69.5t-66.5 -45q-64 -18 -111 9t-71 93l-537 1538q-14 46 -15.5 86.5z" />
<glyph unicode="]" horiz-adv-x="753" d="M43 0q0 69 45 106t121 37h61v1127h-61q-77 0 -121.5 35t-44.5 108q0 69 45 106t121 37h221q88 0 128 -49t40 -125v-1351q0 -77 -44.5 -125.5t-127.5 -48.5h-217q-77 0 -121.5 35.5t-44.5 107.5z" />
<glyph unicode="^" horiz-adv-x="1210" d="M92.5 777.5q-10.5 40.5 3 80.5t43.5 80l303 397q37 49 72 74t88 25q37 0 70 -16.5t50.5 -34t39.5 -46.5l311 -389q28 -34 39 -74.5t-1.5 -84t-51.5 -74.5q-43 -36 -90.5 -35.5t-88.5 28t-79 76.5l-211 275l-215 -279q-24 -31 -49 -53t-55 -35.5t-63 -9.5t-65 27 q-40 28 -50.5 68.5z" />
<glyph unicode="_" horiz-adv-x="1417" d="M106 -180q0 70 46.5 111.5t119.5 41.5h873q74 0 120 -41.5t46 -111.5q0 -73 -45.5 -113.5t-120.5 -40.5h-873q-74 0 -120 40.5t-46 113.5z" />
<glyph unicode="`" horiz-adv-x="651" d="M91 1374.5q3 31.5 22 61.5q62 100 188 20l182 -119q120 -79 58 -178q-29 -47 -78 -54.5t-113 30.5l-186 116q-40 25 -58 58.5t-15 65z" />
<glyph unicode="a" horiz-adv-x="1062" d="M41 279q0 89 33.5 155t93.5 104t135.5 56t167.5 18q36 0 76 -3.5t62 -6.5l22 -4v53q0 49 -30 73t-112 24q-44 0 -122 -16.5t-105 -20.5q-18 -3 -34 -3q-83 0 -105 76q-7 24 -7 46q0 89 117 143q111 51 306 51q206 0 312.5 -107.5t106.5 -291.5v-451q0 -76 -42 -125 t-125 -49q-111 0 -156 92q-92 -112 -268 -112q-157 0 -241.5 80.5t-84.5 218.5zM379 322q0 -38 26.5 -62t71.5 -24q60 0 107 38.5t47 100.5v49q-57 10 -111 10q-141 0 -141 -112z" />
<glyph unicode="b" horiz-adv-x="1150" d="M115 172v1067q0 77 45.5 125.5t128.5 48.5q82 0 128 -49t46 -125v-317q90 102 252 102q182 0 278.5 -134t96.5 -355q0 -257 -116 -406t-333 -149q-67 0 -137 13.5t-105 41.5q-51 -35 -110 -35q-83 0 -128.5 49t-45.5 123zM463 279q56 -23 127 -23q68 0 104.5 77.5 t36.5 209.5q0 94 -28 144t-82 50q-154 0 -158 -268v-190z" />
<glyph unicode="c" horiz-adv-x="964" d="M61 498q0 244 136 385t358 141q170 0 268 -55q84 -48 84 -131q0 -25 -8 -54q-17 -56 -62 -74q-26 -11 -64 -11q-29 0 -64 6q-78 12 -117 12q-172 0 -172 -225q0 -99 48 -152t118 -53q15 0 29.5 1.5t33.5 7.5t26 8t32.5 11.5t27.5 10.5q43 15 77 15q69 0 106 -60 q18 -27 18 -62q0 -19 -5 -40q-15 -61 -69 -105q-114 -94 -317 -94q-219 0 -351.5 135t-132.5 383z" />
<glyph unicode="d" horiz-adv-x="1150" d="M61 481q0 251 115.5 397t333.5 146q42 0 97.5 -8t80.5 -17v240q0 77 45.5 125.5t128.5 48.5q82 0 128 -49t46 -125v-1067q0 -76 -47 -124t-127 -48q-116 0 -157 94q-86 -114 -265 -114q-171 0 -275 130.5t-104 370.5zM420 475q0 -100 29.5 -154.5t85.5 -54.5q79 0 115 75 t38 194v190q-56 23 -123 23q-69 0 -107 -70t-38 -203z" />
<glyph unicode="e" horiz-adv-x="1064" d="M61 506q0 242 138.5 380t357.5 138q204 0 331.5 -113t127.5 -313q0 -44 -8 -80q-26 -115 -168 -115h-434q7 -74 57.5 -115.5t126.5 -41.5q23 0 44 2.5t42 8.5t34.5 10t35.5 12.5t30 11.5q41 15 74 15q65 0 98 -58q16 -32 16 -67q0 -31 -19 -64q-20 -36 -58 -60 q-68 -44 -142.5 -60.5t-181.5 -16.5q-226 0 -364 138.5t-138 387.5zM403 588h291q4 24 4 47q0 53 -34 88t-97 35q-71 0 -114.5 -43.5t-49.5 -126.5z" />
<glyph unicode="f" horiz-adv-x="718" d="M117 -256v1243q0 215 84 320q47 60 128.5 93.5t176.5 33.5q158 0 250 -52q85 -49 85 -129q0 -21 -5 -43q-15 -61 -64 -81q-25 -10 -56 -10q-29 0 -63 9q-78 19 -118 19q-36 0 -57 -21t-21 -61v-61h112q164 0 164 -144q0 -143 -164 -143h-112v-973q0 -77 -43.5 -125.5 t-126.5 -48.5q-82 0 -126 48.5t-44 125.5z" />
<glyph unicode="g" horiz-adv-x="1101" d="M33 -141q0 144 143 223q-98 64 -98 166q0 110 106 192q-90 93 -90 234q0 164 113 257t325 93q91 0 173 -20h235q152 0 152 -115q0 -109 -138 -115q17 -70 17 -100q0 -160 -116 -254t-323 -94q-94 0 -167 18q-37 -24 -37 -55q0 -35 62 -50.5t231 -19.5q205 -5 315.5 -69.5 t110.5 -206.5q0 -166 -138.5 -269.5t-390.5 -103.5q-236 0 -360.5 82t-124.5 207zM336 -78q0 -41 48.5 -63.5t133.5 -22.5q105 0 153 20t48 64q0 39 -45 54t-152 22q-117 10 -127 12q-59 -40 -59 -86zM395 674q0 -49 38 -75t99 -26t99.5 26t38.5 75q0 50 -38 76t-100 26 t-99.5 -26t-37.5 -76z" />
<glyph unicode="h" horiz-adv-x="1169" d="M115 174v1067q0 74 46 123t128 49q83 0 128.5 -49t45.5 -123v-311q40 41 106 67.5t140 26.5q188 0 272 -112t84 -328v-410q0 -77 -46 -125.5t-128 -48.5q-81 0 -127.5 48.5t-46.5 125.5v426q0 57 -27 92t-72 35q-47 0 -79 -24t-48 -70t-22 -96.5t-6 -118.5v-244 q0 -79 -45.5 -126.5t-128.5 -47.5q-82 0 -128 48.5t-46 125.5z" />
<glyph unicode="i" horiz-adv-x="548" d="M92 1270q0 77 49 120.5t133 43.5q81 0 132 -44t51 -120q0 -79 -50.5 -121.5t-132.5 -42.5q-85 0 -133.5 42t-48.5 122zM100 174v657q0 74 46 123.5t128 49.5q83 0 129 -49.5t46 -123.5v-657q0 -77 -46 -125.5t-129 -48.5q-82 0 -128 49t-46 125z" />
<glyph unicode="j" horiz-adv-x="544" d="M-242 -195q-5 -22 -5 -44q0 -36 15 -69q24 -51 89 -81q89 -41 211 -41q185 0 278.5 104.5t93.5 294.5v862q0 74 -45.5 123.5t-128.5 49.5q-82 0 -128 -49.5t-46 -123.5v-866q0 -88 -72 -88q-17 0 -104 17q-23 4 -42 4q-95 0 -116 -93zM82 1270q0 77 49 120.5t133 43.5 q81 0 131.5 -43.5t50.5 -120.5q0 -79 -50 -121.5t-132 -42.5q-85 0 -133.5 42t-48.5 122z" />
<glyph unicode="k" horiz-adv-x="1077" d="M115 174v1067q0 74 44.5 123t125.5 49q82 0 126 -48.5t44 -123.5v-653l254 319q60 82 133 95q15 3 28 3q55 0 99 -42q50 -43 50 -106q0 -59 -52 -124l-176 -209l198 -233q51 -62 51 -128v-5q-2 -69 -53 -111q-56 -48 -116 -48q-14 1 -27 3q-74 14 -131 96l-258 340v-264 q0 -77 -43.5 -125.5t-126.5 -48.5q-82 0 -126 48.5t-44 125.5z" />
<glyph unicode="l" horiz-adv-x="774" d="M111 348v893q0 74 46 123t128 49q83 0 128.5 -49t45.5 -123v-872q0 -82 78 -82q15 0 32 2.5t27 5t26 7t19 5.5q28 9 54 9q23 0 45 -8q44 -17 63 -66q11 -29 11 -57q0 -31 -14 -61q-26 -56 -89 -93q-87 -51 -246 -51q-76 0 -138 20.5t-111.5 63t-77 115t-27.5 169.5z" />
<glyph unicode="m" horiz-adv-x="1685" d="M111 174v657q0 76 46 124.5t124 48.5q53 0 94 -27t59 -78q39 53 112 89t148 36q201 0 271 -131q42 54 118.5 92.5t167.5 38.5q92 0 156.5 -29.5t102.5 -88t54.5 -137t16.5 -185.5v-410q0 -78 -44 -126t-126 -48q-81 0 -125.5 48t-44.5 126v436q0 58 -23 92.5t-65 34.5 q-30 0 -52.5 -10t-37 -30t-24.5 -44.5t-14.5 -60t-6.5 -69.5t-2 -79v-270q0 -78 -44 -126t-126 -48q-81 0 -125.5 48t-44.5 126v440q0 57 -22 90t-60 33q-42 0 -71 -21.5t-44 -63t-21.5 -91t-6.5 -115.5v-272q0 -79 -44 -126.5t-126 -47.5t-126 48t-44 126z" />
<glyph unicode="n" horiz-adv-x="1165" d="M111 174v657q0 76 47.5 124.5t126.5 48.5q111 0 157 -93q43 48 112.5 80.5t147.5 32.5q189 0 274 -112.5t85 -327.5v-410q0 -77 -46 -125.5t-128 -48.5q-81 0 -127.5 48.5t-46.5 125.5v426q0 57 -27 92t-72 35q-47 0 -79 -23.5t-48 -68.5t-22 -95t-6 -118v-248 q0 -79 -45.5 -126.5t-128.5 -47.5q-82 0 -128 48.5t-46 125.5z" />
<glyph unicode="o" horiz-adv-x="1122" d="M59 502q0 235 134.5 378.5t367.5 143.5t367.5 -144t134.5 -378q0 -235 -134.5 -378.5t-367.5 -143.5t-367.5 143.5t-134.5 378.5zM418 502q0 -63 13 -114t46.5 -86.5t83.5 -35.5q144 0 144 236q0 235 -144 235q-40 0 -69 -20t-44.5 -54.5t-22.5 -74t-7 -86.5z" />
<glyph unicode="p" horiz-adv-x="1150" d="M115 -256v1087q0 77 47 125t127 48q115 0 157 -95q96 115 265 115q172 0 275.5 -126.5t103.5 -365.5q0 -252 -116 -402t-333 -150q-43 0 -98 7.5t-80 16.5v-260q0 -77 -45.5 -125.5t-128.5 -48.5q-82 0 -128 49t-46 125zM463 279q56 -23 123 -23q145 0 145 272 q0 99 -28.5 154t-81.5 55q-154 0 -158 -268v-190z" />
<glyph unicode="q" horiz-adv-x="1150" d="M61 471q0 259 114 406t335 147q164 0 242 -55q51 35 110 35q83 0 128.5 -49.5t45.5 -123.5v-1087q0 -77 -45.5 -125.5t-128.5 -48.5q-82 0 -128 49t-46 125v330q-33 -42 -98 -68t-141 -26q-183 0 -285.5 135.5t-102.5 355.5zM420 461q0 -94 29 -144.5t83 -50.5 q152 0 156 269v190q-56 23 -127 23q-141 0 -141 -287z" />
<glyph unicode="r" horiz-adv-x="845" d="M111 174v657q0 78 46.5 125.5t127.5 47.5t135 -58q32 37 85.5 57.5t100.5 20.5q102 0 158 -37q59 -37 79 -99q9 -29 9 -56q0 -31 -12 -58q-21 -56 -72 -76q-25 -10 -54 -10t-61 10q-62 17 -94 17q-45 0 -70 -35q-19 -26 -24.5 -72t-5.5 -143v-291q0 -77 -46 -125.5 t-128 -48.5t-128 48.5t-46 125.5z" />
<glyph unicode="s" horiz-adv-x="927" d="M51 150q-7 21 -7 43q0 31 15 63q32 66 104 66q46 0 107 -27q111 -49 191 -49q35 0 49 12t14 35q0 20 -25 38t-65 34t-88 34.5t-96 45t-88 60t-65 86t-25 116.5q0 155 106 236t283 81q184 0 295 -70q88 -55 88 -128q0 -22 -8 -46q-28 -79 -110 -79q-32 0 -71 12 q-8 2 -49.5 15.5t-74 21.5t-56.5 8q-55 0 -55 -41q0 -20 25 -37.5t65 -32t88 -32t96 -42.5t88 -58t65 -84.5t25 -115.5q0 -155 -103 -245t-320 -90q-80 0 -170.5 19t-149.5 58q-60 41 -78 93z" />
<glyph unicode="t" horiz-adv-x="811" d="M111 348v729q0 74 46 123t128 49q83 0 128.5 -49t45.5 -123v-73h88q164 0 164 -144q0 -143 -164 -143h-88v-348q0 -82 78 -82q15 0 32 2.5t27 5t26 7t19 5.5q28 9 54 9q23 0 45 -8q44 -17 63 -66q11 -29 11 -57q0 -31 -14 -61q-26 -56 -89 -93q-87 -51 -246 -51 q-76 0 -138 20.5t-111.5 63t-77 115t-27.5 169.5z" />
<glyph unicode="u" horiz-adv-x="1165" d="M104 420v409q0 77 46.5 126t128.5 49q81 0 127.5 -49t46.5 -126v-426q0 -58 26.5 -92.5t71.5 -34.5q47 0 79 24.5t48 70t22.5 96.5t6.5 119v243q0 79 45.5 127t128.5 48q82 0 128 -48.5t46 -126.5v-657q0 -76 -47.5 -124t-126.5 -48q-113 0 -158 92q-40 -49 -110 -80.5 t-152 -31.5q-188 0 -272.5 112t-84.5 328z" />
<glyph unicode="v" horiz-adv-x="1024" d="M30 834v5q0 45 24 87q26 44 79 63q37 14 71 14q38 1 72 -17q65 -34 93 -112l153 -405l154 399q52 136 151 136q33 0 72 -15q92 -37 92 -123q0 -46 -26 -106l-295 -647q-28 -64 -62.5 -98.5t-95.5 -34.5q-55 0 -91.5 28t-66.5 90l-301 641q-21 47 -23 95z" />
<glyph unicode="w" horiz-adv-x="1376" d="M42 844q0 3 -1 5q-1 44 25 85q26 43 84 59q36 10 66 10q116 0 155 -147l104 -358l74 256q16 66 51 99.5t98 33.5q109 0 142 -129l80 -260q0 -1 24.5 89t49.5 181l24 90q38 146 151 146q25 0 54 -7q53 -13 81 -47q29 -35 29 -79q0 -41 -14 -89l-225 -676 q-21 -64 -57.5 -95t-98.5 -31q-102 0 -143 129l-107 340l-104 -332q-21 -68 -56 -102.5t-92 -34.5q-65 0 -97 30t-54 96l-224 639q-17 52 -19 99z" />
<glyph unicode="x" horiz-adv-x="1026" d="M43 123q-2 15 -2 29q0 26 8 50q13 37 41 72l219 232l-188 199q-35 41 -49 85q-8 24 -7 48q-1 22 5 44q12 48 57 83q44 37 94 39q4 0 9 1q45 1 84 -23q43 -26 75 -73l135 -174l133 168q31 44 70 69.5t85 28.5h7q43 0 84 -36q39 -33 51 -75q5 -19 6 -39q0 -22 -7 -43 q-13 -40 -46 -79l-194 -199l223 -239q53 -64 53 -129q0 -71 -61 -119q-51 -43 -103 -43q-78 0 -157 96l-168 203l-158 -205q-31 -43 -72 -70q-38 -25 -84 -25q-4 1 -9 1q-52 2 -95 47q-32 34 -39 76z" />
<glyph unicode="y" horiz-adv-x="1013" d="M-26 -308q-10 26 -10 53q0 30 13 62q30 75 107 75q17 0 35 -3l43 -11q43 -11 71 -11q46 0 72.5 32.5t59.5 108.5l-342 745q-22 49 -22 98q0 46 25 86q25 42 76 62q41 15 77 15q37 0 67 -16q61 -32 90 -116l176 -450q1 -1 39.5 108t76.5 218l38 110q46 148 155 148 q30 0 64 -11q40 -12 62.5 -39t26.5 -62q3 -16 3 -32q0 -18 -3 -36q-5 -34 -18 -68l-309 -764q-92 -237 -182.5 -330.5t-226.5 -93.5q-108 0 -177 35q-64 32 -87 87z" />
<glyph unicode="z" horiz-adv-x="956" d="M46 190q10 48 42 84l414 443h-285q-164 0 -164 143q0 144 164 144h504q89 0 135 -46q42 -41 43 -98q-1 -6 -1 -12q-4 -64 -50 -123l-387 -438h284q164 0 164 -144q0 -143 -164 -143h-532q-63 0 -106 29.5t-57 71.5q-8 25 -8 52q0 18 4 37z" />
<glyph unicode="{" horiz-adv-x="772" d="M45 707q0 69 51 129q3 4 17.5 20t19 23.5t13.5 22t12.5 30t3.5 33.5v270q0 152 76 247t229 95q105 0 170 -35q55 -28 78 -76.5t10 -97.5q-14 -54 -50 -76.5t-77 -15.5q-12 2 -33.5 8t-34.5 6q-49 0 -49 -53v-301q0 -171 -133 -229q133 -58 133 -230v-301q0 -53 49 -53 q13 0 34.5 6t33.5 8q41 7 77 -15.5t50 -76.5q13 -49 -10 -97.5t-78 -76.5q-65 -35 -170 -35q-153 0 -229 95t-76 247v271q0 18 -3.5 33.5t-12.5 30t-13.5 22t-19 23.5t-17.5 20q-51 60 -51 129z" />
<glyph unicode="|" horiz-adv-x="583" d="M154 -84v1581q0 62 36 101.5t103 39.5t102 -39t35 -102v-1581q0 -63 -35 -102t-102 -39t-103 39.5t-36 101.5z" />
<glyph unicode="}" horiz-adv-x="772" d="M47 45q14 54 50 76.5t77 15.5q12 -2 33.5 -8t34.5 -6q49 0 49 53v301q0 172 133 230q-133 58 -133 229v301q0 53 -49 53q-13 0 -34.5 -6t-33.5 -8q-41 -7 -77 15.5t-50 76.5q-13 49 10 97.5t78 76.5q65 35 170 35q153 0 229 -95t76 -247v-270q0 -18 3.5 -33.5t12.5 -30 t13.5 -22t19 -23.5t17.5 -20q51 -60 51 -129t-51 -129q-3 -4 -17.5 -20t-19 -23.5t-13.5 -22t-12.5 -30t-3.5 -33.5v-271q0 -152 -76 -247t-229 -95q-105 0 -170 35q-55 28 -78 76.5t-10 97.5z" />
<glyph unicode="~" horiz-adv-x="1120" d="M120.5 544q-8.5 36 4.5 79t47 77q49 50 111.5 76.5t122.5 26.5q64 0 170.5 -35t136.5 -35q33 0 73 27q106 79 183 4q40 -39 35 -98t-54 -113q-47 -51 -110.5 -77.5t-124.5 -26.5q-55 0 -158.5 35.5t-144.5 35.5q-36 0 -86 -31q-101 -67 -172 -4q-25 23 -33.5 59z" />
<glyph unicode="&#xa2;" horiz-adv-x="1007" d="M74 498q0 196 89.5 327t246.5 176v46q0 76 39.5 125t123.5 49t124 -49t40 -125v-41q53 -11 99 -37q108 -62 75 -185q-17 -56 -62 -74.5t-128 -4.5q-78 12 -117 12q-172 0 -172 -225q0 -99 48 -152t118 -53q13 0 27 2t24 4t26.5 7t23 7.5t25.5 9.5t24 9q126 46 182 -45 q28 -41 13 -102t-69 -105q-62 -49 -137 -72v-45q0 -76 -40 -125t-124 -49t-123.5 49t-39.5 125v41q-157 41 -246.5 168.5t-89.5 331.5z" />
<glyph unicode="&#xa3;" horiz-adv-x="1169" d="M82 616q0 60 34.5 94t96.5 42q-59 133 -59 249q0 207 132 320t353 113q219 0 354 -97q41 -30 60.5 -68t18 -73.5t-18.5 -71.5q-16 -33 -41 -50.5t-58.5 -19t-65.5 4.5t-75 20q-86 27 -168 27q-60 0 -91.5 -36t-31.5 -93q0 -100 74 -223h174q75 0 120.5 -35t45.5 -103 q0 -72 -44.5 -105.5t-121.5 -33.5h-98q0 -56 -15.5 -102t-40.5 -68h324q75 0 120.5 -41t45.5 -112q0 -73 -45.5 -113.5t-120.5 -40.5h-684q-75 0 -120.5 40.5t-45.5 113.5q0 71 45.5 112t120.5 41q34 0 62 28t28 79q0 30 -10 63h-88q-166 0 -166 139z" />
<glyph unicode="&#xa5;" horiz-adv-x="1198" d="M55.5 1207.5q-10.5 45.5 6.5 94t69 80.5q56 36 105.5 30t85.5 -35t63 -79l229 -393l207 383q44 87 106.5 113t143.5 -19q44 -26 60 -67t7.5 -84.5t-36.5 -91.5l-299 -482h108q61 0 88 -22t27 -70q0 -92 -115 -92h-135v-74h135q61 0 88 -22t27 -70q0 -92 -115 -92h-135 v-29q0 -84 -44.5 -135t-131.5 -51t-131.5 51t-44.5 135v29h-133q-115 0 -115 92q0 48 27 70t88 22h133v74h-133q-115 0 -115 92q0 48 27 70t88 22h98l-295 459q-28 46 -38.5 91.5z" />
<glyph unicode="&#xa8;" horiz-adv-x="966" d="M90 1270q0 78 44.5 121t127.5 43q80 0 126 -43.5t46 -120.5q0 -80 -45.5 -122t-126.5 -42q-84 0 -128 41.5t-44 122.5zM532 1270q0 78 45 121t128 43q80 0 126 -43.5t46 -120.5q0 -80 -45.5 -122t-126.5 -42q-84 0 -128.5 41.5t-44.5 122.5z" />
<glyph unicode="&#xa9;" horiz-adv-x="1609" d="M78 707q0 214 86.5 378t251.5 256.5t387 92.5t388 -92.5t253.5 -256.5t87.5 -378t-87 -378t-253 -256.5t-389 -92.5q-222 0 -387 92.5t-251.5 256.5t-86.5 378zM313 707q0 -235 134.5 -368.5t355.5 -133.5t357 133.5t136 368.5t-136 368t-357 133t-355.5 -133 t-134.5 -368zM436 705q0 196 108.5 305.5t286.5 109.5q134 0 207 -61q35 -29 43.5 -72.5t-6.5 -77.5q-18 -44 -50 -59.5t-95 -3.5q-40 8 -78 8q-98 0 -98 -149q0 -144 94 -144q31 0 82 19q54 20 88 13t63 -44q27 -33 22.5 -81.5t-40.5 -88.5q-35 -41 -98 -62.5t-134 -21.5 q-192 0 -293.5 109.5t-101.5 300.5z" />
<glyph unicode="&#xab;" horiz-adv-x="1290" d="M65.5 507q1.5 72 63.5 132l258 248q55 57 122.5 60.5t121.5 -50.5q49 -55 39.5 -116t-68.5 -119l-168 -154l172 -156q57 -57 65 -124t-46 -122q-55 -47 -119.5 -39t-116.5 58l-264 248q-61 62 -59.5 134zM600 506.5q2 71.5 64 132.5l258 248q55 57 122 60.5t121 -50.5 q49 -54 40 -116t-68 -119l-168 -154l172 -156q57 -57 64.5 -124t-46.5 -122q-55 -47 -119 -39t-116 58l-265 248q-61 62 -59 133.5z" />
<glyph unicode="&#xad;" horiz-adv-x="1009" d="M106 543q0 70 46.5 111.5t119.5 41.5h465q74 0 120 -41.5t46 -111.5q0 -73 -45.5 -113.5t-120.5 -40.5h-465q-74 0 -120 40.5t-46 113.5z" />
<glyph unicode="&#xae;" horiz-adv-x="1273" d="M96 891q0 247 148.5 395t392.5 148q245 0 393 -148t148 -395t-148 -395t-393 -148q-244 0 -392.5 148t-148.5 395zM332 891q0 -154 88 -236t217 -82t217 82t88 236t-88 235.5t-217 81.5t-217 -81.5t-88 -235.5zM473 713q0 -64 53 -64q54 0 54 64v104h49l84 -129 q33 -55 80 -31q22 11 24 37t-14 49l-66 99q35 16 56.5 50.5t21.5 82.5q0 68 -46.5 106.5t-129.5 38.5q-74 0 -117 -14q-49 -17 -49 -78v-315zM580 903v119q18 6 59 6q30 0 46.5 -15t16.5 -42q0 -34 -17 -51t-46 -17h-59z" />
<glyph unicode="&#xb4;" horiz-adv-x="649" d="M109 1157q-61 105 55 180l182 117q64 38 111.5 31t77.5 -53q18 -28 21 -58t-15.5 -63.5t-59.5 -59.5l-182 -116q-57 -37 -109.5 -31t-80.5 53z" />
<glyph unicode="&#xb8;" horiz-adv-x="741" d="M97.5 -411q-13.5 29 0.5 63q20 44 80 26q63 -18 101 -18q77 0 77 70q0 26 -21.5 40.5t-66.5 24.5q-36 8 -46 34t-3 58l25 113q20 89 116 76q41 -6 62.5 -36t11.5 -73l-14 -61q123 1 177 -54t54 -135q0 -38 -13.5 -71.5t-44 -65.5t-88.5 -50.5t-138 -18.5q-145 0 -220 34 q-36 15 -49.5 44z" />
<glyph unicode="&#xbb;" horiz-adv-x="1290" d="M85 781q-8 67 46 122q55 47 119.5 39.5t116.5 -57.5l264 -248q61 -62 59.5 -134t-63.5 -132l-258 -248q-55 -57 -122.5 -60.5t-121.5 50.5q-49 55 -39.5 116t68.5 119l168 154l-172 155q-57 57 -65 124zM619.5 229q9.5 61 68.5 119l168 154l-172 155q-57 57 -64.5 124 t46.5 122q55 47 119 39.5t116 -57.5l264 -248q61 -62 59.5 -134t-63.5 -132l-258 -248q-55 -57 -122.5 -60.5t-121.5 50.5q-49 55 -39.5 116z" />
<glyph unicode="&#x2c6;" horiz-adv-x="882" d="M113 1133q-61 88 45 163l192 140q88 66 180 4l193 -131q55 -39 66.5 -86t-19.5 -86q-32 -45 -80.5 -45t-97.5 36l-158 111l-153 -111q-61 -38 -102.5 -34t-65.5 39z" />
<glyph unicode="&#x2da;" horiz-adv-x="671" d="M90 1288q0 100 66.5 151.5t179.5 51.5t179.5 -51.5t66.5 -151.5q0 -99 -66.5 -150t-179.5 -51q-112 0 -179 51t-67 150zM254 1288q0 -33 23 -50t59 -17t59 17t23 50q0 34 -23 52t-59 18t-59 -18t-23 -52z" />
<glyph unicode="&#x2dc;" horiz-adv-x="937" d="M92 1213q3 55 47 98q85 88 199 88q53 0 103.5 -16.5t88 -33t60.5 -16.5q28 0 67 27q29 22 53.5 31t51.5 4t53 -29q35 -34 30.5 -80t-46.5 -94q-43 -44 -97.5 -68t-105.5 -24q-60 0 -139 32.5t-113 32.5q-30 0 -78 -32q-28 -18 -50 -25.5t-46 -3t-47 25.5q-34 28 -31 83z " />
<glyph unicode="&#x401;" d="M147 186v1041q0 81 48.5 133.5t136.5 52.5h651q85 0 132.5 -43t47.5 -121q0 -74 -48 -119t-132 -45h-467v-204h363q85 0 132.5 -43t47.5 -121q0 -74 -48 -119t-132 -45h-363v-225h485q85 0 133 -43t48 -121q0 -74 -48.5 -119t-132.5 -45h-669q-88 0 -136.5 52t-48.5 134z M197 1599q0 73 57 107.5t145 34.5q91 0 148 -34.5t57 -107.5t-56.5 -106t-148.5 -33q-89 0 -145.5 33t-56.5 106zM668 1599q0 73 56.5 107.5t145.5 34.5q90 0 147.5 -34.5t57.5 -107.5t-57 -106t-148 -33q-90 0 -146 33t-56 106z" />
<glyph unicode="&#x402;" horiz-adv-x="1593" d="M0 1251q0 78 47.5 120t132.5 42h897q85 0 132.5 -42t47.5 -120q0 -75 -48 -120.5t-132 -45.5h-264v-161q105 20 205 20q252 0 395 -115t143 -358q0 -244 -113 -367.5t-325 -123.5q-129 0 -196 53q-84 69 -60 170q24 104 119 100q19 -1 46 -6.5t40 -5.5q50 0 75 35.5 t25 119.5t-51 127t-145 43q-64 0 -158 -12v-418q0 -81 -48 -133.5t-136 -52.5q-89 0 -137 52t-48 134v899h-264q-84 0 -132 45.5t-48 120.5z" />
<glyph unicode="&#x403;" horiz-adv-x="1089" d="M147 186q0 -82 48 -134t137 -52q88 0 136 52.5t48 133.5v899h393q84 0 132.5 45t48.5 119q0 78 -48 121t-133 43h-583q-83 0 -131 -53.5t-48 -132.5v-1041zM489 1642.5q20 46.5 86 77.5l236 109q135 60 186 -47q24 -56 0.5 -99.5t-88.5 -70.5l-235 -105q-136 -62 -182 45 q-23 44 -3 90.5z" />
<glyph unicode="&#x404;" horiz-adv-x="1275" d="M76 705q0 334 180 531.5t481 197.5q251 0 389 -105q40 -31 57.5 -70.5t15.5 -72.5t-17 -62q-18 -36 -41.5 -54.5t-66 -23.5t-101.5 17q-5 2 -25 8.5t-27.5 9t-26.5 7.5t-32 7.5t-32.5 5.5t-40 4t-44.5 1q-101 0 -171 -63t-93 -179h336q168 0 168 -141q0 -145 -168 -145 h-342q21 -133 99.5 -202t181.5 -69q43 0 87.5 12.5t67.5 23.5t80 40q141 72 215 -21q26 -34 29 -78t-22 -94t-76 -90q-152 -120 -414 -120q-318 0 -482.5 190.5t-164.5 534.5z" />
<glyph unicode="&#x405;" horiz-adv-x="1175" d="M72 189.5q-29 73.5 4 138.5q27 61 85 77.5t134 -12.5q10 -3 60.5 -21.5t65.5 -23t53 -15t68.5 -13.5t65.5 -3q140 0 140 84q0 31 -28.5 57.5t-75.5 45.5t-107 43t-122 48t-122 62.5t-107 85t-75.5 117.5t-28.5 158q0 194 132.5 305t367.5 111q222 0 379 -91 q72 -43 96.5 -110.5t-4.5 -124.5q-15 -33 -38.5 -53t-49 -27t-58 -5t-59.5 8.5t-60 17.5q-135 47 -231 47q-104 0 -104 -66q0 -27 22.5 -50t61 -41.5t88.5 -37t105 -40t109.5 -47t104.5 -61.5t88.5 -80t61 -107t22.5 -138q0 -208 -130 -328t-400 -120q-240 0 -400 88 q-85 48 -114 121.5z" />
<glyph unicode="&#x406;" horiz-adv-x="663" d="M147 186v1041q0 81 48.5 133.5t136.5 52.5t136 -52.5t48 -133.5v-1041q0 -83 -48 -134.5t-136 -51.5t-136.5 52t-48.5 134z" />
<glyph unicode="&#x407;" horiz-adv-x="694" d="M-92 1599q0 73 57.5 107.5t145.5 34.5q91 0 147.5 -34.5t56.5 -107.5t-56 -106t-148 -33q-89 0 -146 33t-57 106zM188 186v1041q0 81 48.5 133.5t136.5 52.5t136 -52.5t48 -133.5v-1041q0 -83 -48 -134.5t-136 -51.5t-136.5 52t-48.5 134zM379 1599q0 73 56.5 107.5 t146.5 34.5t147 -34.5t57 -107.5t-57 -106t-147 -33t-146.5 33t-56.5 106z" />
<glyph unicode="&#x408;" horiz-adv-x="942" d="M18 266q15 39 48.5 59t67.5 18.5t67 -7.5q6 -2 38 -11t54 -13.5t41 -4.5q98 0 98 101v819q0 81 49.5 133.5t134.5 52.5t135 -53t50 -133v-842q0 -194 -109.5 -299.5t-308.5 -105.5q-169 0 -274 59q-62 34 -90 96.5t-1 130.5z" />
<glyph unicode="&#x409;" horiz-adv-x="2017" d="M-10 207q5 46 21.5 76.5t40.5 44t46.5 18t48.5 2.5q37 0 69.5 34t49.5 120q43 218 58 715q3 94 48.5 145t129.5 51h583q88 0 135.5 -52t47.5 -134v-293q78 10 174 10q251 0 391.5 -113.5t140.5 -351.5q0 -245 -158 -367t-434 -122q-198 0 -315 24q-89 18 -128.5 67.5 t-39.5 137.5v856h-246q-16 -594 -118 -844q-98 -241 -326 -241q-108 0 -169.5 55.5t-49.5 161.5zM1268 322q46 -5 129 -5q188 0 188 154q0 76 -47.5 110.5t-142.5 34.5q-77 0 -127 -6v-288z" />
<glyph unicode="&#x40a;" horiz-adv-x="2105" d="M147 186v1041q0 81 48.5 133.5t136.5 52.5t136 -52.5t48 -133.5v-340h471v340q0 83 48 134.5t136 51.5t136.5 -52t48.5 -134v-293q78 10 174 10q251 0 391.5 -113.5t140.5 -351.5q0 -245 -158 -367t-434 -122q-198 0 -315 24q-89 18 -128.5 67.5t-39.5 137.5v340h-471 v-373q0 -83 -48 -134.5t-136 -51.5t-136.5 52t-48.5 134zM1356 322q46 -5 129 -5q188 0 188 154q0 76 -47.5 110.5t-142.5 34.5q-77 0 -127 -6v-288z" />
<glyph unicode="&#x40b;" horiz-adv-x="1576" d="M0 1251q0 78 47.5 120t132.5 42h897q85 0 132.5 -42t47.5 -120q0 -75 -48 -120.5t-132 -45.5h-305v-184q53 31 133 48.5t148 17.5q83 0 149.5 -13.5t125.5 -48t98 -89.5t62 -143t23 -204v-283q0 -78 -49.5 -132t-136.5 -54q-86 0 -134 54t-48 132v275q0 99 -41 143.5 t-111 44.5q-125 0 -219 -59v-404q0 -82 -48.5 -134t-137.5 -52q-88 0 -135.5 52t-47.5 134v899h-223q-84 0 -132 45.5t-48 120.5z" />
<glyph unicode="&#x40c;" horiz-adv-x="1320" d="M147 186q0 -82 48.5 -134t136.5 -52t136 51.5t48 134.5v441l430 -535q62 -76 133.5 -90t145.5 45q63 57 62 134.5t-62 146.5l-348 403l299 367q58 71 60 146t-58 126q-70 54 -144 37t-133 -98l-385 -521v439q0 81 -48 133.5t-136 52.5t-136.5 -52.5t-48.5 -133.5v-1041z M478.5 1642.5q20.5 46.5 86.5 77.5l236 109q135 60 186 -47q24 -56 0.5 -99.5t-88.5 -70.5l-235 -105q-137 -62 -183 45q-23 44 -2.5 90.5z" />
<glyph unicode="&#x40e;" d="M27.5 1263.5q9.5 83.5 87.5 125.5q163 87 270 -115l291 -526l211 516q78 193 239 135q53 -19 76 -62.5t20 -91t-24 -100.5l-321 -733q-45 -106 -89.5 -182t-97.5 -134.5t-116 -87t-138 -28.5q-134 0 -221 45q-69 37 -97.5 96.5t-6.5 126.5q20 63 68.5 84t103.5 8 q9 -2 38.5 -10.5t50 -12.5t38.5 -4q61 0 98 97l-434 682q-56 88 -46.5 171.5zM274 1676q0 48 33 81q30 30 64 32t60.5 -12t60.5 -42q70 -58 153 -58q81 0 154 58q34 27 59.5 40t59.5 11.5t65 -29.5q35 -33 34 -80t-34 -86q-107 -123 -338 -123q-106 0 -197 33.5t-141 89.5 q-33 37 -33 85z" />
<glyph unicode="&#x40f;" horiz-adv-x="1456" d="M147 186v1041q0 82 48.5 134t136.5 52t136 -51.5t48 -134.5v-899h424v899q0 83 48.5 134.5t137.5 51.5q88 0 135.5 -51.5t47.5 -134.5v-1041q0 -82 -47.5 -134t-135.5 -52h-225v-113q0 -84 -42 -135t-128 -51t-128 51t-42 135v113h-229q-88 0 -136.5 52.5t-48.5 133.5z " />
<glyph unicode="&#x410;" horiz-adv-x="1312" d="M21.5 158.5q3.5 47.5 25.5 101.5l430 1040q29 71 72.5 102.5t107.5 31.5q123 0 174 -119l443 -1049q17 -48 19.5 -95.5t-23.5 -91t-76 -63.5q-85 -33 -150.5 2t-95.5 123l-78 207h-452l-64 -182q-14 -42 -34 -74.5t-51.5 -59t-71 -30t-91.5 11.5q-47 17 -67.5 57 t-17 87.5zM510 623h264l-133 340z" />
<glyph unicode="&#x411;" horiz-adv-x="1284" d="M145 211v1016q0 79 48 132.5t131 53.5h645q84 0 129 -43t45 -121q0 -75 -45.5 -119.5t-128.5 -44.5h-455v-202q79 12 180 12q124 0 219 -23t167.5 -73t110.5 -135t38 -203q0 -124 -42.5 -216.5t-120.5 -147t-179 -81t-228 -26.5q-196 0 -340 24q-174 28 -174 197z M514 293q61 -6 133 -6q93 0 143 42.5t50 114.5q0 69 -44 111.5t-130 42.5q-95 0 -152 -8v-297z" />
<glyph unicode="&#x412;" horiz-adv-x="1339" d="M145 205v1001q0 167 172 193q168 24 345 24q119 0 216.5 -21.5t173 -66t117 -119t41.5 -174.5q0 -91 -43.5 -164t-117.5 -112q110 -41 165.5 -131t55.5 -201q0 -108 -35 -189t-90 -128.5t-136 -77t-160 -39.5t-175 -10q-210 0 -361 24q-88 15 -128 62.5t-40 128.5z M494 295q66 -8 190 -8q207 0 207 149q0 73 -48 110.5t-155 37.5h-194v-289zM494 850h170q83 0 125 36t42 101q0 139 -180 139q-67 0 -157 -8v-268z" />
<glyph unicode="&#x413;" horiz-adv-x="1089" d="M147 186v1041q0 79 48 132.5t131 53.5h583q85 0 133 -43t48 -121q0 -74 -48.5 -119t-132.5 -45h-393v-899q0 -81 -48 -133.5t-136 -52.5q-89 0 -137 52t-48 134z" />
<glyph unicode="&#x414;" horiz-adv-x="1480" d="M0 -113v265q0 84 44.5 135t131.5 51h10q60 125 86.5 339.5t36.5 539.5q3 93 47.5 144t126.5 52h598q88 0 136.5 -52t48.5 -134v-889h12q81 0 122.5 -52.5t41.5 -133.5v-265q0 -83 -44.5 -134.5t-131.5 -51.5t-131.5 51.5t-44.5 134.5v113h-738v-113q0 -83 -44.5 -134.5 t-131.5 -51.5t-131.5 51.5t-44.5 134.5zM543 338h358v737h-264q-2 -162 -27.5 -368.5t-66.5 -368.5z" />
<glyph unicode="&#x415;" d="M147 186v1041q0 81 48.5 133.5t136.5 52.5h651q85 0 132.5 -43t47.5 -121q0 -74 -48 -119t-132 -45h-467v-204h363q85 0 132.5 -43t47.5 -121q0 -74 -48 -119t-132 -45h-363v-225h485q85 0 133 -43t48 -121q0 -74 -48.5 -119t-132.5 -45h-669q-88 0 -136.5 52t-48.5 134z " />
<glyph unicode="&#x416;" horiz-adv-x="1880" d="M26.5 185q2.5 79 63.5 149l344 393l-303 365q-57 69 -57.5 148.5t57.5 129.5q68 58 151.5 41t141.5 -104l352 -496v416q0 84 41 135t127 51t127 -51t41 -135v-424l354 502q57 85 135.5 102t141.5 -35q60 -44 62 -115t-52 -143l-293 -381l334 -401q42 -52 53.5 -107 t-4 -99.5t-51.5 -76.5q-57 -54 -141.5 -46.5t-137.5 79.5l-401 547v-443q0 -85 -41 -135.5t-127 -50.5t-127 50.5t-41 135.5v443l-381 -518q-37 -53 -88 -83t-110.5 -26.5t-110.5 47.5q-62 57 -59.5 136z" />
<glyph unicode="&#x417;" horiz-adv-x="1218" d="M54.5 160.5q-28.5 63.5 2.5 136.5q57 130 250 55q119 -45 234 -45q215 0 215 146q0 121 -187 127h-192q-65 0 -104.5 36.5t-39.5 100.5q0 62 40 100.5t104 38.5h162q85 0 130.5 32t45.5 93q0 125 -183 125q-88 0 -215 -43q-27 -9 -47.5 -14.5t-49 -7.5t-50 4t-43 24.5 t-35.5 48.5q-27 53 -6 116.5t86 104.5q69 43 182 69t219 26q245 0 388 -97t143 -286q0 -92 -45 -170.5t-127 -118.5q105 -40 159 -121t54 -188q0 -108 -33.5 -192t-89.5 -136t-135.5 -85.5t-163.5 -46.5t-182 -13q-236 0 -379 75q-79 42 -107.5 105.5z" />
<glyph unicode="&#x418;" horiz-adv-x="1505" d="M147 186v1041q0 80 47 133t138 53q90 0 137 -53.5t47 -132.5v-609q0 -1 123.5 173t246.5 348l124 174q70 100 170 100q91 0 134.5 -51.5t43.5 -134.5v-1041q0 -81 -46 -133.5t-136 -52.5q-92 0 -139.5 53t-47.5 133v600l-495 -682q-83 -104 -168 -104q-87 0 -133 48 t-46 138z" />
<glyph unicode="&#x419;" horiz-adv-x="1505" d="M147 186v1041q0 80 47 133t138 53q90 0 137 -53.5t47 -132.5v-609q0 -1 123.5 173t246.5 348l124 174q70 100 170 100q91 0 134.5 -51.5t43.5 -134.5v-1041q0 -81 -46 -133.5t-136 -52.5q-92 0 -139.5 53t-47.5 133v600l-495 -682q-83 -104 -168 -104q-87 0 -133 48 t-46 138zM409 1676q0 48 33 81q30 30 64 32t60.5 -12t60.5 -42q70 -58 153 -58q81 0 154 58q34 27 59.5 40t59.5 11.5t65 -29.5q35 -33 34 -80t-34 -86q-107 -123 -338 -123q-106 0 -197 33.5t-141 89.5q-33 37 -33 85z" />
<glyph unicode="&#x41a;" horiz-adv-x="1320" d="M147 186v1041q0 81 48.5 133.5t136.5 52.5t136 -52.5t48 -133.5v-439l385 521q59 81 133 98t144 -37q60 -51 58 -126t-60 -146l-299 -367l348 -403q61 -69 62 -146.5t-62 -134.5q-74 -59 -145.5 -45t-133.5 90l-430 535v-441q0 -83 -48 -134.5t-136 -51.5t-136.5 52 t-48.5 134z" />
<glyph unicode="&#x41b;" horiz-adv-x="1417" d="M-8 207q5 46 21.5 76.5t41 44t47 18t48.5 2.5q36 0 68.5 34t49.5 120q43 218 58 715q3 94 48.5 145t129.5 51h583q88 0 135.5 -52t47.5 -134v-1041q0 -83 -47.5 -134.5t-135.5 -51.5q-89 0 -137.5 51.5t-48.5 134.5v889h-246q-16 -594 -118 -844q-98 -241 -326 -241 q-108 0 -169.5 55.5t-49.5 161.5z" />
<glyph unicode="&#x41c;" horiz-adv-x="1662" d="M147 186v1041q0 80 43 133t129 53q118 0 183 -108l338 -531l329 531q65 108 174 108q84 0 128.5 -50t44.5 -136v-1041q0 -83 -48 -134.5t-137 -51.5q-88 0 -136 51.5t-48 134.5v574l-156 -271q-60 -102 -170 -102q-100 0 -166 100l-163 252v-553q0 -83 -41 -134.5 t-132 -51.5q-89 0 -130.5 52t-41.5 134z" />
<glyph unicode="&#x41d;" horiz-adv-x="1503" d="M147 186v1041q0 81 48.5 133.5t136.5 52.5t136 -52.5t48 -133.5v-340h471v340q0 81 49 133.5t138 52.5q87 0 134.5 -52t47.5 -134v-1041q0 -83 -47 -134.5t-135 -51.5q-89 0 -138 51.5t-49 134.5v373h-471v-373q0 -83 -48 -134.5t-136 -51.5t-136.5 52t-48.5 134z" />
<glyph unicode="&#x41e;" horiz-adv-x="1531" d="M74 707q0 155 45 287t130 230.5t217.5 154t299.5 55.5t299.5 -55.5t217.5 -154t130 -230.5t45 -287t-45 -287t-130 -230.5t-217.5 -154t-299.5 -55.5t-299.5 55.5t-217.5 154t-130 230.5t-45 287zM463 707q0 -115 31 -203t100.5 -142.5t171.5 -54.5t171.5 54.5 t100.5 142.5t31 203t-31 203t-100.5 142t-171.5 54t-171.5 -54t-100.5 -142t-31 -203z" />
<glyph unicode="&#x41f;" horiz-adv-x="1456" d="M147 186v1041q0 81 48.5 133.5t136.5 52.5h794q88 0 135.5 -52t47.5 -134v-1041q0 -83 -47.5 -134.5t-135.5 -51.5q-89 0 -137.5 51.5t-48.5 134.5v899h-424v-899q0 -83 -48 -134.5t-136 -51.5t-136.5 52t-48.5 134z" />
<glyph unicode="&#x420;" horiz-adv-x="1259" d="M145 186v1004q0 171 164 205q137 28 334 28q100 0 186 -18t158 -56.5t122.5 -95t79 -137.5t28.5 -180q0 -101 -29.5 -184.5t-81 -142t-123.5 -98.5t-156.5 -58.5t-179.5 -18.5q-68 0 -133 10v-258q0 -83 -48 -134.5t-136 -51.5t-136.5 52t-48.5 134zM514 758 q47 -6 115 -6q91 0 144.5 45.5t53.5 138.5q0 83 -50 126.5t-142 43.5q-75 0 -121 -6v-342z" />
<glyph unicode="&#x421;" horiz-adv-x="1269" d="M76 705q0 334 180 531.5t481 197.5q251 0 389 -105q40 -31 57.5 -70.5t15.5 -72.5t-17 -62q-18 -36 -41.5 -54.5t-66 -23.5t-101.5 17q-5 2 -25 8.5t-27.5 9t-26.5 7.5t-32 7.5t-32.5 5.5t-40 4t-44.5 1q-130 0 -205 -106.5t-75 -297.5q0 -193 83 -294t208 -101 q43 0 87.5 12.5t67.5 23.5t80 40q141 72 215 -21q26 -34 29 -78t-22 -94t-76 -90q-152 -120 -414 -120q-318 0 -482.5 190.5t-164.5 534.5z" />
<glyph unicode="&#x422;" horiz-adv-x="1273" d="M0 1251q0 78 47.5 120t132.5 42h914q85 0 132.5 -42t47.5 -120q0 -75 -48 -120.5t-132 -45.5h-273v-899q0 -81 -48 -133.5t-136 -52.5q-89 0 -136.5 52t-47.5 134v899h-273q-84 0 -132 45.5t-48 120.5z" />
<glyph unicode="&#x423;" d="M27.5 1263.5q9.5 83.5 87.5 125.5q163 87 270 -115l291 -526l211 516q78 193 239 135q53 -19 76 -62.5t20 -91t-24 -100.5l-321 -733q-45 -106 -89.5 -182t-97.5 -134.5t-116 -87t-138 -28.5q-134 0 -221 45q-69 37 -97.5 96.5t-6.5 126.5q20 63 68.5 84t103.5 8 q9 -2 38.5 -10.5t50 -12.5t38.5 -4q61 0 98 97l-434 682q-56 88 -46.5 171.5z" />
<glyph unicode="&#x424;" horiz-adv-x="1548" d="M37 739q0 254 152.5 401.5t400.5 147.5v35q0 81 48 133.5t136 52.5t136 -52.5t48 -133.5v-35q248 0 400.5 -147.5t152.5 -401.5t-152.5 -401.5t-400.5 -147.5v-45q0 -83 -48 -134.5t-136 -51.5t-136 51.5t-48 134.5v45q-248 0 -400.5 147.5t-152.5 401.5zM391 739 q0 -67 20.5 -119.5t54 -83.5t73.5 -47t82 -16v539q-90 0 -160 -75.5t-70 -197.5zM928 473q42 0 82 16t73.5 47t53.5 83.5t20 119.5q0 122 -69.5 197.5t-159.5 75.5v-539z" />
<glyph unicode="&#x425;" horiz-adv-x="1230" d="M21.5 190q9.5 43 39.5 84l342 445l-311 387q-31 41 -42 88t3.5 95.5t57.5 82.5q50 41 105 41.5t97 -26.5t72 -72l246 -328l239 322q33 47 70.5 73.5t85 30t94.5 -34.5q44 -33 57.5 -76.5t1.5 -86t-44 -85.5l-306 -389l347 -440q30 -44 38.5 -92t-8 -94t-59.5 -78 q-74 -51 -143 -33.5t-117 86.5l-283 377l-268 -369q-22 -32 -47 -54t-56.5 -35t-69 -9t-77.5 27q-43 33 -58.5 76.5t-6 86.5z" />
<glyph unicode="&#x426;" horiz-adv-x="1523" d="M147 186v1041q0 83 47.5 134.5t135.5 51.5q89 0 137.5 -51.5t48.5 -134.5v-899h424v899q0 83 48 134.5t136 51.5t136.5 -52t48.5 -134v-889h12q77 0 120.5 -53t43.5 -133v-265q0 -83 -44.5 -134.5t-131.5 -51.5t-131.5 51.5t-44.5 134.5v113h-803q-88 0 -135.5 52 t-47.5 134z" />
<glyph unicode="&#x427;" horiz-adv-x="1329" d="M74 944v283q0 78 49.5 132t136.5 54q86 0 134 -54t48 -132v-275q0 -99 41 -143.5t111 -44.5q125 0 219 59v404q0 82 48.5 134t137.5 52q88 0 135.5 -52t47.5 -134v-1041q0 -83 -47.5 -134.5t-135.5 -51.5q-89 0 -137.5 51.5t-48.5 134.5v326q-53 -31 -133 -48.5 t-148 -17.5q-83 0 -149.5 13.5t-125.5 48t-98 89.5t-62 143t-23 204z" />
<glyph unicode="&#x428;" horiz-adv-x="1925" d="M147 186v1041q0 83 47.5 134.5t135.5 51.5q89 0 137.5 -51.5t48.5 -134.5v-899h262v899q0 83 47.5 134.5t135.5 51.5q89 0 137.5 -51.5t48.5 -134.5v-899h262v899q0 83 48 134.5t136 51.5t136.5 -52t48.5 -134v-1041q0 -82 -47 -134t-134 -52h-1267q-88 0 -135.5 52 t-47.5 134z" />
<glyph unicode="&#x429;" horiz-adv-x="1992" d="M147 186v1041q0 83 47.5 134.5t135.5 51.5q89 0 137.5 -51.5t48.5 -134.5v-899h262v899q0 83 47.5 134.5t135.5 51.5q89 0 137.5 -51.5t48.5 -134.5v-899h262v899q0 83 48 134.5t136 51.5t136.5 -52t48.5 -134v-889h12q81 0 122.5 -52.5t41.5 -133.5v-265 q0 -83 -44.5 -134.5t-131.5 -51.5t-131.5 51.5t-44.5 134.5v113h-1272q-88 0 -135.5 52t-47.5 134z" />
<glyph unicode="&#x42a;" horiz-adv-x="1462" d="M4 1239q0 79 48 126.5t132 47.5h344q88 0 136.5 -52t48.5 -134v-293q78 10 166 10q540 0 540 -469q0 -239 -159 -362t-433 -123q-183 0 -315 24q-89 17 -128.5 66t-39.5 137v848h-160q-83 0 -131.5 49t-48.5 125zM713 322q46 -5 129 -5q188 0 188 152q0 81 -46.5 114 t-143.5 33q-78 0 -127 -6v-288z" />
<glyph unicode="&#x42b;" horiz-adv-x="1843" d="M145 217v1010q0 82 48.5 134t136.5 52t136 -51.5t48 -134.5v-293q78 10 156 10q242 0 379 -116t137 -343q0 -159 -70 -272t-190 -168t-279 -55q-172 0 -323 24q-179 30 -179 203zM514 322q46 -5 119 -5q90 0 137 39.5t47 112.5q0 78 -46 112.5t-140 34.5q-67 0 -117 -6 v-288zM1327 186v1041q0 81 48 133.5t136 52.5t136.5 -52.5t48.5 -133.5v-1041q0 -82 -48.5 -134t-136.5 -52t-136 51.5t-48 134.5z" />
<glyph unicode="&#x42c;" horiz-adv-x="1263" d="M145 219v1008q0 82 48.5 134t136.5 52t136 -51.5t48 -134.5v-293q78 10 174 10q251 0 392 -113.5t141 -351.5q0 -245 -158 -367t-434 -122q-199 0 -316 24q-89 18 -128.5 67.5t-39.5 137.5zM514 322q46 -5 129 -5q188 0 188 154q0 76 -47.5 110.5t-142.5 34.5 q-77 0 -127 -6v-288z" />
<glyph unicode="&#x42d;" horiz-adv-x="1292" d="M57 291q51 130 252 63q139 -47 240 -47q135 0 207 68t78 192h-459q-168 0 -168 146q0 141 168 141h461q-10 125 -87 188.5t-194 63.5q-120 0 -248 -39q-173 -52 -221 55q-28 59 -4.5 117t96.5 100q72 42 178 68.5t217 26.5q157 0 279.5 -52.5t201 -148t119.5 -226 t41 -288.5q0 -165 -39 -297.5t-118 -232.5t-208.5 -154.5t-301.5 -54.5q-230 0 -363 65q-85 41 -121 105t-6 141z" />
<glyph unicode="&#x42e;" horiz-adv-x="2068" d="M147 186v1041q0 81 48.5 133.5t136.5 52.5t136 -52.5t48 -133.5v-340h166q19 120 69 218.5t129.5 172.5t194.5 115t256 41q134 0 243.5 -36.5t187 -102t130.5 -157t78 -200t25 -231.5t-25 -231.5t-78 -200t-130.5 -157t-187 -102t-243.5 -36.5q-146 0 -263.5 43 t-197 121.5t-128.5 183t-66 231.5h-160v-373q0 -83 -48 -134.5t-136 -51.5t-136.5 52t-48.5 134zM1057 707q0 -115 26.5 -202t89.5 -142.5t158 -55.5q72 0 126 31.5t86 87t47.5 126t15.5 155.5t-15.5 155.5t-47.5 126t-86 86.5t-126 31q-95 0 -158 -55.5t-89.5 -142 t-26.5 -201.5z" />
<glyph unicode="&#x42f;" horiz-adv-x="1286" d="M77.5 150q-11.5 80 39.5 149l182 254q-101 49 -158 143t-57 230q0 162 74.5 275.5t201 167.5t293.5 54q175 0 312 -20q85 -12 130.5 -63t45.5 -130v-1024q0 -82 -48.5 -134t-136.5 -52t-136 51.5t-48 134.5v312q-40 -6 -121 -6l-221 -390q-30 -52 -78 -78t-100.5 -24 t-99.5 31q-63 39 -74.5 119zM473 918q0 -89 54.5 -135t144.5 -46q71 0 100 4v351q-54 4 -102 4q-94 0 -145.5 -46t-51.5 -132z" />
<glyph unicode="&#x430;" horiz-adv-x="1062" d="M41 279q0 89 33.5 155t93.5 104t135.5 56t167.5 18q36 0 76 -3.5t62 -6.5l22 -4v53q0 49 -30 73t-112 24q-44 0 -122 -16.5t-105 -20.5q-113 -17 -139 73q-36 122 110 189q111 51 306 51q206 0 312.5 -107.5t106.5 -291.5v-451q0 -76 -42 -125t-125 -49q-111 0 -156 92 q-92 -112 -268 -112q-157 0 -241.5 80.5t-84.5 218.5zM379 322q0 -38 26.5 -62t71.5 -24q60 0 107 38.5t47 100.5v49q-57 10 -111 10q-141 0 -141 -112z" />
<glyph unicode="&#x431;" horiz-adv-x="1148" d="M84 575q0 158 22 271.5t76 207.5t144.5 162t228.5 123q105 43 211 76q80 30 141 15.5t86 -82.5q23 -62 -2.5 -112t-101.5 -77q-20 -8 -199 -63q-126 -40 -182 -69q-171 -90 -174 -243q54 76 142 110t179 34q192 0 312 -119.5t120 -337.5q0 -214 -136.5 -352.5 t-360.5 -138.5q-245 0 -375.5 157t-130.5 438zM442 459q0 -95 39 -144t105 -49q65 0 104 49t39 144t-38.5 141.5t-104.5 46.5t-105 -47t-39 -141z" />
<glyph unicode="&#x432;" horiz-adv-x="1073" d="M109 186v617q0 163 153 190q119 21 281 21q218 0 324 -78t106 -211q0 -64 -30 -119t-83 -82q66 -22 111 -78t45 -133q0 -323 -469 -323q-163 0 -279 18q-159 25 -159 178zM446 248q41 -6 119 -6q55 0 79 26.5t24 65.5q0 86 -90 86h-132v-172zM446 596h107q48 0 70 24.5 t22 63.5q0 78 -94 78q-39 0 -105 -4v-162z" />
<glyph unicode="&#x433;" horiz-adv-x="897" d="M111 176v651q0 75 50.5 126t133.5 51h430q164 0 164 -154q0 -71 -41 -112.5t-123 -41.5h-256v-520q0 -79 -47 -127.5t-131 -48.5q-83 0 -131.5 49t-48.5 127z" />
<glyph unicode="&#x434;" horiz-adv-x="1183" d="M6 -57v188q0 79 31 122.5t110 43.5h15q18 44 30 102.5t17.5 123t8 112t3.5 107.5t2 73q9 189 185 189h442q84 0 129 -48.5t45 -126.5v-532h8q69 0 100 -46.5t31 -119.5v-188q0 -81 -32 -126.5t-113 -45.5q-146 0 -146 172v57h-575v-57q0 -81 -32 -126.5t-113 -45.5 q-146 0 -146 172zM475 264h213v455h-160q-2 -88 -16.5 -227.5t-36.5 -227.5z" />
<glyph unicode="&#x435;" horiz-adv-x="1064" d="M61 506q0 242 138.5 380t357.5 138q204 0 331.5 -113t127.5 -313q0 -44 -8 -80q-26 -115 -168 -115h-434q7 -74 57.5 -115.5t126.5 -41.5q23 0 44 2.5t42 8.5t34.5 10t35.5 12.5t30 11.5q122 45 172 -43q14 -29 15.5 -62t-18.5 -69t-58 -60q-68 -44 -142.5 -60.5 t-181.5 -16.5q-226 0 -364 138.5t-138 387.5zM403 588h291q4 24 4 47q0 53 -34 88t-97 35q-71 0 -114.5 -43.5t-49.5 -126.5z" />
<glyph unicode="&#x436;" horiz-adv-x="1474" d="M35 168q4 73 57 127l205 215l-182 219q-47 58 -47 126.5t47 109.5q64 52 135.5 36t118.5 -88l219 -327v252q0 166 147 166q148 0 148 -166v-269l225 344q46 71 116 86t132 -34q49 -39 49.5 -102.5t-45.5 -121.5l-186 -233l206 -213q53 -58 58.5 -124.5t-47.5 -121.5 q-69 -62 -145.5 -49.5t-125.5 84.5l-237 346v-262q0 -80 -33.5 -124t-114.5 -44q-80 0 -113.5 44t-33.5 124v272l-236 -348q-49 -73 -126.5 -88t-145.5 45q-49 46 -45 119z" />
<glyph unicode="&#x437;" horiz-adv-x="937" d="M47 121.5q-18 51.5 4 101.5q20 49 55.5 66t108.5 4q138 -27 195 -27q63 0 89.5 20t26.5 48q0 33 -24 47t-76 14h-113q-79 0 -110 26t-31 81q0 57 33 82.5t108 25.5h105q82 0 82 64q0 29 -25 46t-65 17q-81 0 -160 -26q-139 -47 -182 57q-22 50 -4 102t75 86 q111 68 316 68q189 0 291 -76.5t102 -202.5q0 -76 -36 -137t-97 -82q73 -23 116 -83t43 -136q0 -160 -108 -243.5t-324 -83.5q-225 0 -321 57q-56 33 -74 84.5z" />
<glyph unicode="&#x438;" horiz-adv-x="1173" d="M113 174v657q0 75 46 124t128 49t126 -48.5t44 -124.5v-315l274 381q70 107 168 107q82 0 122 -48t40 -125v-657q0 -78 -45 -126t-129 -48q-82 0 -126 48t-44 126v311l-289 -399q-58 -86 -152 -86q-81 0 -122 47.5t-41 126.5z" />
<glyph unicode="&#x439;" horiz-adv-x="1173" d="M113 174v657q0 75 46 124t128 49t126 -48.5t44 -124.5v-315l274 381q70 107 168 107q82 0 122 -48t40 -125v-657q0 -78 -45 -126t-129 -48q-82 0 -126 48t-44 126v311l-289 -399q-58 -86 -152 -86q-81 0 -122 47.5t-41 126.5zM245 1313q3 49 40 78q31 23 63.5 22.5 t57 -14.5t55.5 -41q55 -49 125 -49t125 49q31 27 55.5 41t57 14.5t63.5 -22.5q37 -29 39.5 -78t-27.5 -90q-88 -121 -313 -121q-226 0 -314 121q-30 41 -27 90z" />
<glyph unicode="&#x43a;" horiz-adv-x="1073" d="M111 174v657q0 74 44.5 123.5t125.5 49.5q82 0 126 -49t44 -124v-249l254 325q64 81 130.5 95t125.5 -37q49 -40 52 -105t-50 -131l-177 -209l199 -229q52 -65 49.5 -133t-51.5 -111q-69 -59 -140 -44.5t-134 95.5l-258 334v-258q0 -77 -43.5 -125.5t-126.5 -48.5 q-82 0 -126 48.5t-44 125.5z" />
<glyph unicode="&#x43b;" horiz-adv-x="1161" d="M2 166q0 65 32 102t87 37q35 0 54 17t34 65q29 96 45 428q9 189 184 189h439q83 0 128.5 -49.5t45.5 -123.5v-657q0 -77 -45.5 -125.5t-128.5 -48.5q-82 0 -128.5 49t-46.5 125v531h-131q-21 -347 -86 -510q-81 -205 -276 -205q-70 0 -117 24q-90 46 -90 152z" />
<glyph unicode="&#x43c;" horiz-adv-x="1288" d="M113 174v657q0 77 36 125t109 48q48 0 81 -26.5t67 -74.5l231 -317l231 305q22 29 34 43t33.5 33.5t46 28t54.5 8.5q71 0 105.5 -47t34.5 -121v-662q0 -79 -41.5 -126.5t-122.5 -47.5q-82 0 -123 49t-41 125v281q-102 -156 -215 -156q-52 0 -107.5 38t-105.5 101v-264 q0 -78 -36.5 -126t-117.5 -48t-117 48t-36 126z" />
<glyph unicode="&#x43d;" horiz-adv-x="1167" d="M111 174v657q0 74 46 123.5t128 49.5q83 0 128.5 -49.5t45.5 -123.5v-161h250v161q0 74 46 123.5t128 49.5q83 0 128.5 -49.5t45.5 -123.5v-657q0 -77 -45.5 -125.5t-128.5 -48.5q-82 0 -128 49t-46 125v188h-250v-188q0 -77 -45.5 -125.5t-128.5 -48.5q-82 0 -128 49 t-46 125z" />
<glyph unicode="&#x43e;" horiz-adv-x="1122" d="M59 502q0 235 134.5 378.5t367.5 143.5t367.5 -144t134.5 -378q0 -235 -134.5 -378.5t-367.5 -143.5t-367.5 143.5t-134.5 378.5zM418 502q0 -63 13 -114t46.5 -86.5t83.5 -35.5q144 0 144 236q0 235 -144 235q-40 0 -69 -20t-44.5 -54.5t-22.5 -74t-7 -86.5z" />
<glyph unicode="&#x43f;" horiz-adv-x="1130" d="M111 174v657q0 74 46 123.5t128 49.5h561q83 0 128.5 -49.5t45.5 -123.5v-657q0 -77 -45.5 -125.5t-128.5 -48.5q-82 0 -128 49t-46 125v533h-213v-533q0 -77 -45.5 -125.5t-128.5 -48.5q-82 0 -128 49t-46 125z" />
<glyph unicode="&#x440;" horiz-adv-x="1150" d="M115 -256v1087q0 77 47 125t127 48q115 0 157 -95q96 115 265 115q172 0 275.5 -126.5t103.5 -365.5q0 -252 -116 -402t-333 -150q-43 0 -98 7.5t-80 16.5v-260q0 -77 -45.5 -125.5t-128.5 -48.5q-82 0 -128 49t-46 125zM463 279q56 -23 123 -23q145 0 145 272 q0 99 -28.5 154t-81.5 55q-154 0 -158 -268v-190z" />
<glyph unicode="&#x441;" horiz-adv-x="964" d="M61 498q0 244 136 385t358 141q170 0 268 -55q109 -63 76 -185q-17 -56 -62 -74.5t-128 -4.5q-78 12 -117 12q-172 0 -172 -225q0 -99 48 -152t118 -53q15 0 29.5 1.5t33.5 7.5t26 8t32.5 11.5t27.5 10.5q127 46 183 -45q28 -41 13 -102t-69 -105q-114 -94 -317 -94 q-219 0 -351.5 135t-132.5 383z" />
<glyph unicode="&#x442;" horiz-adv-x="995" d="M10 850q0 154 164 154h647q164 0 164 -154q0 -71 -41 -112.5t-123 -41.5h-139v-520q0 -78 -49.5 -127t-134.5 -49q-84 0 -134.5 49.5t-50.5 126.5v520h-139q-82 0 -123 41.5t-41 112.5z" />
<glyph unicode="&#x443;" horiz-adv-x="1013" d="M-25.5 -308q-22.5 55 2.5 115q36 91 142 72l43 -11q43 -11 71 -11q46 0 72.5 32.5t59.5 108.5l-342 745q-21 47 -22 94.5t24.5 89.5t76.5 62q84 31 144.5 -1t89.5 -116l176 -450q1 -1 39.5 108t76.5 218l38 110q59 188 219 137q40 -12 62.5 -39t27 -61.5t-0.5 -68.5 t-18 -68l-309 -764q-92 -237 -182.5 -330.5t-226.5 -93.5q-108 0 -177 35q-64 32 -86.5 87z" />
<glyph unicode="&#x444;" horiz-adv-x="1392" d="M59 504q0 132 37.5 235t100.5 163.5t138.5 91t158.5 30.5h38v217q0 75 41.5 123.5t122.5 48.5q82 0 123 -48t41 -124v-217h39q83 0 158 -30.5t138 -91t100.5 -163.5t37.5 -235t-37.5 -235.5t-100 -165t-138 -92.5t-158.5 -31h-39v-236q0 -78 -41 -126t-123 -48 q-81 0 -122.5 48t-41.5 126v236h-38q-83 0 -158.5 31t-138.5 92.5t-100.5 165t-37.5 235.5zM377 504q0 -116 36.5 -183t102.5 -67h62v496h-62q-68 0 -103.5 -64.5t-35.5 -181.5zM815 254h64q66 0 102.5 67t36.5 183q0 117 -35.5 181.5t-103.5 64.5h-64v-496z" />
<glyph unicode="&#x445;" horiz-adv-x="1026" d="M43 123q-7 42 6 79t41 72l219 232l-188 199q-34 41 -48.5 85t-2 91.5t56.5 83.5q44 37 94 39.5t93 -23t75 -72.5l135 -174l133 168q31 44 70 69.5t85.5 28.5t90.5 -36q40 -34 51.5 -75.5t-1.5 -81.5t-46 -79l-194 -199l223 -239q55 -66 53 -133.5t-61 -114.5 q-128 -108 -260 53l-168 203l-158 -205q-31 -43 -72 -70t-93 -24.5t-95 47.5q-32 34 -39 76z" />
<glyph unicode="&#x446;" horiz-adv-x="1214" d="M111 172v657q0 76 46 125.5t128 49.5q83 0 128.5 -49t45.5 -126v-532h229v532q0 76 46 125.5t128 49.5q83 0 128.5 -49t45.5 -126v-532h6q69 0 101.5 -44.5t32.5 -119.5v-190q0 -81 -32.5 -126.5t-113.5 -45.5q-145 0 -145 172v57h-600q-82 0 -128 49t-46 123z" />
<glyph unicode="&#x447;" horiz-adv-x="1062" d="M55 641v190q0 75 46 124t128 49t128 -49t46 -124v-186q0 -40 21.5 -60t58.5 -20q72 0 121 25v241q0 74 46 123.5t128 49.5q83 0 128.5 -49.5t45.5 -123.5v-657q0 -77 -45.5 -125.5t-128.5 -48.5q-82 0 -128 49t-46 125v152q-32 -22 -90 -34.5t-108 -12.5 q-80 0 -140.5 16.5t-109.5 55.5t-75 112t-26 178z" />
<glyph unicode="&#x448;" horiz-adv-x="1564" d="M111 174v657q0 74 44.5 123.5t125.5 49.5q82 0 126 -49t44 -124v-544h161v544q0 74 44.5 123.5t125.5 49.5q82 0 126 -49t44 -124v-544h162v544q0 74 44.5 123.5t125.5 49.5q82 0 126 -49t44 -124v-657q0 -77 -43.5 -125.5t-126.5 -48.5h-1003q-82 0 -126 48.5t-44 125.5 z" />
<glyph unicode="&#x449;" horiz-adv-x="1630" d="M111 174v657q0 74 44.5 123.5t125.5 49.5q82 0 126 -49t44 -124v-544h161v544q0 74 44.5 123.5t125.5 49.5q82 0 126 -49t44 -124v-544h162v544q0 74 44.5 123.5t125.5 49.5q82 0 126 -49t44 -124v-534h6q69 0 101 -44.5t32 -119.5v-190q0 -81 -32 -126.5t-113 -45.5 q-145 0 -145 172v57h-1022q-82 0 -126 48.5t-44 125.5z" />
<glyph unicode="&#x44a;" horiz-adv-x="1138" d="M-2 854q0 150 164 150h227q83 0 128.5 -49.5t45.5 -123.5v-151q62 12 144 12q202 0 302.5 -87.5t100.5 -248.5q0 -45 -11 -89.5t-42.5 -96t-80.5 -90.5t-134.5 -64.5t-194.5 -25.5q-173 0 -280 22q-82 18 -117 65t-35 124v506h-53q-82 0 -123 38.5t-41 108.5zM563 262 q25 -2 84 -2q115 0 115 98q0 46 -28.5 70.5t-78.5 24.5q-29 0 -92 -7v-184z" />
<glyph unicode="&#x44b;" horiz-adv-x="1464" d="M111 199v632q0 75 41 124t122 49q82 0 123 -48.5t41 -124.5v-155q62 12 140 12q99 0 172.5 -27t116 -74.5t63 -106.5t20.5 -128q0 -44 -10.5 -88.5t-40.5 -95t-76 -89t-125 -64t-180 -25.5q-164 0 -266 20q-80 16 -110.5 62.5t-30.5 126.5zM438 268q25 -2 80 -2 q58 0 86.5 24.5t28.5 67.5q0 45 -27 70t-80 25q-25 0 -88 -7v-178zM1026 174v657q0 75 41.5 124t122.5 49q82 0 123 -48.5t41 -124.5v-657q0 -78 -41 -126t-123 -48q-81 0 -122.5 48t-41.5 126z" />
<glyph unicode="&#x44c;" horiz-adv-x="1034" d="M111 199v632q0 74 46 123.5t128 49.5q83 0 128.5 -49.5t45.5 -123.5v-151q62 12 143 12q202 0 303 -90.5t101 -251.5q0 -44 -11 -88t-42.5 -94.5t-80.5 -88.5t-134.5 -63.5t-194.5 -25.5q-179 0 -281 20q-81 17 -116 64t-35 125zM459 262q25 -2 84 -2q53 0 83.5 24.5 t30.5 71.5q0 93 -106 93q-29 0 -92 -7v-180z" />
<glyph unicode="&#x44d;" horiz-adv-x="1007" d="M49 221q15 48 56 69t108 5q119 -29 199 -29q70 0 118 31t54 92h-260q-77 0 -109.5 27.5t-32.5 83.5q0 60 32 87t110 27h262q-7 60 -55 91.5t-117 31.5q-74 0 -160 -22q-141 -37 -182 57q-12 33 -12 66t21.5 65.5t61.5 54.5q123 66 320 66q212 0 348.5 -136t136.5 -370 q0 -256 -135.5 -397t-380.5 -141q-207 0 -307 63q-108 70 -76 178z" />
<glyph unicode="&#x44e;" horiz-adv-x="1542" d="M111 174v657q0 74 44.5 123.5t125.5 49.5q82 0 126 -49t44 -124v-182h96q30 174 148.5 274.5t312.5 100.5q155 0 263.5 -68t160 -184t51.5 -270q0 -237 -121.5 -379.5t-353.5 -142.5q-196 0 -314.5 102.5t-148.5 279.5h-94v-188q0 -77 -43.5 -125.5t-126.5 -48.5 q-82 0 -126 48.5t-44 125.5zM877 502q0 -104 30 -170t97 -66q38 0 63.5 18.5t38.5 53.5t18.5 74t5.5 90t-5.5 90t-18.5 73.5t-38.5 53t-63.5 18.5q-127 0 -127 -235z" />
<glyph unicode="&#x44f;" horiz-adv-x="1062" d="M66 156q1 73 55 135l80 90q-127 82 -127 272q0 44 11.5 88.5t44 95t82.5 88.5t135.5 63.5t195.5 25.5q159 0 262 -21q82 -18 115.5 -62.5t33.5 -119.5v-637q0 -77 -45.5 -125.5t-128.5 -48.5q-82 0 -128 49t-46 125v143q-27 -2 -96 -2l-117 -202q-28 -48 -70 -78 t-97.5 -34.5t-112.5 44.5q-48 38 -47 111zM422 610q0 -96 123 -96h61v188q-40 5 -71 5q-113 0 -113 -97z" />
<glyph unicode="&#x451;" horiz-adv-x="1064" d="M61 506q0 242 138.5 380t357.5 138q204 0 331.5 -113t127.5 -313q0 -44 -8 -80q-26 -115 -168 -115h-434q7 -74 57.5 -115.5t126.5 -41.5q23 0 44 2.5t42 8.5t34.5 10t35.5 12.5t30 11.5q122 45 172 -43q14 -29 15.5 -62t-18.5 -69t-58 -60q-68 -44 -142.5 -60.5 t-181.5 -16.5q-226 0 -364 138.5t-138 387.5zM141 1270q0 78 44.5 121t127.5 43q80 0 126 -43.5t46 -120.5q0 -80 -45.5 -122t-126.5 -42q-84 0 -128 41.5t-44 122.5zM403 588h291q4 24 4 47q0 53 -34 88t-97 35q-71 0 -114.5 -43.5t-49.5 -126.5zM584 1270q0 78 44.5 121 t127.5 43q80 0 126 -43.5t46 -120.5q0 -80 -45.5 -122t-126.5 -42q-84 0 -128 41.5t-44 122.5z" />
<glyph unicode="&#x452;" horiz-adv-x="1161" d="M-4 911q0 48 27 70.5t88 22.5h43v237q0 74 46 123t128 49q83 0 128.5 -49t45.5 -123v-237h246q61 0 87.5 -22.5t26.5 -70.5q0 -92 -114 -92h-246v-155q39 41 108 67.5t144 26.5q177 0 263.5 -114t86.5 -327v-342q0 -191 -92.5 -298t-276.5 -107q-120 0 -190 45 q-51 33 -71.5 84.5t-2.5 112.5q32 108 141 96q15 -2 38.5 -6t37.5 -4q68 0 68 77v359q0 58 -26 92.5t-73 34.5q-155 0 -155 -287q0 -79 -45.5 -126.5t-128.5 -47.5q-82 0 -128 48.5t-46 125.5v645h-43q-115 0 -115 92z" />
<glyph unicode="&#x453;" horiz-adv-x="876" d="M111 176q0 -78 48.5 -127t131.5 -49q84 0 131 48.5t47 127.5v520h256q82 0 123 41.5t41 112.5q0 154 -164 154h-430q-83 0 -133.5 -51t-50.5 -126v-651zM379 1157q-61 105 55 180l182 117q64 38 111.5 31t77.5 -53q18 -28 21 -58t-15 -63.5t-59 -59.5l-183 -116 q-57 -37 -109.5 -31t-80.5 53z" />
<glyph unicode="&#x454;" horiz-adv-x="970" d="M61 498q0 244 136 385t358 141q170 0 268 -55q109 -63 76 -185q-17 -56 -62 -74.5t-128 -4.5q-78 12 -127 12q-121 0 -158 -113h215q75 0 104 -24.5t29 -79.5q0 -51 -29.5 -76t-103.5 -25h-215q20 -55 60 -83.5t91 -28.5q54 0 160 39q127 46 183 -45q28 -41 13 -102 t-69 -105q-114 -94 -317 -94q-219 0 -351.5 135t-132.5 383z" />
<glyph unicode="&#x455;" horiz-adv-x="927" d="M51 150q-18 52 8 106q53 108 211 39q111 -49 191 -49q35 0 49 12t14 35q0 20 -25 38t-65 34t-88 34.5t-96 45t-88 60t-65 86t-25 116.5q0 155 106 236t283 81q184 0 295 -70q115 -72 80 -174q-39 -109 -181 -67q-8 2 -49.5 15.5t-74 21.5t-56.5 8q-55 0 -55 -41 q0 -20 25 -37.5t65 -32t88 -32t96 -42.5t88 -58t65 -84.5t25 -115.5q0 -155 -103 -245t-320 -90q-80 0 -170.5 19t-149.5 58q-60 41 -78 93z" />
<glyph unicode="&#x456;" horiz-adv-x="548" d="M92 1270q0 77 49 120.5t133 43.5q81 0 132 -44t51 -120q0 -79 -50.5 -121.5t-132.5 -42.5q-85 0 -133.5 42t-48.5 122zM100 174v657q0 74 46 123.5t128 49.5q83 0 129 -49.5t46 -123.5v-657q0 -77 -46 -125.5t-129 -48.5q-82 0 -128 49t-46 125z" />
<glyph unicode="&#x457;" horiz-adv-x="591" d="M-96 1270q0 78 44.5 121t127.5 43q80 0 126 -43.5t46 -120.5q0 -80 -45.5 -122t-126.5 -42q-84 0 -128 41.5t-44 122.5zM123 174v657q0 74 46 123.5t128 49.5q83 0 128.5 -49.5t45.5 -123.5v-657q0 -77 -45.5 -125.5t-128.5 -48.5q-82 0 -128 49t-46 125zM346 1270 q0 78 44.5 121t127.5 43q80 0 126 -43.5t46 -120.5q0 -80 -45.5 -122t-126.5 -42q-84 0 -128 41.5t-44 122.5z" />
<glyph unicode="&#x458;" horiz-adv-x="544" d="M-242 -195q-14 -61 10 -112.5t89 -81.5q89 -41 211 -41q185 0 278.5 104.5t93.5 294.5v862q0 74 -45.5 123.5t-128.5 49.5q-82 0 -128 -49.5t-46 -123.5v-866q0 -88 -72 -88q-17 0 -104 17q-133 23 -158 -89zM82 1270q0 77 49 120.5t133 43.5q81 0 131.5 -43.5 t50.5 -120.5q0 -79 -50 -121.5t-132 -42.5q-85 0 -133.5 42t-48.5 122z" />
<glyph unicode="&#x459;" horiz-adv-x="1628" d="M2 166q0 65 32 102t87 37q35 0 54 17t34 65q29 96 45 428q9 189 184 189h439q83 0 128.5 -49.5t45.5 -123.5v-151q62 12 143 12q202 0 302.5 -90t100.5 -252q0 -44 -10.5 -88t-42 -94.5t-80.5 -88.5t-134.5 -63.5t-194.5 -25.5q-179 0 -281 20q-81 17 -116.5 64.5 t-35.5 124.5v506h-131q-21 -347 -86 -510q-81 -205 -276 -205q-70 0 -117 24q-90 46 -90 152zM1051 262q25 -2 84 -2q53 0 83.5 24.5t30.5 71.5q0 93 -106 93q-29 0 -92 -7v-180z" />
<glyph unicode="&#x45a;" horiz-adv-x="1634" d="M111 174v657q0 74 46 123.5t128 49.5q83 0 128.5 -49.5t45.5 -123.5v-161h250v161q0 74 46 123.5t128 49.5q83 0 128.5 -49.5t45.5 -123.5v-151q62 12 143 12q202 0 303 -90.5t101 -251.5q0 -44 -11 -88t-42.5 -94.5t-80.5 -88.5t-134.5 -63.5t-194.5 -25.5 q-179 0 -281 20q-81 17 -116 64t-35 125v163h-250v-188q0 -77 -45.5 -125.5t-128.5 -48.5q-82 0 -128 49t-46 125zM1057 262q25 -2 84 -2q53 0 83.5 24.5t30.5 71.5q0 93 -106 93q-29 0 -92 -7v-180z" />
<glyph unicode="&#x45b;" horiz-adv-x="1159" d="M-4 911q0 48 27 70.5t88 22.5h43v237q0 74 46 123t128 49q83 0 128.5 -49t45.5 -123v-237h246q61 0 87.5 -22.5t26.5 -70.5q0 -92 -114 -92h-246v-155q40 41 106 67.5t140 26.5q356 0 356 -441v-143q0 -77 -46 -125.5t-128 -48.5q-81 0 -127.5 48.5t-46.5 125.5v160 q0 57 -27 92t-72 35q-155 0 -155 -287q0 -79 -45.5 -126.5t-128.5 -47.5q-82 0 -128 48.5t-46 125.5v645h-43q-115 0 -115 92z" />
<glyph unicode="&#x45c;" horiz-adv-x="1073" d="M111 174v657q0 74 44.5 123.5t125.5 49.5q82 0 126 -49t44 -124v-249l254 325q64 81 130.5 95t125.5 -37q49 -40 52 -105t-50 -131l-177 -209l199 -229q52 -65 49.5 -133t-51.5 -111q-69 -59 -140 -44.5t-134 95.5l-258 334v-258q0 -77 -43.5 -125.5t-126.5 -48.5 q-82 0 -126 48.5t-44 125.5zM418 1157q-61 105 55 180l182 117q64 38 111.5 31t77.5 -53q18 -28 21 -58t-15 -63.5t-59 -59.5l-183 -116q-57 -37 -109.5 -31t-80.5 53z" />
<glyph unicode="&#x45e;" horiz-adv-x="1013" d="M-25.5 -308q-22.5 55 2.5 115q36 91 142 72l43 -11q43 -11 71 -11q46 0 72.5 32.5t59.5 108.5l-342 745q-21 47 -22 94.5t24.5 89.5t76.5 62q84 31 144.5 -1t89.5 -116l176 -450q1 -1 39.5 108t76.5 218l38 110q59 188 219 137q40 -12 62.5 -39t27 -61.5t-0.5 -68.5 t-18 -68l-309 -764q-92 -237 -182.5 -330.5t-226.5 -93.5q-108 0 -177 35q-64 32 -86.5 87zM161 1313q3 49 40 78q31 23 63.5 22.5t57 -14.5t55.5 -41q55 -49 125 -49t125 49q31 27 55.5 41t57 14.5t63.5 -22.5q37 -29 39.5 -78t-27.5 -90q-88 -121 -313 -121 q-226 0 -314 121q-30 41 -27 90z" />
<glyph unicode="&#x45f;" horiz-adv-x="1130" d="M111 172v657q0 76 46 125.5t128 49.5q83 0 128.5 -49t45.5 -126v-532h213v532q0 76 46 125.5t128 49.5q83 0 128.5 -49t45.5 -126v-657q0 -74 -45.5 -123t-128.5 -49h-135v-57q0 -83 -30 -127.5t-110 -44.5q-79 0 -109 45t-30 127v57h-147q-82 0 -128 49t-46 123z" />
<glyph unicode="&#x462;" horiz-adv-x="1431" d="M16 1128q0 144 164 144h148q11 64 57.5 102.5t122.5 38.5q74 0 121 -38.5t59 -102.5h219q164 0 164 -144q0 -143 -164 -143h-215v-98q98 12 160 12q547 0 547 -426q0 -126 -44 -220.5t-123.5 -151t-182.5 -84t-230 -27.5q-210 0 -319 24q-176 40 -176 195v776h-144 q-164 0 -164 143zM692 322q46 -5 123 -5q93 0 144 35.5t51 104.5q0 74 -49.5 104.5t-147.5 30.5q-55 0 -121 -8v-262z" />
<glyph unicode="&#x463;" horiz-adv-x="1146" d="M-4 891q0 51 28.5 82t86.5 31h110v237q0 74 46 123t128 49q83 0 128.5 -49t45.5 -123v-237h201q58 0 86.5 -31t28.5 -82q0 -48 -28.5 -80.5t-86.5 -32.5h-201v-98q62 12 148 12q201 0 300 -89.5t99 -250.5q0 -45 -11 -90t-42.5 -95.5t-80.5 -88.5t-134 -63t-195 -25 q-178 0 -280 20q-81 17 -116.5 64.5t-35.5 124.5v579h-110q-58 0 -86.5 32.5t-28.5 80.5zM569 262q25 -2 84 -2q115 0 115 96q0 93 -106 93q-30 0 -93 -7v-180z" />
<glyph unicode="&#x472;" horiz-adv-x="1531" d="M74 707q0 156 45 288t130 230.5t217.5 153.5t299.5 55t299.5 -55t217.5 -153.5t130 -230.5t45 -288t-45 -288t-130 -230.5t-217.5 -153.5t-299.5 -55t-299.5 55t-217.5 153.5t-130 230.5t-45 288zM467 561q19 -115 98 -184.5t201 -69.5t200 69.5t97 184.5h-596zM467 848 h598q-19 116 -98.5 187t-200.5 71q-123 0 -202 -71t-97 -187z" />
<glyph unicode="&#x473;" horiz-adv-x="1122" d="M59 502q0 234 133.5 378t368.5 144q234 0 368 -144.5t134 -377.5q0 -234 -133.5 -378t-368.5 -144t-368.5 144t-133.5 378zM416 414q8 -64 47 -106t98 -42q63 0 101.5 41.5t44.5 106.5h-291zM416 598h289q-8 62 -45 100.5t-99 38.5q-60 0 -98 -38.5t-47 -100.5z" />
<glyph unicode="&#x474;" horiz-adv-x="1490" d="M22 1233.5q-1 50.5 25.5 97t79.5 66.5q88 33 156.5 -2t99.5 -127l299 -752l240 647q47 130 119 194t186 64q116 0 182 -47q45 -31 65 -81t3 -109q-13 -51 -46 -76.5t-73 -22.5q-7 1 -29.5 5t-40.5 4q-38 0 -62.5 -29t-56.5 -111l-325 -841q-52 -133 -182 -133 q-69 0 -111.5 30t-67.5 92l-440 1033q-20 48 -21 98.5z" />
<glyph unicode="&#x475;" horiz-adv-x="1144" d="M33 834.5q-1 48.5 25 92.5t79 64q77 30 139 -4t91 -113l147 -405l137 350q76 195 232 195q110 0 172 -43q40 -27 57 -72t4 -96q-25 -99 -110 -90q-46 4 -50 4q-31 0 -46.5 -20t-39.5 -76l-213 -508q-29 -65 -61.5 -99t-93.5 -34q-55 0 -91.5 28t-64.5 90l-291 641 q-21 47 -22 95.5z" />
<glyph unicode="&#x490;" horiz-adv-x="1093" d="M147 186v1041q0 79 48 132.5t131 53.5h440v49q0 75 40.5 123.5t121.5 48.5q82 0 122 -48t40 -124v-213q0 -74 -48.5 -119t-132.5 -45h-393v-899q0 -81 -48 -133.5t-136 -52.5q-89 0 -137 52t-48 134z" />
<glyph unicode="&#x491;" horiz-adv-x="872" d="M111 176v651q0 75 50.5 126t133.5 51h301v38q0 69 35 112.5t108 43.5q72 0 107 -43t35 -113v-192q0 -71 -41 -112.5t-123 -41.5h-238v-520q0 -78 -49.5 -127t-134.5 -49q-84 0 -134 49t-50 127z" />
<glyph unicode="&#x492;" horiz-adv-x="1136" d="M-18 721q0 51 28 82t86 31h74v393q0 79 47.5 132.5t130.5 53.5h584q85 0 132.5 -43t47.5 -121q0 -74 -48 -119t-132 -45h-393v-251h352q58 0 86.5 -31t28.5 -82q0 -48 -28.5 -80.5t-86.5 -32.5h-352v-422q0 -81 -48.5 -133.5t-136.5 -52.5q-89 0 -136.5 52t-47.5 134v422 h-74q-58 0 -86 32t-28 81z" />
<glyph unicode="&#x493;" horiz-adv-x="942" d="M-25 451q0 102 115 102h45v274q0 75 50.5 126t133.5 51h431q163 0 163 -154q0 -71 -40.5 -112.5t-122.5 -41.5h-256v-143h231q115 0 115 -102q0 -47 -28 -75t-87 -28h-231v-172q0 -79 -47.5 -127.5t-131.5 -48.5q-83 0 -131.5 49t-48.5 127v172h-45q-59 0 -87 28t-28 75z " />
<glyph unicode="&#x494;" horiz-adv-x="1310" d="M147 186v1041q0 79 48 132.5t131 53.5h573q85 0 132.5 -43t47.5 -121q0 -74 -48 -119t-132 -45h-383v-282q103 18 205 18q255 0 400 -128t145 -376q0 -253 -115.5 -393.5t-333.5 -140.5q-115 0 -186 49q-38 26 -59 73t-7 101q29 102 125 98q17 -1 44.5 -5.5t45.5 -4.5 q97 0 97 199q0 91 -48 146t-147 55q-90 0 -166 -13v-284q0 -83 -48.5 -140t-135.5 -57q-89 0 -137 52t-48 134z" />
<glyph unicode="&#x495;" horiz-adv-x="1107" d="M111 176v651q0 75 50.5 126t133.5 51h414q163 0 163 -154q0 -71 -40.5 -112.5t-122.5 -41.5h-230v-139q78 21 162 21q92 0 167.5 -26.5t136 -82t94.5 -151t34 -224.5q0 -80 -13 -152.5t-44.5 -141.5t-78.5 -119t-120 -80.5t-164 -30.5q-97 0 -168 31q-67 30 -93.5 87 t-0.5 126q34 92 144 75q75 -12 83 -12q107 0 107 209q0 107 -39 151t-121 44q-34 0 -86 -9v-102q0 -77 -48.5 -123.5t-133.5 -46.5q-84 0 -135 49.5t-51 126.5z" />
<glyph unicode="&#x496;" horiz-adv-x="2004" d="M26.5 185q2.5 79 63.5 149l344 393l-303 365q-57 69 -57.5 148.5t57.5 129.5q68 58 151.5 41t141.5 -104l352 -496v416q0 84 41 135t127 51t127 -51t41 -135v-424l354 502q57 85 135.5 102t141.5 -35q60 -44 62 -115t-52 -143l-293 -381l330 -395h51q87 0 131.5 -51 t44.5 -135v-265q0 -83 -44.5 -134.5t-131.5 -51.5t-131.5 51.5t-44.5 134.5v113q-91 0 -152 82l-401 547v-443q0 -85 -41 -135.5t-127 -50.5t-127 50.5t-41 135.5v443l-381 -518q-37 -53 -88 -83t-110.5 -26.5t-110.5 47.5q-62 57 -59.5 136z" />
<glyph unicode="&#x497;" horiz-adv-x="1550" d="M35 168q4 73 57 127l205 215l-182 219q-47 58 -47 126.5t47 109.5q64 52 135.5 36t118.5 -88l219 -327v252q0 166 147 166q148 0 148 -166v-269l225 344q46 71 116 86t132 -34q49 -39 49.5 -102.5t-45.5 -121.5l-186 -233l204 -211h23q149 0 149 -166v-188 q0 -81 -32 -126.5t-113 -45.5q-145 0 -145 172v57q-46 0 -78.5 20.5t-61.5 63.5l-237 346v-262q0 -80 -33.5 -124t-114.5 -44q-80 0 -113.5 44t-33.5 124v272l-236 -348q-49 -73 -126.5 -88t-145.5 45q-49 46 -45 119z" />
<glyph unicode="&#x498;" horiz-adv-x="1218" d="M54.5 160.5q-28.5 63.5 2.5 136.5q57 130 250 55q119 -45 234 -45q215 0 215 146q0 121 -187 127h-192q-65 0 -104.5 36.5t-39.5 100.5q0 62 40 100.5t104 38.5h162q85 0 130.5 32t45.5 93q0 125 -183 125q-88 0 -215 -43q-27 -9 -47.5 -14.5t-49 -7.5t-50 4t-43 24.5 t-35.5 48.5q-27 53 -6 116.5t86 104.5q69 43 182 69t219 26q245 0 388 -97t143 -286q0 -92 -45 -170.5t-127 -118.5q105 -40 159 -121t54 -188q0 -378 -393 -455v-111q0 -84 -42 -135t-128 -51t-128 51t-42 135v99q-156 18 -250 69q-79 42 -107.5 105.5z" />
<glyph unicode="&#x499;" horiz-adv-x="940" d="M49 121.5q-18 51.5 4 101.5q20 49 55.5 66t108.5 4q138 -27 195 -27q63 0 89.5 20t26.5 48q0 33 -24 47t-76 14h-113q-79 0 -110 26t-31 81q0 57 33 82.5t108 25.5h105q82 0 82 64q0 29 -25 46t-65 17q-81 0 -160 -26q-139 -47 -182 57q-22 50 -4 102t75 86 q111 68 316 68q189 0 291 -76.5t102 -202.5q0 -76 -36 -137t-97 -82q73 -23 116.5 -83t43.5 -136q0 -262 -283 -315v-49q0 -83 -29.5 -127.5t-109.5 -44.5q-79 0 -109.5 45t-30.5 127v45q-136 14 -192 49q-56 33 -74 84.5z" />
<glyph unicode="&#x49a;" horiz-adv-x="1443" d="M147 186v1041q0 81 48.5 133.5t136.5 52.5t136 -52.5t48 -133.5v-439l385 521q59 81 133 98t144 -37q60 -51 58 -126t-60 -146l-299 -367l340 -393h57q87 0 131.5 -51t44.5 -135v-265q0 -83 -44.5 -134.5t-131.5 -51.5t-131.5 51.5t-44.5 134.5v113q-76 0 -152 92 l-430 535v-441q0 -83 -48 -134.5t-136 -51.5t-136.5 52t-48.5 134z" />
<glyph unicode="&#x49b;" horiz-adv-x="1163" d="M111 174v657q0 74 44.5 123.5t125.5 49.5q82 0 126 -49t44 -124v-249l254 325q64 81 130.5 95t125.5 -37q49 -40 52 -105t-50 -131l-177 -209l193 -223h22q150 0 150 -166v-188q0 -81 -32 -126.5t-113 -45.5q-146 0 -146 172v57q-69 0 -145 98l-262 334l-2 -258 q0 -77 -43.5 -125.5t-126.5 -48.5q-82 0 -126 48.5t-44 125.5z" />
<glyph unicode="&#x49c;" horiz-adv-x="1513" d="M147 186v1041q0 81 48.5 133.5t136.5 52.5t136 -52.5t48 -133.5v-398h74v138q0 47 23.5 78.5t72.5 31.5q100 0 100 -110v-138h29l291 463q55 88 122.5 110t131.5 -22q63 -43 67 -110t-51 -144l-270 -385l330 -450q39 -51 44 -102.5t-12.5 -87t-48.5 -60.5 q-41 -32 -85 -39t-90.5 16t-84.5 78l-315 467h-58v-198q0 -113 -100 -113q-49 0 -72.5 31.5t-23.5 81.5v198h-74v-377q0 -83 -48 -134.5t-136 -51.5t-136.5 52t-48.5 134z" />
<glyph unicode="&#x49d;" horiz-adv-x="1245" d="M111 174v657q0 75 41 124t122 49q82 0 123 -48.5t41 -124.5v-219h62v140q0 35 19 58.5t56 23.5q76 0 76 -82v-140h29l215 301q37 50 79.5 72t81 15.5t72.5 -35.5q46 -37 45.5 -97t-53.5 -120l-182 -224l217 -241q52 -60 53 -124.5t-43 -105.5q-62 -60 -131.5 -50 t-126.5 85l-213 283h-43v-101q0 -84 -76 -84q-38 0 -56.5 23t-18.5 61v101h-62v-197q0 -78 -41 -126t-123 -48q-81 0 -122 48t-41 126z" />
<glyph unicode="&#x4a0;" horiz-adv-x="1519" d="M4 1239q0 79 48 126.5t132 47.5h346q88 0 136.5 -52.5t48.5 -133.5v-439l385 521q59 81 132.5 98t143.5 -37q60 -51 58 -126t-60 -146l-299 -367l348 -403q61 -69 62 -146.5t-62 -134.5q-74 -59 -145 -45t-133 90l-430 535v-441q0 -82 -48.5 -134t-136.5 -52t-136 51.5 t-48 134.5v879h-162q-83 0 -131.5 49t-48.5 125z" />
<glyph unicode="&#x4a1;" horiz-adv-x="1175" d="M-2 854q0 150 164 150h223q82 0 126 -49t44 -124v-249l254 325q64 81 130.5 95t125.5 -37q49 -40 52 -105t-50 -131l-176 -209l199 -229q52 -65 49 -133t-52 -111q-69 -59 -140 -44.5t-134 95.5l-258 334v-258q0 -77 -43.5 -125.5t-126.5 -48.5q-82 0 -126 48.5 t-44 125.5v533h-53q-82 0 -123 38.5t-41 108.5z" />
<glyph unicode="&#x4a2;" horiz-adv-x="1570" d="M147 186v1041q0 81 48.5 133.5t136.5 52.5t136 -52.5t48 -133.5v-340h471v340q0 81 49 133.5t138 52.5q87 0 134.5 -52t47.5 -134v-889h4q88 0 130 -50.5t42 -135.5v-265q0 -83 -44.5 -134.5t-131.5 -51.5t-131.5 51.5t-44.5 134.5v113h-13q-89 0 -134.5 51t-45.5 135 v373h-471v-373q0 -83 -48 -134.5t-136 -51.5t-136.5 52t-48.5 134z" />
<glyph unicode="&#x4a3;" horiz-adv-x="1234" d="M111 174v657q0 74 46 123.5t128 49.5q83 0 128.5 -49.5t45.5 -123.5v-161h250v161q0 74 46 123.5t128 49.5q83 0 128.5 -49.5t45.5 -123.5v-534h8q131 0 131 -166v-188q0 -81 -32 -126.5t-113 -45.5q-146 0 -146 172v57h-22q-82 0 -128 49t-46 125v188h-250v-188 q0 -77 -45.5 -125.5t-128.5 -48.5q-82 0 -128 49t-46 125z" />
<glyph unicode="&#x4a4;" horiz-adv-x="1912" d="M147 186v1041q0 81 48.5 133.5t136.5 52.5t136 -52.5t48 -133.5v-340h463v340q0 79 47.5 132.5t130.5 53.5h576q85 0 132.5 -43t47.5 -121q0 -74 -48 -119t-132 -45h-385v-899q0 -81 -48.5 -133.5t-136.5 -52.5q-89 0 -136.5 52t-47.5 134v373h-463v-373 q0 -83 -48 -134.5t-136 -51.5t-136.5 52t-48.5 134z" />
<glyph unicode="&#x4a5;" horiz-adv-x="1480" d="M111 174v657q0 74 46 123.5t128 49.5q83 0 128.5 -49.5t45.5 -123.5v-161h250v157q0 75 50.5 126t133.5 51h414q163 0 163 -154q0 -71 -40.5 -112.5t-122.5 -41.5h-250v-520q0 -79 -45 -127.5t-129 -48.5q-83 0 -128.5 48.5t-45.5 127.5v186h-250v-188 q0 -77 -45.5 -125.5t-128.5 -48.5q-82 0 -128 49t-46 125z" />
<glyph unicode="&#x4aa;" horiz-adv-x="1269" d="M76 705q0 334 180 531.5t481 197.5q251 0 389 -105q40 -31 57.5 -70.5t15.5 -72.5t-17 -62q-18 -36 -41.5 -54.5t-66 -23.5t-101.5 17q-5 2 -25 8.5t-27.5 9t-26.5 7.5t-32 7.5t-32.5 5.5t-40 4t-44.5 1q-130 0 -205 -106.5t-75 -297.5q0 -193 83 -294t208 -101 q43 0 87.5 12.5t67.5 23.5t80 40q141 72 215 -21q26 -34 29 -78t-22 -94t-76 -90q-109 -85 -265 -108v-105q0 -84 -42 -135t-128 -51t-128 51t-42 135v113q-225 53 -340.5 235t-115.5 470z" />
<glyph unicode="&#x4ab;" horiz-adv-x="964" d="M61 498q0 244 136 385t358 141q170 0 268 -55q109 -63 76 -185q-17 -56 -62 -74.5t-128 -4.5q-78 12 -117 12q-172 0 -172 -225q0 -99 48 -152t118 -53q15 0 29.5 1.5t33.5 7.5t26 8t32.5 11.5t27.5 10.5q127 46 183 -45q28 -41 13 -102t-69 -105q-76 -64 -190 -84v-47 q0 -83 -30 -127.5t-110 -44.5q-79 0 -109 45t-30 127v57q-155 41 -243.5 168.5t-88.5 329.5z" />
<glyph unicode="&#x4ae;" horiz-adv-x="1202" d="M13.5 1204.5q-8.5 48.5 9.5 97.5t63 78q53 36 103 33t90 -30.5t73 -77.5l262 -385l248 376q54 83 120.5 106.5t139.5 -20.5q41 -26 57 -68t7.5 -86.5t-35.5 -86.5l-367 -531v-424q0 -83 -48 -134.5t-136 -51.5t-136 51.5t-48 134.5v416l-367 516q-27 38 -35.5 86.5z" />
<glyph unicode="&#x4af;" horiz-adv-x="1030" d="M34.5 834q-1.5 48 24 91.5t78.5 63.5q78 30 140.5 -3t91.5 -112l163 -425l156 417q62 180 215 123q143 -53 66 -231l-281 -617v-397q0 -77 -45.5 -125.5t-128.5 -48.5q-82 0 -128 49t-46 125v391l-283 604q-21 47 -22.5 95z" />
<glyph unicode="&#x4b0;" horiz-adv-x="1208" d="M20 1202.5q-8 47.5 10 97t64 80.5q78 47 146 24t118 -99l265 -390l247 381q54 84 120.5 107.5t139.5 -21.5q59 -40 65 -111.5t-36 -131.5l-358 -516h174q58 0 86.5 -31t28.5 -82q0 -48 -28.5 -80.5t-86.5 -32.5h-182v-211q0 -82 -48.5 -134t-136.5 -52t-136 51.5 t-48 134.5v211h-191q-58 0 -86 32t-28 81q0 51 28 82t86 31h177l-355 493q-27 39 -35 86.5z" />
<glyph unicode="&#x4b1;" horiz-adv-x="1026" d="M34.5 834q-1.5 48 24 91.5t78.5 63.5q78 30 140.5 -3t91.5 -112l163 -425l156 417q62 180 215 123q143 -53 66 -231l-279 -613h113q115 0 115 -102q0 -47 -28 -74.5t-87 -27.5h-115v-197q0 -77 -45.5 -125.5t-128.5 -48.5q-82 0 -128 49t-46 125v197h-109 q-59 0 -86.5 27.5t-27.5 74.5q0 102 114 102h103l-277 594q-21 47 -22.5 95z" />
<glyph unicode="&#x4b2;" horiz-adv-x="1415" d="M21 192.5q10 43.5 40 83.5l342 445l-311 387q-31 40 -42.5 87t3.5 95.5t58 83.5q50 41 104 41t95.5 -27t74.5 -71l246 -328l239 322q33 47 70.5 73.5t85 30t94.5 -34.5q44 -33 57.5 -76t1.5 -85.5t-44 -85.5l-306 -390l318 -405h61q87 0 131.5 -51t44.5 -135v-265 q0 -83 -44.5 -134.5t-131.5 -51.5t-131.5 51.5t-44.5 134.5v113q-76 0 -145 92l-283 377l-268 -369q-22 -32 -47 -54t-56.5 -35t-69 -9t-77.5 27q-43 33 -59 76.5t-6 87z" />
<glyph unicode="&#x4b3;" horiz-adv-x="1097" d="M41 162.5q5 60.5 51 109.5l217 232l-184 198q-55 58 -55.5 130t61.5 131q43 37 92 39t91 -23.5t79 -71.5l133 -168l136 170q35 44 72.5 68.5t83.5 24t89 -36.5q59 -55 57 -117t-55 -119l-192 -201l213 -231h18q150 0 150 -166v-188q0 -81 -32.5 -126.5t-113.5 -45.5 q-145 0 -145 172v57q-33 0 -64 23.5t-73 70.5l-168 203l-158 -205q-34 -43 -74 -69t-91.5 -24.5t-94.5 46.5q-48 57 -43 117.5z" />
<glyph unicode="&#x4b6;" horiz-adv-x="1396" d="M74 944v283q0 78 49.5 132t136.5 54q86 0 134 -54t48 -132v-275q0 -99 41 -143.5t111 -44.5q125 0 219 59v404q0 82 48.5 134t137.5 52q88 0 135.5 -52t47.5 -134v-889h4q88 0 130 -50.5t42 -135.5v-265q0 -83 -44.5 -134.5t-131.5 -51.5t-131.5 51.5t-44.5 134.5v113 h-13q-89 0 -134.5 51t-45.5 135v326q-53 -31 -133 -48.5t-148 -17.5q-83 0 -149.5 13.5t-125.5 48t-98 89.5t-62 143t-23 204z" />
<glyph unicode="&#x4b7;" horiz-adv-x="1128" d="M53 657v174q0 75 46 124t128 49t128 -49t46 -124v-186q0 -39 23.5 -59.5t56.5 -20.5q72 0 121 25v241q0 74 46 123.5t128 49.5q83 0 128.5 -49.5t45.5 -123.5v-534h8q132 0 132 -166v-188q0 -81 -32.5 -126.5t-113.5 -45.5q-145 0 -145 172v57h-23q-82 0 -128 49t-46 125 v152q-32 -20 -87.5 -33.5t-102.5 -13.5q-63 0 -114 10t-98 36t-78.5 68t-50 108.5t-18.5 155.5z" />
<glyph unicode="&#x4b8;" horiz-adv-x="1441" d="M72 944v283q0 78 49.5 132t136.5 54q86 0 134 -54t48 -132v-301q0 -149 133 -172v192q0 46 28.5 78.5t78.5 32.5q55 0 83 -32t28 -79v-166q86 33 135 78v369q0 82 48.5 134t137.5 52q87 0 134.5 -52t47.5 -134v-1041q0 -83 -47 -134.5t-135 -51.5q-89 0 -137.5 51.5 t-48.5 134.5v367q-37 -32 -135 -64v-145q0 -49 -28 -81t-83 -32q-50 0 -78.5 32.5t-28.5 80.5v109h-6q-89 0 -159.5 12.5t-135 46t-107 88t-68 141.5t-25.5 203z" />
<glyph unicode="&#x4b9;" horiz-adv-x="1163" d="M55 657v174q0 75 46 124t128 49t128 -49t46 -124v-204q0 -73 76 -80v160q0 35 19 58t57 23q76 0 76 -81v-125q57 34 74 51v198q0 74 46 123.5t128 49.5q83 0 128.5 -49.5t45.5 -123.5v-657q0 -77 -45.5 -125.5t-128.5 -48.5q-82 0 -128 49t-46 125v205q-25 -20 -74 -43 v-111q0 -84 -76 -84q-38 0 -57 23.5t-19 60.5v62q-18 -4 -61 -4q-79 0 -141 17.5t-114 58t-80 116t-28 182.5z" />
<glyph unicode="&#x4ba;" horiz-adv-x="1320" d="M147 186v1041q0 83 47.5 134.5t135.5 51.5q89 0 137.5 -51.5t48.5 -134.5v-326q53 31 133 48.5t148 17.5q83 0 149.5 -13.5t125.5 -48t98 -89.5t62 -143t23 -204v-283q0 -78 -49.5 -132t-136.5 -54q-86 0 -134 54t-48 132v275q0 99 -41 143.5t-111 44.5q-125 0 -219 -59 v-404q0 -82 -48.5 -134t-137.5 -52q-88 0 -135.5 52t-47.5 134z" />
<glyph unicode="&#x4bb;" horiz-adv-x="1202" d="M147 174v1067q0 74 46.5 123t128.5 49q83 0 128.5 -49t45.5 -123v-311q40 41 105.5 67.5t139.5 26.5q188 0 272.5 -112t84.5 -328v-410q0 -77 -46 -125.5t-128 -48.5q-81 0 -127.5 48.5t-46.5 125.5v426q0 57 -27 92t-72 35q-47 0 -79 -24t-48 -70t-22 -96.5t-6 -118.5 v-244q0 -79 -45.5 -126.5t-128.5 -47.5t-129 48.5t-46 125.5z" />
<glyph unicode="&#x4c0;" horiz-adv-x="663" d="M147 186v1041q0 81 48.5 133.5t136.5 52.5t136 -52.5t48 -133.5v-1041q0 -83 -48 -134.5t-136 -51.5t-136.5 52t-48.5 134z" />
<glyph unicode="&#x4c3;" horiz-adv-x="1357" d="M147 186v1041q0 81 48.5 133.5t136.5 52.5t136 -52.5t48 -133.5v-420h55l365 504q59 82 127 98t137 -39q60 -52 55 -123t-65 -141l-281 -338q178 -65 283.5 -221.5t105.5 -374.5q0 -98 -17 -184.5t-54.5 -164t-94 -133t-140 -88t-187.5 -32.5q-146 0 -232 43 q-127 68 -90 211q32 120 170 96q71 -12 127 -12q85 0 127.5 59.5t42.5 204.5q0 168 -102 264t-250 96h-82v-346q0 -83 -48 -134.5t-136 -51.5t-136.5 52t-48.5 134z" />
<glyph unicode="&#x4c4;" horiz-adv-x="1103" d="M113 174v657q0 75 41 124t122 49q82 0 123 -48.5t41 -124.5v-243h52l219 311q112 160 237 72q57 -43 54.5 -105t-56.5 -127l-158 -198q143 -64 213 -182.5t70 -303.5q0 -98 -25 -183.5t-74 -154t-130 -108t-185 -39.5q-113 0 -180 29q-71 30 -99.5 89t-0.5 126 q40 95 158 73q62 -10 83 -10q50 0 77.5 51t27.5 150q0 36 -6.5 71t-23.5 70.5t-42.5 62t-67.5 43.5t-94 17h-49v-168q0 -78 -41 -126t-123 -48q-81 0 -122 48t-41 126z" />
<glyph unicode="&#x4c7;" horiz-adv-x="1505" d="M147 186v1041q0 81 48.5 133.5t136.5 52.5t136 -52.5t48 -133.5v-340h471v340q0 81 49 133.5t138 52.5q87 0 134.5 -52t47.5 -134v-1250q0 -190 -97 -298.5t-282 -108.5q-141 0 -215 47q-106 65 -78 197q12 54 53 83t94 23q15 -2 43.5 -7t43.5 -5q69 0 69 78v573h-471 v-373q0 -83 -48 -134.5t-136 -51.5t-136.5 52t-48.5 134z" />
<glyph unicode="&#x4c8;" horiz-adv-x="1171" d="M111 174v657q0 74 46 123.5t128 49.5q83 0 128.5 -49.5t45.5 -123.5v-161h250v161q0 74 46 123.5t128 49.5q83 0 128.5 -49.5t45.5 -123.5v-862q0 -192 -88.5 -295.5t-272.5 -103.5q-125 0 -190 41q-110 69 -74 190q13 48 51 70t92 16q17 -2 37.5 -6t32.5 -4q64 0 64 78 v407h-250v-188q0 -77 -45.5 -125.5t-128.5 -48.5q-82 0 -128 49t-46 125z" />
<glyph unicode="&#x4d0;" horiz-adv-x="1312" d="M21.5 158.5q3.5 47.5 25.5 101.5l430 1040q29 71 72.5 102.5t107.5 31.5q123 0 174 -119l443 -1049q17 -48 19.5 -95.5t-23.5 -91t-76 -63.5q-85 -33 -150.5 2t-95.5 123l-78 207h-452l-64 -182q-14 -42 -34 -74.5t-51.5 -59t-71 -30t-91.5 11.5q-47 17 -67.5 57 t-17 87.5zM243 1676q0 48 33 81q30 30 64 32t60.5 -12t60.5 -42q70 -58 153 -58q81 0 154 58q34 27 59.5 40t59.5 11.5t65 -29.5q35 -33 34 -80t-34 -86q-107 -123 -338 -123q-106 0 -197 33.5t-141 89.5q-33 37 -33 85zM510 623h264l-133 340z" />
<glyph unicode="&#x4d1;" horiz-adv-x="1062" d="M41 279q0 89 33.5 155t93.5 104t135.5 56t167.5 18q36 0 76 -3.5t62 -6.5l22 -4v53q0 49 -30 73t-112 24q-44 0 -122 -16.5t-105 -20.5q-113 -17 -139 73q-36 122 110 189q111 51 306 51q206 0 312.5 -107.5t106.5 -291.5v-451q0 -76 -42 -125t-125 -49q-111 0 -156 92 q-92 -112 -268 -112q-157 0 -241.5 80.5t-84.5 218.5zM181.5 1313q2.5 49 39.5 78q31 23 63.5 22.5t57 -14.5t55.5 -41q55 -49 125 -49t125 49q31 27 55.5 41t57 14.5t63.5 -22.5q37 -29 40 -78t-27 -90q-88 -121 -314 -121q-225 0 -313 121q-30 41 -27.5 90zM379 322 q0 -38 26.5 -62t71.5 -24q60 0 107 38.5t47 100.5v49q-57 10 -111 10q-141 0 -141 -112z" />
<glyph unicode="&#x4d2;" horiz-adv-x="1312" d="M21.5 158.5q3.5 47.5 25.5 101.5l430 1040q29 71 72.5 102.5t107.5 31.5q123 0 174 -119l443 -1049q17 -48 19.5 -95.5t-23.5 -91t-76 -63.5q-85 -33 -150.5 2t-95.5 123l-78 207h-452l-64 -182q-14 -42 -34 -74.5t-51.5 -59t-71 -30t-91.5 11.5q-47 17 -67.5 57 t-17 87.5zM190 1599q0 73 57.5 107.5t145.5 34.5q91 0 148 -34.5t57 -107.5t-56.5 -106t-148.5 -33q-89 0 -146 33t-57 106zM510 623h264l-133 340zM662 1599q0 73 56.5 107.5t145.5 34.5q90 0 147.5 -34.5t57.5 -107.5t-57 -106t-148 -33q-90 0 -146 33t-56 106z" />
<glyph unicode="&#x4d3;" horiz-adv-x="1062" d="M41 279q0 89 33.5 155t93.5 104t135.5 56t167.5 18q36 0 76 -3.5t62 -6.5l22 -4v53q0 49 -30 73t-112 24q-44 0 -122 -16.5t-105 -20.5q-113 -17 -139 73q-36 122 110 189q111 51 306 51q206 0 312.5 -107.5t106.5 -291.5v-451q0 -76 -42 -125t-125 -49q-111 0 -156 92 q-92 -112 -268 -112q-157 0 -241.5 80.5t-84.5 218.5zM115 1270q0 78 44.5 121t127.5 43q80 0 126 -43.5t46 -120.5q0 -80 -45.5 -122t-126.5 -42q-84 0 -128 41.5t-44 122.5zM379 322q0 -38 26.5 -62t71.5 -24q60 0 107 38.5t47 100.5v49q-57 10 -111 10q-141 0 -141 -112z M557 1270q0 78 44.5 121t127.5 43q80 0 126 -43.5t46 -120.5q0 -80 -45.5 -122t-126.5 -42q-84 0 -128 41.5t-44 122.5z" />
<glyph unicode="&#x4d4;" horiz-adv-x="1783" d="M-20 205.5q12 44.5 40 85.5l715 1020q67 102 180 102h623q85 0 132.5 -43t47.5 -121q0 -74 -48 -119t-132 -45h-453v-204h349q85 0 132.5 -43t47.5 -121q0 -74 -48 -119t-132 -45h-349v-225h471q85 0 133 -43t48 -121q0 -74 -48.5 -119t-132.5 -45h-622q-85 0 -139 54.5 t-54 135.5v76h-346l-90 -153q-20 -34 -47.5 -59.5t-61.5 -41.5t-75.5 -11t-83.5 34q-44 31 -56.5 78.5t-0.5 92zM553 535h188v292z" />
<glyph unicode="&#x4d5;" horiz-adv-x="1579" d="M41 279q0 319 430 319h152v53q0 38 -28 67t-101 30q-39 1 -71.5 -4t-83.5 -18.5t-77 -18.5q-50 -11 -88 9.5t-53 67.5q-40 121 110 189q52 24 135 37.5t166 13.5q199 0 283 -96q121 96 295 96q205 0 312.5 -112t107.5 -306q0 -182 -176 -182h-426q-1 -86 50 -132t134 -46 q23 0 43 2t40.5 7.5t31.5 9t34 12t29 10.5q125 44 170 -41q25 -39 11 -95t-70 -92q-126 -79 -324 -79q-120 0 -205 40t-147 123q-64 -83 -146.5 -123t-216.5 -40q-156 0 -238.5 84t-82.5 215zM379 317q0 -38 26 -59.5t68 -21.5q63 0 106.5 41t43.5 104v43h-103 q-67 0 -104 -27.5t-37 -79.5zM932 598h276q4 24 4 47q0 50 -32 81.5t-93 31.5q-67 0 -109 -39t-46 -121z" />
<glyph unicode="&#x4d6;" d="M147 186v1041q0 81 48.5 133.5t136.5 52.5h651q85 0 132.5 -43t47.5 -121q0 -74 -48 -119t-132 -45h-467v-204h363q85 0 132.5 -43t47.5 -121q0 -74 -48 -119t-132 -45h-363v-225h485q85 0 133 -43t48 -121q0 -74 -48.5 -119t-132.5 -45h-669q-88 0 -136.5 52t-48.5 134z M262 1676q0 48 33 81q30 30 64 32t60 -12t60 -42q70 -58 154 -58q80 0 153 58q34 27 59.5 40t60 11.5t65.5 -29.5q35 -33 34 -80t-34 -86q-107 -123 -338 -123q-106 0 -197 33.5t-141 89.5q-33 37 -33 85z" />
<glyph unicode="&#x4d7;" horiz-adv-x="1064" d="M61 506q0 242 138.5 380t357.5 138q204 0 331.5 -113t127.5 -313q0 -44 -8 -80q-26 -115 -168 -115h-434q7 -74 57.5 -115.5t126.5 -41.5q23 0 44 2.5t42 8.5t34.5 10t35.5 12.5t30 11.5q122 45 172 -43q14 -29 15.5 -62t-18.5 -69t-58 -60q-68 -44 -142.5 -60.5 t-181.5 -16.5q-226 0 -364 138.5t-138 387.5zM177.5 1313q2.5 49 39.5 78q31 23 63.5 22.5t57 -14.5t55.5 -41q55 -49 125 -49t125 49q31 27 55.5 41t57 14.5t63.5 -22.5q37 -29 39.5 -78t-27.5 -90q-88 -121 -313 -121t-313 121q-30 41 -27.5 90zM403 588h291q4 24 4 47 q0 53 -34 88t-97 35q-71 0 -114.5 -43.5t-49.5 -126.5z" />
<glyph unicode="&#x4d8;" horiz-adv-x="1341" d="M57 610q0 154 69.5 216.5t205.5 62.5h561q-6 100 -76.5 158.5t-187.5 58.5q-133 0 -246 -41q-31 -11 -61 -16.5t-62.5 -3.5t-59.5 20.5t-42 52.5q-30 60 -7.5 121.5t95.5 103.5q158 91 391 91q130 0 235 -37t177 -102t120.5 -157.5t70.5 -200t22 -232.5 q0 -111 -19 -211.5t-65 -195t-114.5 -163t-175 -110t-239.5 -41.5q-146 0 -261 48.5t-186 134.5t-108 198t-37 245zM432 592q-4 -141 57.5 -216t169.5 -75q110 0 172 76.5t62 214.5h-461z" />
<glyph unicode="&#x4d9;" horiz-adv-x="1046" d="M47 414q0 92 44.5 139t129.5 47h420q-3 77 -45.5 117.5t-118.5 40.5q-62 0 -182 -33q-135 -39 -172 55q-22 43 -7 95t68 81q125 68 328 68q220 0 346.5 -140.5t126.5 -379.5q0 -248 -132.5 -386t-354.5 -138q-203 0 -327 116t-124 318zM365 416q-3 -78 31 -124t104 -46 q135 0 141 170h-276z" />
<glyph unicode="&#x4da;" horiz-adv-x="1341" d="M57 610q0 154 69.5 216.5t205.5 62.5h561q-6 100 -76.5 158.5t-187.5 58.5q-133 0 -246 -41q-31 -11 -61 -16.5t-62.5 -3.5t-59.5 20.5t-42 52.5q-30 60 -7.5 121.5t95.5 103.5q158 91 391 91q130 0 235 -37t177 -102t120.5 -157.5t70.5 -200t22 -232.5 q0 -111 -19 -211.5t-65 -195t-114.5 -163t-175 -110t-239.5 -41.5q-146 0 -261 48.5t-186 134.5t-108 198t-37 245zM213 1599q0 73 57.5 107.5t145.5 34.5q91 0 148 -34.5t57 -107.5t-56.5 -106t-148.5 -33q-89 0 -146 33t-57 106zM432 592q-4 -141 57.5 -216t169.5 -75 q110 0 172 76.5t62 214.5h-461zM684 1599q0 73 56.5 107.5t146.5 34.5t147.5 -34.5t57.5 -107.5t-57 -106t-148 -33q-90 0 -146.5 33t-56.5 106z" />
<glyph unicode="&#x4db;" horiz-adv-x="1046" d="M47 414q0 92 44.5 139t129.5 47h420q-3 77 -45.5 117.5t-118.5 40.5q-62 0 -182 -33q-135 -39 -172 55q-22 43 -7 95t68 81q125 68 328 68q220 0 346.5 -140.5t126.5 -379.5q0 -248 -132.5 -386t-354.5 -138q-203 0 -327 116t-124 318zM115 1270q0 78 44.5 121t127.5 43 q80 0 126 -43.5t46 -120.5q0 -80 -45.5 -122t-126.5 -42q-84 0 -128 41.5t-44 122.5zM365 416q-3 -78 31 -124t104 -46q135 0 141 170h-276zM557 1270q0 78 44.5 121t127.5 43q80 0 126 -43.5t46 -120.5q0 -80 -45.5 -122t-126.5 -42q-84 0 -128 41.5t-44 122.5z" />
<glyph unicode="&#x4dc;" horiz-adv-x="1880" d="M26.5 185q-2.5 -79 59.5 -136q51 -44 110.5 -47.5t110.5 26.5t88 83l381 518v-443q0 -85 41 -135.5t127 -50.5t127 50.5t41 135.5v443l401 -547q53 -72 137.5 -79.5t141.5 46.5q36 32 51.5 76.5t4 99.5t-53.5 107l-334 401l293 381q54 72 52 143t-62 115 q-63 52 -141.5 35t-135.5 -102l-354 -502v424q0 84 -41 135t-127 51t-127 -51t-41 -135v-416l-352 496q-58 87 -141.5 104t-151.5 -41q-58 -50 -57.5 -129.5t57.5 -148.5l303 -365l-344 -393q-61 -70 -63.5 -149zM504 1599q0 73 57.5 107.5t145.5 34.5q91 0 147.5 -34.5 t56.5 -107.5t-56 -106t-148 -33q-89 0 -146 33t-57 106zM975 1599q0 73 56.5 107.5t146.5 34.5t147 -34.5t57 -107.5t-57 -106t-147 -33t-146.5 33t-56.5 106z" />
<glyph unicode="&#x4dd;" horiz-adv-x="1474" d="M35 168q4 73 57 127l205 215l-182 219q-47 58 -47 126.5t47 109.5q64 52 135.5 36t118.5 -88l219 -327v252q0 166 147 166q148 0 148 -166v-269l225 344q46 71 116 86t132 -34q49 -39 49.5 -102.5t-45.5 -121.5l-186 -233l206 -213q53 -58 58.5 -124.5t-47.5 -121.5 q-69 -62 -145.5 -49.5t-125.5 84.5l-237 346v-262q0 -80 -33.5 -124t-114.5 -44q-80 0 -113.5 44t-33.5 124v272l-236 -348q-49 -73 -126.5 -88t-145.5 45q-49 46 -45 119zM344 1270q0 78 44.5 121t127.5 43q80 0 126 -43.5t46 -120.5q0 -80 -45.5 -122t-126.5 -42 q-84 0 -128 41.5t-44 122.5zM786 1270q0 78 44.5 121t127.5 43q80 0 126 -43.5t46 -120.5q0 -80 -45.5 -122t-126.5 -42q-84 0 -128 41.5t-44 122.5z" />
<glyph unicode="&#x4de;" horiz-adv-x="1218" d="M54.5 160.5q-28.5 63.5 2.5 136.5q57 130 250 55q119 -45 234 -45q215 0 215 146q0 121 -187 127h-192q-65 0 -104.5 36.5t-39.5 100.5q0 62 40 100.5t104 38.5h162q85 0 130.5 32t45.5 93q0 125 -183 125q-88 0 -215 -43q-27 -9 -47.5 -14.5t-49 -7.5t-50 4t-43 24.5 t-35.5 48.5q-27 53 -6 116.5t86 104.5q69 43 182 69t219 26q245 0 388 -97t143 -286q0 -92 -45 -170.5t-127 -118.5q105 -40 159 -121t54 -188q0 -108 -33.5 -192t-89.5 -136t-135.5 -85.5t-163.5 -46.5t-182 -13q-236 0 -379 75q-79 42 -107.5 105.5zM139 1599 q0 73 57.5 107.5t145.5 34.5q91 0 148 -34.5t57 -107.5t-56.5 -106t-148.5 -33q-89 0 -146 33t-57 106zM610 1599q0 73 56.5 107.5t146.5 34.5t147.5 -34.5t57.5 -107.5t-57 -106t-148 -33q-90 0 -146.5 33t-56.5 106z" />
<glyph unicode="&#x4df;" horiz-adv-x="937" d="M47 121.5q-18 51.5 4 101.5q20 49 55.5 66t108.5 4q138 -27 195 -27q63 0 89.5 20t26.5 48q0 33 -24 47t-76 14h-113q-79 0 -110 26t-31 81q0 57 33 82.5t108 25.5h105q82 0 82 64q0 29 -25 46t-65 17q-81 0 -160 -26q-139 -47 -182 57q-22 50 -4 102t75 86 q111 68 316 68q189 0 291 -76.5t102 -202.5q0 -76 -36 -137t-97 -82q73 -23 116 -83t43 -136q0 -160 -108 -243.5t-324 -83.5q-225 0 -321 57q-56 33 -74 84.5zM59 1270q0 78 44.5 121t127.5 43q80 0 126 -43.5t46 -120.5q0 -80 -45.5 -122t-126.5 -42q-84 0 -128 41.5 t-44 122.5zM502 1270q0 78 44.5 121t127.5 43q80 0 126 -43.5t46 -120.5q0 -80 -45.5 -122t-126.5 -42q-84 0 -128 41.5t-44 122.5z" />
<glyph unicode="&#x4e2;" horiz-adv-x="1505" d="M147 186v1041q0 80 47 133t138 53q90 0 137 -53.5t47 -132.5v-609q0 -1 123.5 173t246.5 348l124 174q70 100 170 100q91 0 134.5 -51.5t43.5 -134.5v-1041q0 -81 -46 -133.5t-136 -52.5q-92 0 -139.5 53t-47.5 133v600l-495 -682q-83 -104 -168 -104q-87 0 -133 48 t-46 138zM387 1585q0 58 34 84.5t109 26.5h449q75 0 109 -26.5t34 -84.5q0 -56 -34.5 -83t-108.5 -27h-449q-74 0 -108.5 27t-34.5 83z" />
<glyph unicode="&#x4e3;" horiz-adv-x="1173" d="M113 174v657q0 75 46 124t128 49t126 -48.5t44 -124.5v-315l274 381q70 107 168 107q82 0 122 -48t40 -125v-657q0 -78 -45 -126t-129 -48q-82 0 -126 48t-44 126v311l-289 -399q-58 -86 -152 -86q-81 0 -122 47.5t-41 126.5zM248 1229q0 59 34 85.5t109 26.5h414 q75 0 109 -26.5t34 -85.5q0 -113 -143 -113h-414q-143 0 -143 113z" />
<glyph unicode="&#x4e4;" horiz-adv-x="1505" d="M147 186v1041q0 80 47 133t138 53q90 0 137 -53.5t47 -132.5v-609q0 -1 123.5 173t246.5 348l124 174q70 100 170 100q91 0 134.5 -51.5t43.5 -134.5v-1041q0 -81 -46 -133.5t-136 -52.5q-92 0 -139.5 53t-47.5 133v600l-495 -682q-83 -104 -168 -104q-87 0 -133 48 t-46 138zM317 1599q0 73 57.5 107.5t145.5 34.5q91 0 148 -34.5t57 -107.5t-56.5 -106t-148.5 -33q-89 0 -146 33t-57 106zM788 1599q0 73 56.5 107.5t146.5 34.5t147.5 -34.5t57.5 -107.5t-57 -106t-148 -33q-90 0 -146.5 33t-56.5 106z" />
<glyph unicode="&#x4e5;" horiz-adv-x="1173" d="M113 174v657q0 75 46 124t128 49t126 -48.5t44 -124.5v-315l274 381q70 107 168 107q82 0 122 -48t40 -125v-657q0 -78 -45 -126t-129 -48q-82 0 -126 48t-44 126v311l-289 -399q-58 -86 -152 -86q-81 0 -122 47.5t-41 126.5zM203 1270q0 78 44.5 121t127.5 43 q80 0 126 -43.5t46 -120.5q0 -80 -45.5 -122t-126.5 -42q-84 0 -128 41.5t-44 122.5zM645 1270q0 78 44.5 121t127.5 43q80 0 126 -43.5t46 -120.5q0 -80 -45.5 -122t-126.5 -42q-84 0 -128 41.5t-44 122.5z" />
<glyph unicode="&#x4e6;" horiz-adv-x="1531" d="M74 707q0 155 45 287t130 230.5t217.5 154t299.5 55.5t299.5 -55.5t217.5 -154t130 -230.5t45 -287t-45 -287t-130 -230.5t-217.5 -154t-299.5 -55.5t-299.5 55.5t-217.5 154t-130 230.5t-45 287zM319 1599q0 73 57.5 107.5t145.5 34.5q91 0 148 -34.5t57 -107.5 t-56.5 -106t-148.5 -33q-89 0 -146 33t-57 106zM463 707q0 -115 31 -203t100.5 -142.5t171.5 -54.5t171.5 54.5t100.5 142.5t31 203t-31 203t-100.5 142t-171.5 54t-171.5 -54t-100.5 -142t-31 -203zM791 1599q0 73 56.5 107.5t145.5 34.5q90 0 147.5 -34.5t57.5 -107.5 t-57 -106t-148 -33q-90 0 -146 33t-56 106z" />
<glyph unicode="&#x4e7;" horiz-adv-x="1122" d="M59 502q0 235 134.5 378.5t367.5 143.5t367.5 -144t134.5 -378q0 -235 -134.5 -378.5t-367.5 -143.5t-367.5 143.5t-134.5 378.5zM145 1270q0 78 44.5 121t127.5 43q80 0 126 -43.5t46 -120.5q0 -80 -45.5 -122t-126.5 -42q-84 0 -128 41.5t-44 122.5zM418 502 q0 -63 13 -114t46.5 -86.5t83.5 -35.5q144 0 144 236q0 235 -144 235q-40 0 -69 -20t-44.5 -54.5t-22.5 -74t-7 -86.5zM588 1270q0 78 44.5 121t127.5 43q80 0 126 -43.5t46 -120.5q0 -80 -45.5 -122t-126.5 -42q-84 0 -128 41.5t-44 122.5z" />
<glyph unicode="&#x4e8;" horiz-adv-x="1531" d="M74 707q0 156 45 288t130 230.5t217.5 153.5t299.5 55t299.5 -55t217.5 -153.5t130 -230.5t45 -288t-45 -288t-130 -230.5t-217.5 -153.5t-299.5 -55t-299.5 55t-217.5 153.5t-130 230.5t-45 288zM467 561q19 -115 98 -184.5t201 -69.5t200 69.5t97 184.5h-596zM467 848 h598q-19 116 -98.5 187t-200.5 71q-123 0 -202 -71t-97 -187z" />
<glyph unicode="&#x4e9;" horiz-adv-x="1122" d="M59 502q0 234 133.5 378t368.5 144q234 0 368 -144.5t134 -377.5q0 -234 -133.5 -378t-368.5 -144t-368.5 144t-133.5 378zM416 414q8 -64 47 -106t98 -42q63 0 101.5 41.5t44.5 106.5h-291zM416 598h289q-8 62 -45 100.5t-99 38.5q-60 0 -98 -38.5t-47 -100.5z" />
<glyph unicode="&#x4ea;" horiz-adv-x="1531" d="M74 707q0 156 45 288t130 230.5t217.5 153.5t299.5 55t299.5 -55t217.5 -153.5t130 -230.5t45 -288t-45 -288t-130 -230.5t-217.5 -153.5t-299.5 -55t-299.5 55t-217.5 153.5t-130 230.5t-45 288zM328 1599q0 73 57 107.5t145 34.5q91 0 148 -34.5t57 -107.5t-56.5 -106 t-148.5 -33q-89 0 -145.5 33t-56.5 106zM467 561q19 -115 98 -184.5t201 -69.5t200 69.5t97 184.5h-596zM467 848h598q-19 116 -98.5 187t-200.5 71q-123 0 -202 -71t-97 -187zM799 1599q0 73 56.5 107.5t145.5 34.5q90 0 147.5 -34.5t57.5 -107.5t-57 -106t-148 -33 q-90 0 -146 33t-56 106z" />
<glyph unicode="&#x4eb;" horiz-adv-x="1122" d="M59 502q0 234 133.5 378t368.5 144q234 0 368 -144.5t134 -377.5q0 -234 -133.5 -378t-368.5 -144t-368.5 144t-133.5 378zM168 1270q0 78 44.5 121t127.5 43q80 0 126 -43.5t46 -120.5q0 -80 -45.5 -122t-126.5 -42q-84 0 -128 41.5t-44 122.5zM416 414q8 -64 47 -106 t98 -42q63 0 101.5 41.5t44.5 106.5h-291zM416 598h289q-8 62 -45 100.5t-99 38.5q-60 0 -98 -38.5t-47 -100.5zM610 1270q0 78 44.5 121t127.5 43q80 0 126 -43.5t46 -120.5q0 -80 -45.5 -122t-126.5 -42q-84 0 -128 41.5t-44 122.5z" />
<glyph unicode="&#x4ee;" d="M27.5 1263.5q9.5 83.5 87.5 125.5q163 87 270 -115l291 -526l211 516q78 193 239 135q53 -19 76 -62.5t20 -91t-24 -100.5l-321 -733q-45 -106 -89.5 -182t-97.5 -134.5t-116 -87t-138 -28.5q-134 0 -221 45q-69 37 -97.5 96.5t-6.5 126.5q20 63 68.5 84t103.5 8 q9 -2 38.5 -10.5t50 -12.5t38.5 -4q61 0 98 97l-434 682q-56 88 -46.5 171.5zM262 1585q0 58 34.5 84.5t109.5 26.5h448q75 0 109 -26.5t34 -84.5q0 -56 -34.5 -83t-108.5 -27h-448q-74 0 -109 27t-35 83z" />
<glyph unicode="&#x4ef;" horiz-adv-x="1013" d="M-25.5 -308q-22.5 55 2.5 115q36 91 142 72l43 -11q43 -11 71 -11q46 0 72.5 32.5t59.5 108.5l-342 745q-21 47 -22 94.5t24.5 89.5t76.5 62q84 31 144.5 -1t89.5 -116l176 -450q1 -1 39.5 108t76.5 218l38 110q59 188 219 137q40 -12 62.5 -39t27 -61.5t-0.5 -68.5 t-18 -68l-309 -764q-92 -237 -182.5 -330.5t-226.5 -93.5q-108 0 -177 35q-64 32 -86.5 87zM137 1229q0 58 34.5 85t109.5 27h413q75 0 109.5 -27t34.5 -85q0 -113 -144 -113h-413q-144 0 -144 113z" />
<glyph unicode="&#x4f0;" d="M27.5 1263.5q9.5 83.5 87.5 125.5q163 87 270 -115l291 -526l211 516q78 193 239 135q53 -19 76 -62.5t20 -91t-24 -100.5l-321 -733q-45 -106 -89.5 -182t-97.5 -134.5t-116 -87t-138 -28.5q-134 0 -221 45q-69 37 -97.5 96.5t-6.5 126.5q20 63 68.5 84t103.5 8 q9 -2 38.5 -10.5t50 -12.5t38.5 -4q61 0 98 97l-434 682q-56 88 -46.5 171.5zM209 1599q0 73 57.5 107.5t145.5 34.5q91 0 147.5 -34.5t56.5 -107.5t-56 -106t-148 -33q-89 0 -146 33t-57 106zM680 1599q0 73 56.5 107.5t146.5 34.5t147 -34.5t57 -107.5t-57 -106t-147 -33 t-146.5 33t-56.5 106z" />
<glyph unicode="&#x4f1;" horiz-adv-x="1013" d="M-25.5 -308q-22.5 55 2.5 115q36 91 142 72l43 -11q43 -11 71 -11q46 0 72.5 32.5t59.5 108.5l-342 745q-21 47 -22 94.5t24.5 89.5t76.5 62q84 31 144.5 -1t89.5 -116l176 -450q1 -1 39.5 108t76.5 218l38 110q59 188 219 137q40 -12 62.5 -39t27 -61.5t-0.5 -68.5 t-18 -68l-309 -764q-92 -237 -182.5 -330.5t-226.5 -93.5q-108 0 -177 35q-64 32 -86.5 87zM115 1270q0 78 44.5 121t127.5 43q80 0 126 -43.5t46 -120.5q0 -80 -45.5 -122t-126.5 -42q-84 0 -128 41.5t-44 122.5zM557 1270q0 78 44.5 121t127.5 43q80 0 126 -43.5 t46 -120.5q0 -80 -45.5 -122t-126.5 -42q-84 0 -128 41.5t-44 122.5z" />
<glyph unicode="&#x4f2;" horiz-adv-x="1196" d="M27.5 1263.5q9.5 83.5 87.5 125.5q163 87 270 -115l291 -526l211 516q78 193 239 135q53 -19 76 -62.5t20 -91t-24 -100.5l-321 -733q-45 -106 -89.5 -182t-97.5 -134.5t-116 -87t-138 -28.5q-134 0 -221 45q-69 37 -97.5 96.5t-6.5 126.5q20 63 68.5 84t103.5 8 q9 -2 38.5 -10.5t50 -12.5t38.5 -4q61 0 98 97l-434 682q-56 88 -46.5 171.5zM234 1626.5q17 46.5 77 81.5l219 121q60 34 110 27t77 -56q26 -56 5 -100t-81 -76l-217 -117q-123 -69 -182 33q-25 40 -8 86.5zM731 1624.5q17 47.5 78 79.5l217 121q60 36 110.5 29.5 t77.5 -56.5q26 -56 5 -99.5t-80 -74.5l-219 -119q-126 -68 -181 31q-25 41 -8 88.5z" />
<glyph unicode="&#x4f3;" horiz-adv-x="968" d="M-25.5 -308q-22.5 55 2.5 115q36 91 142 72l43 -11q43 -11 71 -11q46 0 72.5 32.5t59.5 108.5l-342 745q-21 47 -22 94.5t24.5 89.5t76.5 62q84 31 144.5 -1t89.5 -116l176 -450q1 -1 39.5 108t76.5 218l38 110q59 188 219 137q40 -12 62.5 -39t27 -61.5t-0.5 -68.5 t-18 -68l-309 -764q-92 -237 -182.5 -330.5t-226.5 -93.5q-108 0 -177 35q-64 32 -86.5 87zM159.5 1254.5q8.5 44.5 57.5 82.5l152 125q47 38 91 37t75 -39q29 -34 22 -77.5t-53 -82.5l-152 -124q-48 -39 -92 -38.5t-76 36.5q-33 36 -24.5 80.5zM536.5 1254.5 q8.5 44.5 57.5 82.5l151 125q47 38 91 37t75 -39q29 -34 22.5 -78t-52.5 -82l-152 -124q-48 -39 -92 -38.5t-76 36.5q-33 36 -24.5 80.5z" />
<glyph unicode="&#x4f4;" horiz-adv-x="1329" d="M74 944q0 -116 23 -204t62 -143t98 -89.5t125.5 -48t149.5 -13.5q68 0 148 17.5t133 48.5v-326q0 -83 48.5 -134.5t137.5 -51.5q88 0 135.5 51.5t47.5 134.5v1041q0 82 -47.5 134t-135.5 52q-89 0 -137.5 -52t-48.5 -134v-404q-94 -59 -219 -59q-70 0 -111 44.5 t-41 143.5v275q0 78 -48 132t-134 54q-87 0 -136.5 -54t-49.5 -132v-283zM201 1599q0 73 57 107.5t145 34.5q91 0 148 -34.5t57 -107.5t-56.5 -106t-148.5 -33q-89 0 -145.5 33t-56.5 106zM672 1599q0 73 56.5 107.5t145.5 34.5q90 0 147.5 -34.5t57.5 -107.5t-57 -106 t-148 -33q-90 0 -146 33t-56 106z" />
<glyph unicode="&#x4f5;" horiz-adv-x="1062" d="M55 641v190q0 75 46 124t128 49t128 -49t46 -124v-186q0 -40 21.5 -60t58.5 -20q72 0 121 25v241q0 74 46 123.5t128 49.5q83 0 128.5 -49.5t45.5 -123.5v-657q0 -77 -45.5 -125.5t-128.5 -48.5q-82 0 -128 49t-46 125v152q-32 -22 -90 -34.5t-108 -12.5 q-80 0 -140.5 16.5t-109.5 55.5t-75 112t-26 178zM123 1270q0 78 44.5 121t127.5 43q80 0 126 -43.5t46 -120.5q0 -80 -45.5 -122t-126.5 -42q-84 0 -128 41.5t-44 122.5zM565 1270q0 78 44.5 121t127.5 43q80 0 126 -43.5t46 -120.5q0 -80 -45.5 -122t-126.5 -42 q-84 0 -128 41.5t-44 122.5z" />
<glyph unicode="&#x4f8;" horiz-adv-x="1843" d="M145 217q0 -173 179 -203q151 -24 323 -24q159 0 279 55t190 168t70 272q0 227 -137 343t-379 116q-78 0 -156 -10v293q0 83 -48 134.5t-136 51.5t-136.5 -52t-48.5 -134v-1010zM481 1599q0 73 57.5 107.5t145.5 34.5q91 0 148 -34.5t57 -107.5t-56.5 -106t-148.5 -33 q-89 0 -146 33t-57 106zM514 322v288q49 6 117 6q94 0 140 -34.5t46 -112.5q0 -73 -47 -112.5t-137 -39.5q-73 0 -119 5zM952 1599q0 73 56.5 107.5t146.5 34.5t147.5 -34.5t57.5 -107.5t-57 -106t-148 -33q-90 0 -146.5 33t-56.5 106zM1327 186q0 -83 48 -134.5t136 -51.5 t136.5 52t48.5 134v1041q0 81 -48.5 133.5t-136.5 52.5t-136 -52.5t-48 -133.5v-1041z" />
<glyph unicode="&#x4f9;" horiz-adv-x="1464" d="M111 199v632q0 75 41 124t122 49q82 0 123 -48.5t41 -124.5v-155q62 12 140 12q99 0 172.5 -27t116 -74.5t63 -106.5t20.5 -128q0 -44 -10.5 -88.5t-40.5 -95t-76 -89t-125 -64t-180 -25.5q-164 0 -266 20q-80 16 -110.5 62.5t-30.5 126.5zM358 1270q0 78 44.5 121 t127.5 43q80 0 126 -43.5t46 -120.5q0 -80 -45.5 -122t-126.5 -42q-84 0 -128 41.5t-44 122.5zM438 268q25 -2 80 -2q58 0 86.5 24.5t28.5 67.5q0 45 -27 70t-80 25q-25 0 -88 -7v-178zM801 1270q0 78 44.5 121t127.5 43q80 0 126 -43.5t46 -120.5q0 -80 -45.5 -122 t-126.5 -42q-84 0 -128 41.5t-44 122.5zM1026 174v657q0 75 41.5 124t122.5 49q82 0 123 -48.5t41 -124.5v-657q0 -78 -41 -126t-123 -48q-81 0 -122.5 48t-41.5 126z" />
<glyph unicode="&#x2000;" horiz-adv-x="928" />
<glyph unicode="&#x2001;" horiz-adv-x="1857" />
<glyph unicode="&#x2002;" horiz-adv-x="928" />
<glyph unicode="&#x2003;" horiz-adv-x="1857" />
<glyph unicode="&#x2004;" horiz-adv-x="619" />
<glyph unicode="&#x2005;" horiz-adv-x="464" />
<glyph unicode="&#x2006;" horiz-adv-x="309" />
<glyph unicode="&#x2007;" horiz-adv-x="309" />
<glyph unicode="&#x2008;" horiz-adv-x="232" />
<glyph unicode="&#x2009;" horiz-adv-x="371" />
<glyph unicode="&#x200a;" horiz-adv-x="103" />
<glyph unicode="&#x2010;" horiz-adv-x="1009" d="M106 543q0 70 46.5 111.5t119.5 41.5h465q74 0 120 -41.5t46 -111.5q0 -73 -45.5 -113.5t-120.5 -40.5h-465q-74 0 -120 40.5t-46 113.5z" />
<glyph unicode="&#x2011;" horiz-adv-x="1009" d="M106 543q0 70 46.5 111.5t119.5 41.5h465q74 0 120 -41.5t46 -111.5q0 -73 -45.5 -113.5t-120.5 -40.5h-465q-74 0 -120 40.5t-46 113.5z" />
<glyph unicode="&#x2012;" horiz-adv-x="1009" d="M106 543q0 70 46.5 111.5t119.5 41.5h465q74 0 120 -41.5t46 -111.5q0 -73 -45.5 -113.5t-120.5 -40.5h-465q-74 0 -120 40.5t-46 113.5z" />
<glyph unicode="&#x2013;" horiz-adv-x="1009" d="M106 543q0 70 46.5 111.5t119.5 41.5h465q74 0 120 -41.5t46 -111.5q0 -73 -45.5 -113.5t-120.5 -40.5h-465q-74 0 -120 40.5t-46 113.5z" />
<glyph unicode="&#x2014;" horiz-adv-x="1376" d="M106 543q0 70 46.5 111.5t119.5 41.5h832q74 0 120 -41.5t46 -111.5q0 -73 -45.5 -113.5t-120.5 -40.5h-832q-74 0 -120 40.5t-46 113.5z" />
<glyph unicode="&#x2018;" horiz-adv-x="569" d="M46 1470.5q-4 36.5 12.5 73t54.5 58.5q61 37 120.5 15t96.5 -97l143 -265q39 -69 31.5 -127t-60.5 -90q-66 -40 -123.5 -21t-95.5 95l-157 289q-18 33 -22 69.5z" />
<glyph unicode="&#x2019;" horiz-adv-x="567" d="M61.5 1128q-6.5 58 32.5 127l144 265q36 74 95 96t122 -14q38 -21 53.5 -57.5t11 -72.5t-23.5 -69l-154 -291q-38 -76 -96.5 -95t-124.5 21q-53 32 -59.5 90z" />
<glyph unicode="&#x201a;" horiz-adv-x="532" d="M-22.5 -123q-6.5 58 32.5 127l144 264q36 74 95 96t122 -14q38 -21 53.5 -57t11 -72t-23.5 -69l-154 -291q-38 -76 -96.5 -95t-124.5 21q-53 32 -59.5 90z" />
<glyph unicode="&#x201c;" horiz-adv-x="972" d="M46.5 1472q-4.5 36 11 72.5t53.5 57.5q63 36 122 14t95 -96l143 -265q39 -69 32.5 -127t-59.5 -90q-66 -40 -124.5 -21t-96.5 95l-153 291q-19 33 -23.5 69zM451.5 1472q-4.5 36 11 72.5t53.5 57.5q63 36 122 14t95 -96l144 -265q39 -69 32.5 -127t-59.5 -90 q-66 -40 -124.5 -21t-96.5 95l-154 291q-19 33 -23.5 69z" />
<glyph unicode="&#x201d;" horiz-adv-x="972" d="M61.5 1128q-6.5 58 32.5 127l144 265q36 74 95 96t122 -14q38 -21 53.5 -57.5t11 -72.5t-23.5 -69l-154 -291q-38 -76 -96.5 -95t-124.5 21q-53 32 -59.5 90zM467 1128.5q-6 58.5 33 126.5l143 265q36 74 95 96t122 -14q38 -21 53.5 -57.5t11 -72.5t-23.5 -69l-153 -291 q-38 -76 -97 -95t-125 21q-53 32 -59 90.5z" />
<glyph unicode="&#x201e;" horiz-adv-x="937" d="M-22.5 -123q-6.5 58 32.5 127l144 264q36 74 95 96t122 -14q38 -21 53.5 -57t11 -72t-23.5 -69l-154 -291q-38 -76 -96.5 -95t-124.5 21q-53 32 -59.5 90zM383 -122.5q-6 58.5 33 126.5l143 264q36 74 95 96t122 -14q38 -21 53.5 -57t11 -72t-23.5 -69l-153 -291 q-38 -76 -97 -95t-125 21q-53 32 -59 90.5z" />
<glyph unicode="&#x2022;" horiz-adv-x="858" d="M133 616q0 129 76 214t219 85t221 -85.5t78 -213.5q0 -130 -77.5 -212t-221.5 -82t-219.5 81.5t-75.5 212.5z" />
<glyph unicode="&#x2026;" horiz-adv-x="1613" d="M92 193q0 82 52 138t143 56q90 0 142 -56t52 -138q0 -83 -51.5 -138t-142.5 -55q-92 0 -143.5 55t-51.5 138zM612 193q0 82 52 138t143 56q90 0 142 -56t52 -138q0 -83 -51.5 -138t-142.5 -55q-92 0 -143.5 55t-51.5 138zM1133 193q0 82 51.5 138t142.5 56 q90 0 142.5 -56t52.5 -138q0 -83 -52 -138t-143 -55q-92 0 -143 55t-51 138z" />
<glyph unicode="&#x202f;" horiz-adv-x="371" />
<glyph unicode="&#x2039;" horiz-adv-x="755" d="M65.5 507q1.5 72 63.5 132l258 248q55 57 122.5 60.5t121.5 -50.5q49 -55 39.5 -116t-68.5 -119l-168 -154l172 -156q57 -57 65 -124t-46 -122q-55 -47 -119.5 -39t-116.5 58l-264 248q-61 62 -59.5 134z" />
<glyph unicode="&#x203a;" horiz-adv-x="755" d="M85 781q-8 67 46 122q55 47 119.5 39.5t116.5 -57.5l264 -248q61 -62 59.5 -134t-63.5 -132l-258 -248q-55 -57 -122.5 -60.5t-121.5 50.5q-49 55 -39.5 116t68.5 119l168 154l-172 155q-57 57 -65 124z" />
<glyph unicode="&#x205f;" horiz-adv-x="464" />
<glyph unicode="&#x20ac;" horiz-adv-x="1316" d="M55 555q0 102 111 102h33v50v41h-33q-56 0 -83.5 27.5t-27.5 74.5q0 102 111 102h57q43 227 199 354.5t401 127.5q185 0 310 -70q38 -21 58.5 -52.5t20.5 -62.5t-10 -61q-21 -54 -62 -70.5t-118 2.5q-110 27 -195 27q-231 0 -284 -195h377q110 0 110 -102 q0 -47 -27 -74.5t-83 -27.5h-410v-43v-48h410q110 0 110 -102q0 -47 -27 -74.5t-83 -27.5h-373q60 -187 287 -187q97 0 200 53q130 66 191 -26q33 -46 13 -112t-85 -109q-139 -92 -350 -92q-241 0 -393 124.5t-187 348.5h-57q-56 0 -83.5 27.5t-27.5 74.5z" />
<glyph unicode="&#x2122;" horiz-adv-x="1959" d="M94 1270q0 71 43.5 107t118.5 36h463q72 0 118 -38.5t46 -106.5q0 -142 -164 -142h-57v-319q0 -69 -49 -117.5t-128 -48.5q-81 0 -126.5 48t-45.5 118v319h-57q-162 0 -162 144zM934 791v503q0 63 34.5 101.5t96.5 38.5q49 0 82.5 -22t60.5 -64l178 -265l179 254 q32 46 64.5 71.5t80.5 25.5q66 0 94.5 -41t28.5 -107v-495q0 -67 -36.5 -108.5t-106.5 -41.5t-107 43t-37 107v165q-42 -66 -78 -95.5t-84 -29.5q-44 0 -81.5 27t-81.5 84v-151q0 -65 -36.5 -107.5t-107.5 -42.5q-70 0 -106.5 43t-36.5 107z" />
<glyph unicode="&#x25fc;" horiz-adv-x="1003" d="M0 0v1004h1004v-1004h-1004z" />
</font>
</defs>
</svg>
