<?xml version="1.0" encoding="utf-8"?>
<!-- Generator: Adobe Illustrator 18.0.0, SVG Export Plug-In . SVG Version: 6.00 Build 0)  -->
<!DOCTYPE svg PUBLIC "-//W3C//DTD SVG 1.1//EN" "http://www.w3.org/Graphics/SVG/1.1/DTD/svg11.dtd">
<svg version="1.1" id="Layer_1" xmlns="http://www.w3.org/2000/svg" xmlns:xlink="http://www.w3.org/1999/xlink" x="0px" y="0px"
	 viewBox="0 0 63.3 39.2" enable-background="new 0 0 63.3 39.2" xml:space="preserve">
<path fill="#26365C" d="M24.4,20.2h-6.6V19h1.6c4.7,0,7-1.4,7-6.4c0-4.9-1.9-5.6-5.9-5.6c-1.7,0-3.5,0.1-5,0.3c-0.7,0.1-1,0.3-1,1.1
	v11.7h-1c-0.7,0-1.3,0.6-1.3,1.3v0c0,0.7,0.6,1.3,1.3,1.3h1v1.6c0,0.8,0.4,1,1.7,1c1.3,0,1.7-0.1,1.7-1v-1.6h6.6
	c0.7,0,1.3-0.6,1.3-1.3v0C25.7,20.7,25.1,20.2,24.4,20.2z M17.8,10c0.6-0.1,1.5-0.1,2.3-0.1c2.2,0,2.8,0.5,2.8,3
	c0,2.7-0.6,3.4-3.3,3.4h-1.8V10z"/>
<path fill="#26365C" d="M6.3,33.6H57c0.7,0,1.3-0.6,1.3-1.3V1.3C58.4,0.6,57.8,0,57,0H6.3C5.6,0,5,0.6,5,1.3v30.9
	C5,33,5.6,33.6,6.3,33.6z M31.7,0.8c0.5,0,0.8,0.4,0.8,0.8c0,0.5-0.4,0.8-0.8,0.8c-0.5,0-0.8-0.4-0.8-0.8
	C30.8,1.2,31.2,0.8,31.7,0.8z M8.3,3.2h46.8v27.1H8.3V3.2z"/>
<path fill="#26365C" d="M63.3,35H41.4c0,0.4-0.4,0.8-0.9,0.8H22.8c-0.5,0-0.8-0.4-0.9-0.8H0c0,0.1,0,0.2,0,0.3v1
	c0,1.6,1.3,2.9,2.9,2.9h57.6c1.6,0,2.9-1.3,2.9-2.9v-1C63.3,35.2,63.3,35.1,63.3,35z"/>
<polygon fill="#26365C" points="34.1,10.1 38.3,26.3 41.1,21.2 46.2,26.3 50.3,22.3 45.2,17.2 50.3,14.4 "/>
</svg>
