<?xml version="1.0" encoding="utf-8"?>
<!DOCTYPE svg PUBLIC "-//W3C//DTD SVG 1.1//EN" "http://www.w3.org/Graphics/SVG/1.1/DTD/svg11.dtd">
<svg version="1.1" baseProfile="full"
 xmlns="http://www.w3.org/2000/svg"
 xmlns:xlink="http://www.w3.org/1999/xlink"
 xmlns:ev="http://www.w3.org/2001/xml-events" 
  height="51px" 
  width="171px" 
>
<path fill="rgb( 130, 205, 23 )"
 d="M145.957,0.999 C127.949,0.999 5.83199999999999,0.999 5.83199999999999,0.999 C2.61099999999999,0.999 0,3.64099999999999 0,6.90100000000001 C0,6.90100000000001 0,45.097 0,45.097 C0,48.356 2.61099999999999,50.999 5.83199999999999,50.999 C5.83199999999999,50.999 128.108,50.999 145.991,50.999 C148.783,50.577 148.455,50.274 150.361,48.956 C154.307,45.31 162.585,35.61 167.405,30.761 C167.693,30.472 170.768,26.815 167.547,23.397 C163.521,19.125 156.034,7.952 150.147,2.77799999999999 C148.827,1.828 148.642,1.315 145.957,0.999 Z "/>
</svg>
