<?xml version="1.0" encoding="utf-8"?>
<!-- Generator: Adobe Illustrator 18.0.0, SVG Export Plug-In . SVG Version: 6.00 Build 0)  -->
<!DOCTYPE svg PUBLIC "-//W3C//DTD SVG 1.1//EN" "http://www.w3.org/Graphics/SVG/1.1/DTD/svg11.dtd">
<svg version="1.1" id="Calque_1" xmlns="http://www.w3.org/2000/svg" xmlns:xlink="http://www.w3.org/1999/xlink" x="0px" y="0px"
	 viewBox="0 0 69.6 55.3" enable-background="new 0 0 69.6 55.3" xml:space="preserve">
<g>
	<path fill="#E47479" d="M39.3,18.4H9.8c-0.8,0-1.5,0.7-1.5,1.5s0.7,1.5,1.5,1.5h27.4C37.8,20.4,38.5,19.4,39.3,18.4z"/>
	<path fill="#E47479" d="M9.8,28h25.6c0.1-1,0.2-2,0.4-3h-26c-0.8,0-1.5,0.7-1.5,1.5C8.3,27.3,9,28,9.8,28z"/>
	<path fill="#E47479" d="M9.8,34.5h26.6c-0.4-1-0.7-2-0.8-3H9.8c-0.8,0-1.5,0.7-1.5,1.5C8.3,33.9,9,34.5,9.8,34.5z"/>
	<path fill="#E47479" d="M5,41.6c-0.8,0-1.5-0.7-1.5-1.5V5c0-0.8,0.7-1.5,1.5-1.5h49.2c0.8,0,1.5,0.7,1.5,1.5v8.8
		c1.2,0.4,2.4,0.9,3.5,1.6V5c0-2.8-2.3-5-5-5H5C2.3,0,0,2.3,0,5v35.1c0,2.8,2.3,5,5,5h26.8l1.8-3.5H5z"/>
	<path fill="#E47479" d="M42.3,10.5c0-0.8-0.7-1.5-1.5-1.5H18.3c-0.8,0-1.5,0.7-1.5,1.5c0,0.8,0.7,1.5,1.5,1.5h22.4
		C41.6,12,42.3,11.3,42.3,10.5z"/>
	<path fill="#E47479" d="M69.3,48.8l-6.9-14.3c0.9-1.7,1.4-3.7,1.4-5.8c0-7-5.7-12.7-12.7-12.7c-7,0-12.7,5.7-12.7,12.7
		c0,2.2,0.6,4.3,1.6,6.2L33.1,49c-0.3,0.6-0.2,1.2,0.3,1.7c0.4,0.5,1.1,0.6,1.7,0.3l5-2.2l1.3,5.3c0.2,0.6,0.7,1.1,1.3,1.1
		c0.1,0,0.1,0,0.2,0c0.6,0,1.1-0.3,1.3-0.8l6.3-12.9c0.2,0,0.4,0,0.6,0c0.3,0,0.7,0,1-0.1l6.3,13c0.3,0.5,0.8,0.8,1.3,0.8
		c0.1,0,0.1,0,0.2,0c0.6-0.1,1.1-0.5,1.3-1.1l1.3-5.3l5,2.2c0.2,0.1,0.4,0.1,0.6,0.1c0,0,0,0,0,0c0.8,0,1.5-0.7,1.5-1.5
		C69.6,49.4,69.5,49.1,69.3,48.8z M43.3,49.4l-0.7-3c-0.1-0.4-0.4-0.8-0.8-1c-0.2-0.1-0.4-0.2-0.7-0.2c-0.2,0-0.4,0-0.6,0.1
		l-2.9,1.3l4.3-9c1.5,1.5,3.3,2.7,5.4,3.3L43.3,49.4z M51.1,38.5c-5.4,0-9.7-4.4-9.7-9.7c0-5.4,4.4-9.7,9.7-9.7
		c5.4,0,9.7,4.4,9.7,9.7C60.8,34.2,56.5,38.5,51.1,38.5z M62.1,45.4c-0.4-0.2-0.9-0.2-1.3,0c-0.4,0.2-0.7,0.6-0.8,1l-0.7,3l-4.1-8.5
		c2.1-0.7,3.9-1.9,5.3-3.5l4.5,9.2L62.1,45.4z"/>
	<path fill="#E47479" d="M51.1,22c-3.7,0-6.7,3-6.7,6.7c0,3.7,3,6.7,6.7,6.7c3.7,0,6.7-3,6.7-6.7C57.8,25.1,54.8,22,51.1,22z
		 M51.1,32.5c-2.1,0-3.7-1.7-3.7-3.7c0-2.1,1.7-3.7,3.7-3.7c2.1,0,3.7,1.7,3.7,3.7C54.8,30.8,53.1,32.5,51.1,32.5z"/>
</g>
</svg>
