<?xml version="1.0" encoding="utf-8"?>
<!-- Generator: Adobe Illustrator 18.0.0, SVG Export Plug-In . SVG Version: 6.00 Build 0)  -->
<!DOCTYPE svg PUBLIC "-//W3C//DTD SVG 1.1//EN" "http://www.w3.org/Graphics/SVG/1.1/DTD/svg11.dtd">
<svg version="1.1" id="Layer_1" xmlns="http://www.w3.org/2000/svg" xmlns:xlink="http://www.w3.org/1999/xlink" x="0px" y="0px"
	 viewBox="0 0 34 34" enable-background="new 0 0 34 34" xml:space="preserve">
<path fill-rule="evenodd" clip-rule="evenodd" fill="#231F20" stroke="#000000" stroke-width="2" stroke-linecap="round" stroke-linejoin="round" stroke-miterlimit="10" d="
	M32,33c-0.6,0-1-0.4-1-1v-7.3c-2.7,4.9-8,8.3-14,8.3C8.8,33,2.1,26.9,1.1,19h2c1,6.8,6.8,12,13.8,12c5.6,0,10.4-3.3,12.6-8H22
	c-0.6,0-1-0.4-1-1c0-0.6,0.4-1,1-1h8h0.4h2.1c0,0,0,0.1,0,0.1l0,0c0.1,0.1,0.2,0.2,0.3,0.3c0,0,0.1,0.1,0.1,0.2c0,0,0,0.1,0.1,0.1
	c0,0.1,0.1,0.2,0.1,0.3v10C33,32.6,32.6,33,32,33z M30.8,15C29.9,8.2,24.1,3,17,3C11.4,3,6.6,6.3,4.4,11H12c0.6,0,1,0.4,1,1
	c0,0.6-0.4,1-1,1H3.6H2H1.5c0,0,0-0.1,0-0.1l0,0c-0.1-0.1-0.2-0.2-0.3-0.3c0,0-0.1-0.1-0.1-0.2c0,0,0-0.1-0.1-0.1
	C1,12.2,1,12.1,1,12V2c0-0.6,0.4-1,1-1c0.6,0,1,0.4,1,1v7.3C5.7,4.3,11,1,17,1c8.2,0,14.9,6.1,15.9,14H30.8z"/>
</svg>
