<?xml version="1.0" encoding="utf-8"?>
<!-- Generator: Adobe Illustrator 18.0.0, SVG Export Plug-In . SVG Version: 6.00 Build 0)  -->
<!DOCTYPE svg PUBLIC "-//W3C//DTD SVG 1.1//EN" "http://www.w3.org/Graphics/SVG/1.1/DTD/svg11.dtd">
<svg version="1.1" id="Mini_Web_Icons" xmlns="http://www.w3.org/2000/svg" xmlns:xlink="http://www.w3.org/1999/xlink" x="0px"
	 y="0px" viewBox="0 0 31 32" enable-background="new 0 0 31 32" xml:space="preserve">
<path fill="#FFFFFF" d="M25,20c-1.7,0-3.2,0.7-4.3,1.9L11.9,17c0.1-0.3,0.1-0.7,0.1-1c0-0.3,0-0.6-0.1-0.9l9-4.7
	c1.1,1,2.5,1.6,4.1,1.6c3.3,0,6-2.7,6-6c0-3.3-2.7-6-6-6c-3.3,0-6,2.7-6,6c0,0.3,0,0.6,0.1,0.9l-9,4.7C9,10.6,7.6,10,6,10
	c-3.3,0-6,2.7-6,6c0,3.3,2.7,6,6,6c1.5,0,2.9-0.6,4-1.5l9.1,5c0,0.2,0,0.3,0,0.5c0,3.3,2.7,6,6,6c3.3,0,6-2.7,6-6
	C31,22.7,28.3,20,25,20z"/>
</svg>
