<?xml version="1.0" encoding="utf-8"?>
<!-- Generator: Adobe Illustrator 18.0.0, SVG Export Plug-In . SVG Version: 6.00 Build 0)  -->
<!DOCTYPE svg PUBLIC "-//W3C//DTD SVG 1.1//EN" "http://www.w3.org/Graphics/SVG/1.1/DTD/svg11.dtd">
<svg version="1.1" id="Layer_1" xmlns="http://www.w3.org/2000/svg" xmlns:xlink="http://www.w3.org/1999/xlink" x="0px" y="0px"
	 viewBox="0 0 60.5 48" enable-background="new 0 0 60.5 48" xml:space="preserve">
<path fill="none" d="M27.8,26h-3.3c-0.9,0-1.7,0.8-1.7,1.7c0,0.9,0.8,1.7,1.7,1.7h3.3c0.9,0,1.7-0.8,1.7-1.7
	C29.5,26.8,28.7,26,27.8,26z"/>
<path fill="none" d="M36,26h-3.3c-0.9,0-1.7,0.8-1.7,1.7c0,0.9,0.8,1.7,1.7,1.7H36c0.9,0,1.7-0.8,1.7-1.7C37.7,26.8,37,26,36,26z"/>
<path fill="none" d="M7.2,23.4c-0.3,0-0.7-0.1-0.9-0.3v3.4c0.3-0.2,0.6-0.3,0.9-0.3h11.9c0.1,0,0.2,0,0.3,0v-2.9c-0.1,0-0.2,0-0.3,0
	H7.2z"/>
<polygon fill="none" points="22.8,39 22.8,40.4 22.8,41.1 22.8,43 22.8,43.6 37.7,43.6 37.7,43 37.7,41.1 37.7,40.4 37.7,39 
	37.7,32.1 22.8,32.1 "/>
<path fill="none" d="M7.2,29.6c-0.3,0-0.7-0.1-0.9-0.3v3.4c0.3-0.2,0.6-0.3,0.9-0.3h11.9c0.1,0,0.2,0,0.3,0v-2.9c-0.1,0-0.2,0-0.3,0
	H7.2z"/>
<path fill="none" d="M7.2,17.2c-0.3,0-0.7-0.1-0.9-0.3v3.4C6.6,20.1,6.9,20,7.2,20h11.9c0.1,0,0.2,0,0.3,0v-2.9c-0.1,0-0.2,0-0.3,0
	H7.2z"/>
<path fill="none" d="M22.8,15.4c0,0.9,0.8,1.7,1.7,1.7h3.3c0.9,0,1.7-0.8,1.7-1.7c0-0.7-0.4-1.3-1-1.6h-4.7
	C23.2,14.1,22.8,14.7,22.8,15.4z"/>
<path fill="none" d="M7.2,35.9c-0.3,0-0.7-0.1-0.9-0.3V39h13.1v-3.2c-0.1,0-0.2,0-0.3,0H7.2z"/>
<path fill="none" d="M27.8,19.9h-3.3c-0.9,0-1.7,0.8-1.7,1.7c0,0.9,0.8,1.7,1.7,1.7h3.3c0.9,0,1.7-0.8,1.7-1.7
	C29.5,20.6,28.7,19.9,27.8,19.9z"/>
<path fill="none" d="M41.4,17.2c-0.1,0-0.2,0-0.3,0V20c0.1,0,0.2,0,0.3,0h11.9c0.3,0,0.7,0.1,0.9,0.3v-3.4c-0.3,0.2-0.6,0.3-0.9,0.3
	H41.4z"/>
<path fill="none" d="M41.4,23.4c-0.1,0-0.2,0-0.3,0v2.9c0.1,0,0.2,0,0.3,0h11.9c0.3,0,0.7,0.1,0.9,0.3v-3.4
	c-0.3,0.2-0.6,0.3-0.9,0.3H41.4z"/>
<path fill="none" d="M41.4,29.6c-0.1,0-0.2,0-0.3,0v2.9c0.1,0,0.2,0,0.3,0h11.9c0.3,0,0.7,0.1,0.9,0.3v-3.4
	c-0.3,0.2-0.6,0.3-0.9,0.3H41.4z"/>
<path fill="none" d="M36,19.9h-3.3c-0.9,0-1.7,0.8-1.7,1.7c0,0.9,0.8,1.7,1.7,1.7H36c0.9,0,1.7-0.8,1.7-1.7
	C37.7,20.6,37,19.9,36,19.9z"/>
<path fill="none" d="M41.4,35.9c-0.1,0-0.2,0-0.3,0V39h13.1v-3.5c-0.3,0.2-0.6,0.3-0.9,0.3H41.4z"/>
<path fill="none" d="M36.7,13.9H32c-0.6,0.3-1,0.9-1,1.6c0,0.9,0.8,1.7,1.7,1.7H36c0.9,0,1.7-0.8,1.7-1.7
	C37.7,14.7,37.3,14.1,36.7,13.9z"/>
<rect x="19" y="46.3" fill="#704395" width="22.5" height="1.7"/>
<path fill="#704395" d="M58.2,41.1c0-0.2,0.1-0.3,0.1-0.5V12.4c0-1.4-1.1-2.5-2.5-2.5h-7.5c-0.1-2.9-2.8-5.4-7.1-7.1V2.5
	c0-1.4-1.2-2.5-2.8-2.5H22.1c-1.5,0-2.8,1.1-2.8,2.5v0.3c-4.2,1.6-7,4.2-7.1,7.1H4.8c-1.4,0-2.5,1.1-2.5,2.5v28.2
	c0,0.2,0,0.4,0.1,0.5H0v3.5h20.6v1h19.3v-1h20.6v-3.5H58.2z M19.4,39H6.3v-3.5c0.3,0.2,0.6,0.3,0.9,0.3h11.9c0.1,0,0.2,0,0.3,0V39z
	 M19.4,32.5c-0.1,0-0.2,0-0.3,0H7.2c-0.3,0-0.7,0.1-0.9,0.3v-3.4c0.3,0.2,0.6,0.3,0.9,0.3h11.9c0.1,0,0.2,0,0.3,0V32.5z M19.4,26.2
	c-0.1,0-0.2,0-0.3,0H7.2c-0.3,0-0.7,0.1-0.9,0.3v-3.4c0.3,0.2,0.6,0.3,0.9,0.3h11.9c0.1,0,0.2,0,0.3,0V26.2z M19.4,20
	c-0.1,0-0.2,0-0.3,0H7.2c-0.3,0-0.7,0.1-0.9,0.3v-3.4c0.3,0.2,0.6,0.3,0.9,0.3h11.9c0.1,0,0.2,0,0.3,0V20z M30.3,4.7
	c0-0.2,0-0.3,0.1-0.4c0.1-0.1,0.2-0.2,0.4-0.2c0.2,0,0.3,0.1,0.4,0.2c0.1,0.1,0.1,0.2,0.1,0.4v2h2.9v-2c0-0.2,0-0.3,0.1-0.4
	c0.1-0.1,0.2-0.2,0.4-0.2c0.2,0,0.3,0.1,0.4,0.2c0.1,0.1,0.1,0.2,0.1,0.4v5.1c0,0.2,0,0.3-0.1,0.4c-0.1,0.1-0.2,0.2-0.4,0.2
	c-0.2,0-0.3-0.1-0.4-0.2c-0.1-0.1-0.1-0.2-0.1-0.4V7.6h-2.9v2.1c0,0.2,0,0.3-0.1,0.4c-0.1,0.1-0.2,0.2-0.4,0.2
	c-0.2,0-0.3-0.1-0.4-0.2c-0.1-0.1-0.1-0.2-0.1-0.4V4.7z M24.5,9.5l2-5.1C26.6,4.2,26.8,4,27,4c0.2,0,0.4,0.1,0.5,0.4l2.1,5.1
	c0.1,0.1,0.1,0.3,0,0.4s-0.1,0.3-0.3,0.3c-0.2,0.1-0.3,0.1-0.4,0c-0.1-0.1-0.2-0.2-0.3-0.4l-0.5-1.3h-2.3l-0.5,1.3
	c-0.2,0.4-0.4,0.6-0.7,0.4C24.4,10.2,24.3,9.9,24.5,9.5z M28.5,13.9c0.6,0.3,1,0.9,1,1.6c0,0.9-0.8,1.7-1.7,1.7h-3.3
	c-0.9,0-1.7-0.8-1.7-1.7c0-0.7,0.4-1.3,1-1.6H28.5z M27.8,23.3h-3.3c-0.9,0-1.7-0.8-1.7-1.7c0-0.9,0.8-1.7,1.7-1.7h3.3
	c0.9,0,1.7,0.8,1.7,1.7C29.5,22.5,28.7,23.3,27.8,23.3z M29.5,27.7c0,0.9-0.8,1.7-1.7,1.7h-3.3c-0.9,0-1.7-0.8-1.7-1.7
	c0-0.9,0.8-1.7,1.7-1.7h3.3C28.7,26,29.5,26.8,29.5,27.7z M19.9,10.3c-0.3-0.1-0.5-0.3-0.5-0.6v-5c0-0.2,0-0.3,0.1-0.4
	c0.1-0.1,0.2-0.2,0.4-0.2h2.8c0.2,0,0.3,0,0.4,0.1c0.1,0.1,0.1,0.2,0.1,0.4c0,0.1,0,0.3-0.1,0.3C23.1,5,23,5.1,22.8,5.1h-2.3v1.5
	c0.3,0,0.6-0.1,0.9-0.1c1.5,0,2.3,0.6,2.3,1.8c0,0.7-0.2,1.2-0.6,1.5c-0.4,0.3-1,0.5-1.8,0.5C20.8,10.4,20.3,10.3,19.9,10.3z
	 M37.7,39v1.4v0.6v2v0.5h-15V43v-2v-0.6V39v-6.9h15V39z M36,29.4h-3.3c-0.9,0-1.7-0.8-1.7-1.7c0-0.9,0.8-1.7,1.7-1.7H36
	c0.9,0,1.7,0.8,1.7,1.7C37.7,28.6,37,29.4,36,29.4z M36,23.3h-3.3c-0.9,0-1.7-0.8-1.7-1.7c0-0.9,0.8-1.7,1.7-1.7H36
	c0.9,0,1.7,0.8,1.7,1.7C37.7,22.5,37,23.3,36,23.3z M36,17.2h-3.3c-0.9,0-1.7-0.8-1.7-1.7c0-0.7,0.4-1.3,1-1.6h4.7
	c0.6,0.3,1,0.9,1,1.6C37.7,16.4,37,17.2,36,17.2z M40.9,10.2c-0.3,0.3-0.6,0.2-0.9-0.1l-2.3-2.6v2.3c0,0.2,0,0.3-0.1,0.4
	c-0.1,0.1-0.2,0.2-0.4,0.2c-0.2,0-0.3-0.1-0.4-0.2c-0.1-0.1-0.1-0.2-0.1-0.4V4.7c0-0.2,0-0.3,0.1-0.4c0.1-0.1,0.2-0.2,0.4-0.2
	c0.2,0,0.3,0.1,0.4,0.2c0.1,0.1,0.1,0.2,0.1,0.4v2.3l2.2-2.5c0.3-0.3,0.6-0.4,0.8-0.2c0.1,0.1,0.2,0.3,0.1,0.4
	c0,0.1-0.1,0.3-0.2,0.4l-1.9,2.1l2.1,2.2C41,9.4,41,9.6,41.1,9.7C41.1,9.9,41,10,40.9,10.2z M54.2,39H41.1v-3.2c0.1,0,0.2,0,0.3,0
	h11.9c0.3,0,0.7-0.1,0.9-0.3V39z M54.2,32.7c-0.3-0.2-0.6-0.3-0.9-0.3H41.4c-0.1,0-0.2,0-0.3,0v-2.9c0.1,0,0.2,0,0.3,0h11.9
	c0.3,0,0.7-0.1,0.9-0.3V32.7z M54.2,26.5c-0.3-0.2-0.6-0.3-0.9-0.3H41.4c-0.1,0-0.2,0-0.3,0v-2.9c0.1,0,0.2,0,0.3,0h11.9
	c0.3,0,0.7-0.1,0.9-0.3V26.5z M54.2,20.2c-0.3-0.2-0.6-0.3-0.9-0.3H41.4c-0.1,0-0.2,0-0.3,0v-2.9c0.1,0,0.2,0,0.3,0h11.9
	c0.3,0,0.7-0.1,0.9-0.3V20.2z"/>
<polygon fill="#704395" points="27,5.4 26.1,7.7 27.9,7.7 "/>
<path fill="#704395" d="M21.3,7.4c-0.3,0-0.6,0-0.8,0.1v2c0.2,0,0.5,0,0.8,0c0.8,0,1.3-0.4,1.3-1.1c0-0.3-0.1-0.6-0.3-0.8
	C22,7.5,21.7,7.4,21.3,7.4z"/>
</svg>
