<?xml version="1.0" encoding="utf-8"?>
<!-- Generator: Adobe Illustrator 18.0.0, SVG Export Plug-In . SVG Version: 6.00 Build 0)  -->
<!DOCTYPE svg PUBLIC "-//W3C//DTD SVG 1.1//EN" "http://www.w3.org/Graphics/SVG/1.1/DTD/svg11.dtd">
<svg version="1.1" id="Layer_7" xmlns="http://www.w3.org/2000/svg" xmlns:xlink="http://www.w3.org/1999/xlink" x="0px" y="0px"
	 viewBox="0 0 40.8 35.3" enable-background="new 0 0 40.8 35.3" xml:space="preserve">
<polyline fill="none" stroke="#646464" stroke-width="4.5" stroke-linecap="round" stroke-linejoin="round" stroke-miterlimit="10" points="
	37.6,15.1 20.7,15.1 19.9,15.1 3,15.1 "/>
<path fill="none" stroke="#646464" stroke-width="4.5" stroke-linecap="round" stroke-linejoin="round" stroke-miterlimit="10" d="
	M2.3,15.1C2,16.8,3,18.3,3,18.3c0.3,0.5,1.1,1.1,1.7,1.1h2.2L9,27.3c0,0,0,0.1,0,0.1l1,3.8c0.3,1.1,1.3,1.9,2.5,1.9h6.9h2h6.9
	c1.2,0,2.2-0.8,2.5-1.9l1-3.8c0,0,0-0.1,0-0.1l2.2-7.9h2.2c0.6,0,1.4-0.6,1.7-1.1c0,0,0.8-1.3,0.5-3.2"/>
<path fill="#282828" stroke="#646464" stroke-width="2.3" stroke-linecap="round" stroke-linejoin="round" stroke-miterlimit="10" d="
	M19.2,11.8c0.3,0.6,1,1,1.7,1c0.3,0,0.6-0.1,0.9-0.2c0.9-0.5,1.2-1.7,0.7-2.6l-4.2-7.8c-0.3-0.6-1-1-1.7-1c-0.3,0-0.6,0.1-0.9,0.2
	C14.8,1.9,14.5,3.1,15,4L19.2,11.8z"/>
</svg>
