<?xml version="1.0" encoding="utf-8"?>
<!-- Generator: Adobe Illustrator 18.0.0, SVG Export Plug-In . SVG Version: 6.00 Build 0)  -->
<!DOCTYPE svg PUBLIC "-//W3C//DTD SVG 1.1//EN" "http://www.w3.org/Graphics/SVG/1.1/DTD/svg11.dtd">
<svg version="1.1" id="els_x5F_finance" xmlns="http://www.w3.org/2000/svg" xmlns:xlink="http://www.w3.org/1999/xlink" x="0px"
	 y="0px" viewBox="0 0 55 55" enable-background="new 0 0 55 55" xml:space="preserve">
<path fill="none" stroke="#000000" stroke-width="4" stroke-linecap="round" stroke-linejoin="round" stroke-miterlimit="3" d="
	M27.5,2L27.5,2C13.4,2.1,2,13.4,2,27.5c0,14,11.4,25.4,25.4,25.5l0.1,0C41.6,53,53,41.6,53,27.5C53,13.4,41.6,2,27.5,2z M38.8,39.5
	c-5,3.6-7.7,2.2-10.4,0.7c-0.3-0.2-0.7-0.4-1-0.5c-1.5-0.7-3.2-0.8-6.1,1.5l-0.2,0.2l-0.2,0.1c-2.2,1.1-3.5,0.7-4.2-0.7
	c-0.7-1.4,0.6-3.4,2-5.7c1.3-2,2.6-4.4,2.8-5.6c0.4-2.1-0.5-4.3-0.8-4.9c-0.6-1.4-1.2-2.8-1.3-5.6v0V19l0,0c0-2.4,0.8-4.5,2.4-6
	c1.3-1.3,3.1-2.1,5.4-2.3c1-0.1,1.4-0.1,1.4-0.1l0,0c2.2,0,4.1,0.6,5.5,1.6c1.7,1.2,2.8,2.8,3,4.6c0.1,0.5,0.2,1.4-0.1,2.3
	c-0.2,1-0.7,2.1-1.8,3.2"/>
<line fill="none" stroke="#000000" stroke-width="4" stroke-linecap="round" stroke-linejoin="round" stroke-miterlimit="3" x1="29.1" y1="29" x2="14.1" y2="29"/>
</svg>
